<svg xmlns="http://www.w3.org/2000/svg" xmlns:xlink="http://www.w3.org/1999/xlink" width="192" zoomAndPan="magnify" viewBox="0 0 144 104.249996" height="139" preserveAspectRatio="xMidYMid meet" version="1.0"><defs><g/><clipPath id="e3c5793e78"><path d="M 35.515625 49 L 56 49 L 56 74 L 35.515625 74 Z M 35.515625 49 " clip-rule="nonzero"/></clipPath><clipPath id="dc6bcdae85"><path d="M 89 51 L 107.746094 51 L 107.746094 76 L 89 76 Z M 89 51 " clip-rule="nonzero"/></clipPath><clipPath id="fe3038c2a5"><path d="M 71 32.449219 L 92 32.449219 L 92 61 L 71 61 Z M 71 32.449219 " clip-rule="nonzero"/></clipPath></defs><path fill="#0097b2" d="M 96.625 83.136719 C 95.972656 81.296875 94.894531 79.605469 93.480469 78.261719 L 81.140625 66.464844 C 78.523438 63.957031 75.089844 62.585938 71.476562 62.585938 C 71.449219 62.585938 71.433594 62.585938 71.40625 62.585938 C 67.765625 62.601562 64.316406 64.011719 61.714844 66.5625 L 49.488281 78.46875 C 48.085938 79.828125 47.019531 81.53125 46.382812 83.371094 L 46.109375 84.1875 C 44.792969 88.066406 45.457031 92.332031 47.878906 95.628906 L 48.933594 97.054688 C 51.3125 100.28125 55.054688 102.109375 58.945312 102.109375 C 59.914062 102.109375 60.898438 101.996094 61.867188 101.761719 C 62.972656 101.5 64.027344 101.082031 65.023438 100.53125 C 69.121094 98.246094 74.023438 98.230469 78.136719 100.472656 C 79.132812 101.015625 80.199219 101.414062 81.308594 101.679688 C 86.195312 102.800781 91.25 100.902344 94.199219 96.847656 L 95.238281 95.40625 C 97.636719 92.097656 98.257812 87.816406 96.914062 83.953125 Z M 93.410156 94.0625 L 92.371094 95.503906 C 89.964844 98.828125 85.835938 100.378906 81.835938 99.449219 C 80.933594 99.242188 80.0625 98.910156 79.246094 98.464844 C 74.441406 95.847656 68.722656 95.875 63.929688 98.535156 C 63.113281 98.992188 62.253906 99.324219 61.355469 99.546875 C 57.367188 100.5 53.210938 98.992188 50.773438 95.695312 L 49.722656 94.269531 C 47.726562 91.582031 47.1875 88.082031 48.269531 84.921875 L 48.542969 84.105469 C 49.058594 82.597656 49.929688 81.210938 51.078125 80.089844 L 63.304688 68.179688 C 65.589844 65.953125 68.539062 64.84375 71.476562 64.84375 C 74.382812 64.84375 77.292969 65.9375 79.578125 68.113281 L 91.914062 79.910156 C 93.066406 81.019531 93.964844 82.390625 94.492188 83.898438 L 94.78125 84.714844 C 95.875 87.859375 95.363281 91.347656 93.410156 94.0625 Z M 93.410156 94.0625 " fill-opacity="1" fill-rule="nonzero"/><g clip-path="url(#e3c5793e78)"><path fill="#0097b2" d="M 50.996094 72.75 C 53.238281 71.671875 54.734375 69.441406 55.207031 66.492188 C 55.648438 63.695312 55.121094 60.539062 53.710938 57.601562 C 52.296875 54.664062 50.152344 52.296875 47.6875 50.898438 C 45.082031 49.429688 42.410156 49.222656 40.167969 50.304688 C 37.921875 51.382812 36.429688 53.613281 35.957031 56.5625 C 35.515625 59.359375 36.039062 62.515625 37.453125 65.453125 C 38.863281 68.390625 41.011719 70.757812 43.476562 72.15625 C 44.984375 73 46.507812 73.429688 47.964844 73.429688 C 49.03125 73.429688 50.054688 73.207031 50.996094 72.75 Z M 39.488281 64.46875 C 38.269531 61.949219 37.8125 59.277344 38.1875 56.9375 C 38.53125 54.734375 39.585938 53.113281 41.136719 52.367188 C 41.757812 52.0625 42.453125 51.910156 43.171875 51.910156 C 44.238281 51.910156 45.386719 52.242188 46.550781 52.894531 C 48.628906 54.054688 50.429688 56.078125 51.648438 58.597656 C 52.863281 61.117188 53.320312 63.792969 52.949219 66.132812 C 52.601562 68.332031 51.550781 69.953125 50 70.703125 C 48.449219 71.449219 46.523438 71.269531 44.585938 70.175781 C 42.519531 69.011719 40.707031 66.988281 39.488281 64.46875 Z M 39.488281 64.46875 " fill-opacity="1" fill-rule="nonzero"/></g><g clip-path="url(#dc6bcdae85)"><path fill="#0097b2" d="M 106.898438 56.882812 C 105.875 54.070312 103.976562 52.1875 101.566406 51.550781 C 99.160156 50.914062 96.582031 51.632812 94.296875 53.570312 C 92.136719 55.414062 90.488281 58.15625 89.660156 61.296875 C 88.828125 64.441406 88.910156 67.640625 89.894531 70.3125 C 90.917969 73.125 92.816406 75.007812 95.226562 75.644531 C 95.792969 75.796875 96.375 75.867188 96.96875 75.867188 C 98.855469 75.867188 100.765625 75.105469 102.496094 73.625 C 104.65625 71.78125 106.304688 69.039062 107.132812 65.894531 C 107.964844 62.753906 107.867188 59.554688 106.898438 56.882812 Z M 104.933594 65.316406 C 104.226562 68.015625 102.828125 70.355469 101.027344 71.890625 C 99.339844 73.332031 97.484375 73.886719 95.808594 73.441406 C 94.132812 73 92.800781 71.617188 92.027344 69.523438 C 91.210938 67.292969 91.152344 64.582031 91.859375 61.878906 C 92.566406 59.179688 93.964844 56.839844 95.765625 55.300781 C 97.082031 54.179688 98.492188 53.597656 99.835938 53.597656 C 100.222656 53.597656 100.613281 53.65625 100.984375 53.75 C 102.660156 54.195312 103.992188 55.578125 104.765625 57.671875 C 105.582031 59.898438 105.640625 62.613281 104.933594 65.316406 Z M 104.933594 65.316406 " fill-opacity="1" fill-rule="nonzero"/></g><path fill="#0097b2" d="M 56.148438 57.824219 C 58.03125 59.691406 60.191406 60.675781 62.351562 60.675781 C 62.792969 60.675781 63.238281 60.632812 63.679688 60.550781 C 66.269531 60.050781 68.402344 58.167969 69.675781 55.234375 C 70.894531 52.449219 71.199219 49.015625 70.535156 45.566406 C 69.871094 42.121094 68.320312 39.046875 66.160156 36.914062 C 63.914062 34.65625 61.230469 33.699219 58.640625 34.183594 C 56.0625 34.683594 53.929688 36.566406 52.644531 39.503906 C 51.425781 42.285156 51.121094 45.71875 51.785156 49.167969 C 52.4375 52.601562 53.988281 55.675781 56.148438 57.824219 Z M 54.734375 40.417969 C 55.703125 38.1875 57.253906 36.773438 59.082031 36.429688 C 59.375 36.371094 59.679688 36.34375 59.984375 36.34375 C 61.546875 36.34375 63.152344 37.105469 64.59375 38.53125 C 66.4375 40.347656 67.765625 43.007812 68.332031 45.996094 C 68.902344 48.988281 68.652344 51.953125 67.613281 54.320312 C 66.644531 56.550781 65.09375 57.960938 63.265625 58.308594 C 61.4375 58.652344 59.46875 57.90625 57.753906 56.203125 C 55.910156 54.390625 54.582031 51.730469 54.015625 48.738281 C 53.433594 45.734375 53.695312 42.785156 54.734375 40.417969 Z M 54.734375 40.417969 " fill-opacity="1" fill-rule="nonzero"/><g clip-path="url(#fe3038c2a5)"><path fill="#0097b2" d="M 78.707031 60.648438 C 79.132812 60.730469 79.5625 60.773438 80.007812 60.773438 C 82.152344 60.773438 84.3125 59.734375 86.222656 57.738281 C 88.382812 55.496094 89.976562 52.269531 90.695312 48.667969 C 91.429688 45.070312 91.210938 41.484375 90.089844 38.5625 C 88.898438 35.488281 86.847656 33.507812 84.285156 32.980469 C 81.722656 32.46875 79.066406 33.492188 76.765625 35.875 C 74.605469 38.117188 73.015625 41.34375 72.292969 44.945312 C 71.558594 48.546875 71.78125 52.132812 72.902344 55.054688 C 74.09375 58.140625 76.144531 60.121094 78.707031 60.648438 Z M 74.523438 45.402344 C 75.160156 42.214844 76.542969 39.390625 78.414062 37.453125 C 80.144531 35.652344 82.070312 34.847656 83.84375 35.210938 C 85.613281 35.570312 87.082031 37.050781 87.96875 39.378906 C 88.9375 41.882812 89.117188 45.027344 88.46875 48.210938 C 87.832031 51.398438 86.445312 54.222656 84.578125 56.160156 C 82.84375 57.960938 80.921875 58.765625 79.148438 58.40625 C 77.375 58.042969 75.90625 56.5625 75.023438 54.238281 C 74.050781 51.730469 73.871094 48.601562 74.523438 45.402344 Z M 74.523438 45.402344 " fill-opacity="1" fill-rule="nonzero"/></g><path fill="#dce7f5" d="M 14.800781 83.066406 C 14.511719 83.125 14.214844 83.15625 13.917969 83.15625 C 13.621094 83.15625 13.324219 83.132812 13.03125 83.074219 C 12.738281 83.019531 12.453125 82.9375 12.179688 82.828125 C 11.902344 82.71875 11.636719 82.582031 11.386719 82.421875 C 11.136719 82.257812 10.902344 82.078125 10.6875 81.871094 C 10.472656 81.664062 10.28125 81.441406 10.105469 81.199219 C 9.933594 80.953125 9.789062 80.699219 9.664062 80.425781 C 9.542969 80.15625 9.445312 79.875 9.378906 79.585938 C 9.195312 78.460938 9.046875 77.335938 8.925781 76.203125 C 8.808594 75.070312 8.71875 73.9375 8.660156 72.800781 C 8.601562 71.664062 8.574219 70.527344 8.578125 69.390625 C 8.578125 68.253906 8.613281 67.117188 8.679688 65.980469 C 8.742188 64.84375 8.835938 63.710938 8.964844 62.578125 C 9.089844 61.449219 9.246094 60.320312 9.429688 59.199219 C 9.617188 58.078125 9.835938 56.960938 10.082031 55.851562 C 10.328125 54.738281 10.605469 53.636719 10.910156 52.539062 C 11.21875 51.445312 11.554688 50.359375 11.917969 49.28125 C 12.285156 48.203125 12.679688 47.136719 13.101562 46.082031 C 13.523438 45.023438 13.976562 43.980469 14.457031 42.949219 C 14.933594 41.917969 15.441406 40.898438 15.976562 39.894531 C 16.511719 38.890625 17.070312 37.898438 17.660156 36.925781 C 18.246094 35.953125 18.859375 34.992188 19.5 34.054688 C 20.140625 33.113281 20.804688 32.1875 21.492188 31.285156 C 22.183594 30.378906 22.898438 29.492188 23.632812 28.625 C 24.371094 27.761719 25.132812 26.914062 25.914062 26.089844 C 26.699219 25.261719 27.503906 24.460938 28.328125 23.675781 C 29.15625 22.894531 30.003906 22.136719 30.871094 21.402344 C 31.738281 20.664062 32.625 19.953125 33.53125 19.265625 C 34.4375 18.574219 35.359375 17.914062 36.300781 17.273438 C 37.242188 16.636719 38.203125 16.023438 39.175781 15.4375 C 40.152344 14.851562 41.140625 14.289062 42.148438 13.757812 C 43.152344 13.222656 44.171875 12.71875 45.203125 12.242188 C 46.238281 11.761719 47.28125 11.3125 48.339844 10.890625 C 49.394531 10.46875 50.460938 10.078125 51.539062 9.714844 C 52.617188 9.351562 53.707031 9.015625 54.800781 8.710938 C 55.898438 8.40625 57 8.128906 58.113281 7.886719 C 59.222656 7.640625 60.339844 7.425781 61.460938 7.238281 C 62.585938 7.054688 63.710938 6.898438 64.84375 6.773438 C 65.972656 6.652344 67.105469 6.558594 68.242188 6.496094 C 69.378906 6.433594 70.515625 6.398438 71.652344 6.398438 C 72.792969 6.398438 73.929688 6.425781 75.066406 6.484375 C 76.199219 6.546875 77.335938 6.636719 78.464844 6.757812 C 79.597656 6.878906 80.726562 7.03125 81.847656 7.210938 C 82.972656 7.394531 84.089844 7.605469 85.199219 7.851562 C 86.3125 8.09375 87.414062 8.363281 88.511719 8.667969 C 89.609375 8.96875 90.699219 9.300781 91.777344 9.660156 C 92.855469 10.023438 93.921875 10.414062 94.980469 10.832031 C 96.039062 11.25 97.085938 11.695312 98.121094 12.171875 C 99.152344 12.648438 100.171875 13.152344 101.179688 13.679688 C 102.1875 14.210938 103.175781 14.769531 104.152344 15.351562 C 105.128906 15.9375 106.089844 16.546875 107.035156 17.183594 C 107.976562 17.816406 108.902344 18.480469 109.8125 19.164062 C 110.71875 19.851562 111.609375 20.5625 112.476562 21.292969 C 113.347656 22.027344 114.195312 22.785156 115.023438 23.566406 C 115.851562 24.34375 116.660156 25.144531 117.445312 25.96875 C 118.230469 26.792969 118.992188 27.636719 119.730469 28.5 C 120.472656 29.367188 121.1875 30.25 121.878906 31.152344 C 122.570312 32.058594 123.238281 32.976562 123.878906 33.917969 C 124.519531 34.855469 125.136719 35.8125 125.726562 36.785156 C 126.316406 37.757812 126.882812 38.746094 127.417969 39.75 C 127.957031 40.753906 128.464844 41.769531 128.949219 42.800781 C 129.429688 43.828125 129.882812 44.871094 130.308594 45.929688 C 130.734375 46.984375 131.132812 48.050781 131.5 49.125 C 131.867188 50.203125 132.207031 51.289062 132.515625 52.382812 C 132.824219 53.476562 133.105469 54.582031 133.355469 55.691406 C 133.605469 56.800781 133.824219 57.917969 134.011719 59.039062 C 134.203125 60.160156 134.363281 61.285156 134.492188 62.417969 C 134.621094 63.546875 134.71875 64.679688 134.785156 65.816406 C 134.851562 66.953125 134.890625 68.089844 134.894531 69.226562 C 134.902344 70.363281 134.875 71.5 134.820312 72.636719 C 134.765625 73.773438 134.679688 74.90625 134.5625 76.039062 C 134.445312 77.171875 134.296875 78.300781 134.121094 79.421875 C 134.050781 79.710938 133.957031 79.992188 133.835938 80.265625 C 133.714844 80.535156 133.566406 80.792969 133.394531 81.039062 C 133.222656 81.28125 133.03125 81.507812 132.816406 81.710938 C 132.601562 81.917969 132.367188 82.101562 132.117188 82.265625 C 131.867188 82.425781 131.605469 82.5625 131.328125 82.671875 C 131.050781 82.785156 130.765625 82.867188 130.476562 82.921875 C 130.183594 82.980469 129.886719 83.007812 129.589844 83.007812 C 129.292969 83.007812 128.996094 82.976562 128.703125 82.917969 L 115.136719 79.738281 C 114.824219 79.683594 114.523438 79.597656 114.226562 79.480469 C 113.933594 79.367188 113.652344 79.222656 113.390625 79.046875 C 113.125 78.875 112.878906 78.675781 112.65625 78.453125 C 112.429688 78.230469 112.230469 77.988281 112.058594 77.722656 C 111.882812 77.460938 111.738281 77.179688 111.621094 76.886719 C 111.503906 76.59375 111.414062 76.292969 111.359375 75.980469 C 111.304688 75.667969 111.28125 75.355469 111.289062 75.039062 C 111.296875 74.722656 111.335938 74.410156 111.410156 74.101562 C 111.570312 72.707031 111.65625 71.308594 111.667969 69.902344 C 111.679688 68.5 111.617188 67.097656 111.480469 65.703125 C 111.347656 64.304688 111.136719 62.917969 110.855469 61.542969 C 110.574219 60.167969 110.21875 58.808594 109.796875 57.472656 C 109.371094 56.132812 108.875 54.820312 108.3125 53.535156 C 107.75 52.25 107.121094 50.996094 106.425781 49.777344 C 105.730469 48.558594 104.972656 47.378906 104.152344 46.238281 C 103.332031 45.097656 102.453125 44.003906 101.519531 42.957031 C 100.582031 41.910156 99.597656 40.914062 98.554688 39.972656 C 97.515625 39.027344 96.429688 38.144531 95.292969 37.316406 C 94.160156 36.488281 92.988281 35.71875 91.773438 35.015625 C 90.558594 34.3125 89.308594 33.671875 88.027344 33.101562 C 86.746094 32.527344 85.4375 32.023438 84.101562 31.589844 C 82.765625 31.152344 81.414062 30.789062 80.039062 30.5 C 78.667969 30.207031 77.28125 29.988281 75.886719 29.839844 C 74.488281 29.695312 73.089844 29.625 71.683594 29.625 C 70.28125 29.628906 68.878906 29.703125 67.484375 29.851562 C 66.089844 30 64.703125 30.222656 63.332031 30.519531 C 61.957031 30.816406 60.605469 31.183594 59.269531 31.621094 C 57.9375 32.058594 56.628906 32.566406 55.351562 33.140625 C 54.070312 33.71875 52.824219 34.359375 51.609375 35.066406 C 50.398438 35.777344 49.226562 36.546875 48.09375 37.375 C 46.960938 38.207031 45.878906 39.097656 44.839844 40.042969 C 43.800781 40.988281 42.816406 41.984375 41.882812 43.035156 C 40.953125 44.085938 40.078125 45.179688 39.261719 46.320312 C 38.441406 47.464844 37.6875 48.644531 36.996094 49.867188 C 36.304688 51.089844 35.675781 52.34375 35.117188 53.628906 C 34.558594 54.917969 34.066406 56.230469 33.644531 57.570312 C 33.222656 58.910156 32.875 60.269531 32.59375 61.644531 C 32.316406 63.019531 32.113281 64.40625 31.980469 65.804688 C 31.847656 67.203125 31.789062 68.605469 31.804688 70.007812 C 31.820312 71.410156 31.910156 72.8125 32.074219 74.207031 C 32.148438 74.511719 32.1875 74.824219 32.199219 75.140625 C 32.207031 75.457031 32.183594 75.769531 32.128906 76.082031 C 32.074219 76.394531 31.988281 76.695312 31.871094 76.992188 C 31.753906 77.285156 31.609375 77.5625 31.4375 77.828125 C 31.261719 78.09375 31.0625 78.335938 30.839844 78.558594 C 30.617188 78.785156 30.371094 78.980469 30.109375 79.15625 C 29.84375 79.328125 29.5625 79.476562 29.269531 79.59375 C 28.976562 79.710938 28.675781 79.796875 28.363281 79.851562 Z M 14.800781 83.066406 " fill-opacity="1" fill-rule="nonzero"/><g fill="#004aad" fill-opacity="1"><g transform="translate(26.851256, 78.192024)"><g><path d="M -0.546875 -8.875 L -3.375 -7.828125 L -3.09375 -3.453125 L -0.171875 -2.75 L 0 0 L -12.328125 -3.484375 L -12.515625 -6.609375 L -0.71875 -11.625 Z M -5.46875 -7.078125 C -8.007812 -6.117188 -9.441406 -5.570312 -9.765625 -5.4375 C -10.097656 -5.3125 -10.363281 -5.222656 -10.5625 -5.171875 C -9.851562 -5.023438 -8.085938 -4.613281 -5.265625 -3.9375 Z M -5.46875 -7.078125 "/></g></g></g><g fill="#004aad" fill-opacity="1"><g transform="translate(26.275642, 67.720771)"><g><path d="M -8.515625 -7.578125 C -8.460938 -7.921875 -8.398438 -8.195312 -8.328125 -8.40625 L -6.015625 -7.921875 C -6.085938 -7.734375 -6.140625 -7.492188 -6.171875 -7.203125 C -6.273438 -6.398438 -6.148438 -5.75 -5.796875 -5.25 C -5.441406 -4.757812 -4.898438 -4.46875 -4.171875 -4.375 L 0.484375 -3.796875 L 0.15625 -1.296875 L -8.984375 -2.4375 L -8.734375 -4.328125 L -7.140625 -4.515625 L -7.125 -4.640625 C -7.613281 -4.984375 -7.984375 -5.414062 -8.234375 -5.9375 C -8.484375 -6.46875 -8.578125 -7.015625 -8.515625 -7.578125 Z M -8.515625 -7.578125 "/></g></g></g><g fill="#004aad" fill-opacity="1"><g transform="translate(27.065997, 60.999457)"><g><path d="M -0.390625 -5.515625 C -0.273438 -5.929688 -0.222656 -6.457031 -0.234375 -7.09375 L 1.578125 -6.59375 C 1.679688 -5.914062 1.609375 -5.140625 1.359375 -4.265625 C 1.097656 -3.296875 0.65625 -2.65625 0.03125 -2.34375 C -0.582031 -2.039062 -1.378906 -2.023438 -2.359375 -2.296875 L -6.640625 -3.484375 L -6.953125 -2.328125 L -7.984375 -2.609375 L -8.4375 -4.171875 L -10.09375 -5.390625 L -9.671875 -6.9375 L -7.796875 -6.421875 L -7.109375 -8.90625 L -5.28125 -8.390625 L -5.96875 -5.90625 L -1.6875 -4.71875 C -1.34375 -4.625 -1.0625 -4.648438 -0.84375 -4.796875 C -0.632812 -4.953125 -0.484375 -5.191406 -0.390625 -5.515625 Z M -0.390625 -5.515625 "/></g></g></g><g fill="#004aad" fill-opacity="1"><g transform="translate(28.839482, 54.670624)"><g><path d="M -10.25 -5.546875 C -11.007812 -5.859375 -11.21875 -6.4375 -10.875 -7.28125 C -10.53125 -8.125 -9.976562 -8.390625 -9.21875 -8.078125 C -8.863281 -7.929688 -8.625 -7.707031 -8.5 -7.40625 C -8.382812 -7.113281 -8.414062 -6.757812 -8.59375 -6.34375 C -8.9375 -5.5 -9.488281 -5.234375 -10.25 -5.546875 Z M 1.453125 -3.53125 L 0.5 -1.21875 L -8.015625 -4.734375 L -7.0625 -7.046875 Z M 1.453125 -3.53125 "/></g></g></g><g fill="#004aad" fill-opacity="1"><g transform="translate(30.330284, 50.600685)"><g><path d="M 2.6875 -4.28125 C 1.257812 -1.800781 -0.820312 -1.351562 -3.5625 -2.9375 C -4.90625 -3.726562 -5.742188 -4.664062 -6.078125 -5.75 C -6.410156 -6.832031 -6.210938 -8.003906 -5.484375 -9.265625 C -4.941406 -10.191406 -4.273438 -10.921875 -3.484375 -11.453125 L -2.171875 -9.828125 C -2.503906 -9.554688 -2.800781 -9.300781 -3.0625 -9.0625 C -3.320312 -8.820312 -3.539062 -8.550781 -3.71875 -8.25 C -4.363281 -7.125 -3.882812 -6.097656 -2.28125 -5.171875 C -0.726562 -4.265625 0.367188 -4.375 1.015625 -5.5 C 1.265625 -5.914062 1.4375 -6.332031 1.53125 -6.75 C 1.632812 -7.175781 1.664062 -7.640625 1.625 -8.140625 L 3.484375 -7.0625 C 3.515625 -6.570312 3.46875 -6.117188 3.34375 -5.703125 C 3.226562 -5.296875 3.007812 -4.820312 2.6875 -4.28125 Z M 2.6875 -4.28125 "/></g></g></g><g fill="#004aad" fill-opacity="1"><g transform="translate(34.357982, 43.821606)"><g/></g></g><g fill="#004aad" fill-opacity="1"><g transform="translate(36.062787, 40.86056)"><g><path d="M 8.328125 -7.78125 L 6.46875 -6.03125 L 2.921875 -9.828125 L -0.5625 -6.578125 L 2.984375 -2.78125 L 1.109375 -1.03125 L -7.109375 -9.84375 L -5.234375 -11.59375 L -2.015625 -8.140625 L 1.46875 -11.390625 L -1.75 -14.84375 L 0.109375 -16.59375 Z M 8.328125 -7.78125 "/></g></g></g><g fill="#004aad" fill-opacity="1"><g transform="translate(44.433813, 32.963216)"><g><path d="M 6.8125 -3.890625 L 5.9375 -4.734375 L 5.828125 -4.671875 C 5.796875 -4.171875 5.625 -3.691406 5.3125 -3.234375 C 5 -2.785156 4.570312 -2.40625 4.03125 -2.09375 C 3.082031 -1.5625 2.222656 -1.410156 1.453125 -1.640625 C 0.691406 -1.878906 0.0390625 -2.46875 -0.5 -3.40625 L -3.46875 -8.625 L -1.28125 -9.875 L 1.390625 -5.203125 C 1.710938 -4.617188 2.054688 -4.238281 2.421875 -4.0625 C 2.796875 -3.894531 3.210938 -3.941406 3.671875 -4.203125 C 4.273438 -4.546875 4.597656 -5 4.640625 -5.5625 C 4.679688 -6.132812 4.429688 -6.890625 3.890625 -7.828125 L 1.75 -11.59375 L 3.921875 -12.84375 L 8.484375 -4.84375 Z M 6.8125 -3.890625 "/></g></g></g><g fill="#004aad" fill-opacity="1"><g transform="translate(53.068874, 28.059535)"><g><path d="M 6.4375 -5.09375 C 6.75 -4.1875 6.675781 -3.394531 6.21875 -2.71875 C 5.757812 -2.050781 4.910156 -1.503906 3.671875 -1.078125 C 3.035156 -0.859375 2.476562 -0.71875 2 -0.65625 C 1.519531 -0.59375 1.054688 -0.578125 0.609375 -0.609375 L -0.0625 -2.578125 C 0.445312 -2.515625 1.003906 -2.503906 1.609375 -2.546875 C 2.210938 -2.597656 2.722656 -2.695312 3.140625 -2.84375 C 4.003906 -3.132812 4.351562 -3.535156 4.1875 -4.046875 C 4.125 -4.222656 4.015625 -4.347656 3.859375 -4.421875 C 3.703125 -4.503906 3.457031 -4.570312 3.125 -4.625 C 2.800781 -4.675781 2.367188 -4.722656 1.828125 -4.765625 C 1.054688 -4.816406 0.472656 -4.90625 0.078125 -5.03125 C -0.304688 -5.15625 -0.625 -5.347656 -0.875 -5.609375 C -1.125 -5.878906 -1.328125 -6.242188 -1.484375 -6.703125 C -1.753906 -7.472656 -1.660156 -8.171875 -1.203125 -8.796875 C -0.742188 -9.429688 0.0351562 -9.9375 1.140625 -10.3125 C 2.191406 -10.675781 3.289062 -10.789062 4.4375 -10.65625 L 4.296875 -8.703125 C 3.804688 -8.734375 3.347656 -8.742188 2.921875 -8.734375 C 2.503906 -8.734375 2.09375 -8.660156 1.6875 -8.515625 C 0.988281 -8.273438 0.707031 -7.96875 0.84375 -7.59375 C 0.914062 -7.375 1.085938 -7.226562 1.359375 -7.15625 C 1.640625 -7.082031 2.21875 -7.023438 3.09375 -6.984375 C 3.863281 -6.941406 4.445312 -6.851562 4.84375 -6.71875 C 5.25 -6.582031 5.578125 -6.382812 5.828125 -6.125 C 6.085938 -5.863281 6.289062 -5.519531 6.4375 -5.09375 Z M 6.4375 -5.09375 "/></g></g></g><g fill="#004aad" fill-opacity="1"><g transform="translate(59.897401, 25.517661)"><g><path d="M 2.953125 -5.515625 L 3.84375 -7.046875 L 5.984375 -10.203125 L 8.78125 -10.625 L 5.734375 -6.125 L 10.359375 -1.53125 L 7.484375 -1.109375 L 4.3125 -4.40625 L 3.359375 -3.40625 L 3.78125 -0.5625 L 1.296875 -0.1875 L -0.578125 -12.875 L 1.90625 -13.25 L 2.75 -7.59375 L 2.921875 -5.515625 Z M 2.953125 -5.515625 "/></g></g></g><g fill="#004aad" fill-opacity="1"><g transform="translate(69.067195, 24.088715)"><g><path d="M 0.4375 -9.203125 L 3.1875 -9.078125 L 4.671875 -3.8125 C 4.804688 -3.363281 4.882812 -2.828125 4.90625 -2.203125 L 4.953125 -2.203125 C 5.046875 -2.765625 5.191406 -3.289062 5.390625 -3.78125 L 7.328125 -8.875 L 10.015625 -8.75 L 5.640625 1.4375 C 5.242188 2.394531 4.703125 3.09375 4.015625 3.53125 C 3.335938 3.976562 2.554688 4.179688 1.671875 4.140625 C 1.234375 4.117188 0.804688 4.050781 0.390625 3.9375 L 0.484375 1.953125 C 0.785156 2.035156 1.113281 2.085938 1.46875 2.109375 C 1.914062 2.128906 2.3125 2.007812 2.65625 1.75 C 3 1.5 3.28125 1.101562 3.5 0.5625 L 3.65625 0.109375 Z M 0.4375 -9.203125 "/></g></g></g><g fill="#004aad" fill-opacity="1"><g transform="translate(77.801652, 24.627168)"><g/></g></g><g fill="#004aad" fill-opacity="1"><g transform="translate(81.336696, 25.036654)"><g><path d="M 5.84375 1.9375 L 3.421875 1.140625 L 6.546875 -8.28125 L 3.453125 -9.3125 L 4.125 -11.328125 L 12.75 -8.46875 L 12.078125 -6.453125 L 8.96875 -7.484375 Z M 5.84375 1.9375 "/></g></g></g><g fill="#004aad" fill-opacity="1"><g transform="translate(89.6218, 27.790126)"><g><path d="M 10.109375 -5.25 C 10.421875 -5.082031 10.660156 -4.925781 10.828125 -4.78125 L 9.546875 -2.78125 C 9.398438 -2.925781 9.195312 -3.066406 8.9375 -3.203125 C 8.226562 -3.578125 7.578125 -3.6875 6.984375 -3.53125 C 6.398438 -3.382812 5.929688 -2.988281 5.578125 -2.34375 L 3.375 1.796875 L 1.15625 0.625 L 5.5 -7.515625 L 7.1875 -6.625 L 6.78125 -5.0625 L 6.890625 -5 C 7.378906 -5.320312 7.914062 -5.507812 8.5 -5.5625 C 9.082031 -5.613281 9.617188 -5.507812 10.109375 -5.25 Z M 10.109375 -5.25 "/></g></g></g><g fill="#004aad" fill-opacity="1"><g transform="translate(95.553152, 30.726744)"><g><path d="M 5.65625 4.421875 L 6.03125 3.125 L 5.96875 3.078125 C 5.320312 3.242188 4.753906 3.269531 4.265625 3.15625 C 3.785156 3.050781 3.265625 2.773438 2.703125 2.328125 C 2.003906 1.785156 1.609375 1.15625 1.515625 0.4375 C 1.421875 -0.269531 1.660156 -0.992188 2.234375 -1.734375 C 2.835938 -2.503906 3.550781 -2.859375 4.375 -2.796875 C 5.207031 -2.742188 6.1875 -2.316406 7.3125 -1.515625 L 8.59375 -0.5625 L 8.84375 -0.890625 C 9.414062 -1.628906 9.328125 -2.289062 8.578125 -2.875 C 7.992188 -3.332031 7.175781 -3.691406 6.125 -3.953125 L 6.5 -5.78125 C 7.6875 -5.570312 8.789062 -5.066406 9.8125 -4.265625 C 10.789062 -3.503906 11.367188 -2.707031 11.546875 -1.875 C 11.734375 -1.050781 11.488281 -0.210938 10.8125 0.640625 L 7.03125 5.484375 Z M 7.6875 0.59375 L 6.90625 0.015625 C 6.320312 -0.410156 5.8125 -0.640625 5.375 -0.671875 C 4.945312 -0.710938 4.582031 -0.535156 4.28125 -0.140625 C 3.84375 0.421875 3.941406 0.953125 4.578125 1.453125 C 5.035156 1.816406 5.503906 1.972656 5.984375 1.921875 C 6.460938 1.867188 6.875 1.625 7.21875 1.1875 Z M 7.6875 0.59375 "/></g></g></g><g fill="#004aad" fill-opacity="1"><g transform="translate(102.71709, 36.215667)"><g><path d="M 2.3125 2.65625 L 6.953125 -6.046875 L 8.671875 -4.0625 L 5.890625 0.71875 C 5.515625 1.300781 5.117188 1.8125 4.703125 2.25 L 4.734375 2.28125 C 5.160156 1.945312 5.722656 1.625 6.421875 1.3125 L 11.53125 -0.78125 L 13.25 1.1875 L 4 4.59375 Z M 2.3125 2.65625 "/></g></g></g><g fill="#004aad" fill-opacity="1"><g transform="translate(108.357263, 42.506164)"><g><path d="M 9.140625 0.640625 C 8.867188 0.171875 8.507812 -0.109375 8.0625 -0.203125 C 7.625 -0.296875 7.128906 -0.207031 6.578125 0.0625 L 8.34375 3.109375 C 8.875 2.804688 9.207031 2.429688 9.34375 1.984375 C 9.476562 1.546875 9.410156 1.097656 9.140625 0.640625 Z M 2.59375 4.84375 C 1.851562 3.5625 1.628906 2.347656 1.921875 1.203125 C 2.222656 0.0664062 3.023438 -0.875 4.328125 -1.625 C 5.660156 -2.394531 6.882812 -2.660156 8 -2.421875 C 9.113281 -2.179688 10.007812 -1.472656 10.6875 -0.296875 C 11.34375 0.828125 11.53125 1.890625 11.25 2.890625 C 10.96875 3.898438 10.265625 4.734375 9.140625 5.390625 L 8.09375 6 L 5.109375 0.84375 C 4.492188 1.238281 4.113281 1.707031 3.96875 2.25 C 3.820312 2.789062 3.925781 3.367188 4.28125 3.984375 C 4.5625 4.460938 4.875 4.882812 5.21875 5.25 C 5.570312 5.625 5.992188 5.984375 6.484375 6.328125 L 4.796875 7.296875 C 4.390625 7.023438 4.007812 6.703125 3.65625 6.328125 C 3.3125 5.953125 2.957031 5.457031 2.59375 4.84375 Z M 2.59375 4.84375 "/></g></g></g><g fill="#004aad" fill-opacity="1"><g transform="translate(112.809374, 50.390649)"><g><path d="M 1.421875 3.5625 L 0.484375 1.21875 L 12.40625 -3.53125 L 13.34375 -1.1875 Z M 1.421875 3.5625 "/></g></g></g><g fill="#004aad" fill-opacity="1"><g transform="translate(114.612082, 54.260145)"><g><path d="M 8.578125 3.25 C 8.453125 2.726562 8.191406 2.359375 7.796875 2.140625 C 7.398438 1.921875 6.894531 1.859375 6.28125 1.953125 L 7.09375 5.390625 C 7.6875 5.242188 8.113281 4.976562 8.375 4.59375 C 8.632812 4.21875 8.703125 3.769531 8.578125 3.25 Z M 1.09375 5.390625 C 0.75 3.941406 0.878906 2.71875 1.484375 1.71875 C 2.097656 0.71875 3.132812 0.046875 4.59375 -0.296875 C 6.09375 -0.648438 7.34375 -0.550781 8.34375 0 C 9.34375 0.550781 10 1.484375 10.3125 2.796875 C 10.613281 4.066406 10.488281 5.140625 9.9375 6.015625 C 9.382812 6.898438 8.472656 7.492188 7.203125 7.796875 L 6.015625 8.078125 L 4.640625 2.28125 C 3.941406 2.476562 3.441406 2.816406 3.140625 3.296875 C 2.847656 3.773438 2.785156 4.363281 2.953125 5.0625 C 3.078125 5.601562 3.25 6.097656 3.46875 6.546875 C 3.695312 7.003906 4.003906 7.460938 4.390625 7.921875 L 2.484375 8.375 C 2.171875 8 1.898438 7.582031 1.671875 7.125 C 1.453125 6.664062 1.257812 6.085938 1.09375 5.390625 Z M 1.09375 5.390625 "/></g></g></g><g fill="#004aad" fill-opacity="1"><g transform="translate(116.661957, 62.936649)"><g><path d="M 9.765625 5.859375 C 9.796875 6.203125 9.789062 6.488281 9.75 6.71875 L 7.375 6.6875 C 7.414062 6.46875 7.425781 6.210938 7.40625 5.921875 C 7.351562 5.117188 7.109375 4.507812 6.671875 4.09375 C 6.234375 3.675781 5.644531 3.488281 4.90625 3.53125 L 0.234375 3.828125 L 0.078125 1.3125 L 9.28125 0.75 L 9.40625 2.65625 L 7.859375 3.125 L 7.875 3.25 C 8.40625 3.488281 8.84375 3.84375 9.1875 4.3125 C 9.539062 4.78125 9.734375 5.296875 9.765625 5.859375 Z M 9.765625 5.859375 "/></g></g></g><g fill="#004aad" fill-opacity="1"><g transform="translate(117.17698, 69.629167)"><g><path d="M 1.984375 7.96875 C 1.046875 7.882812 0.363281 7.488281 -0.0625 6.78125 C -0.5 6.082031 -0.65625 5.082031 -0.53125 3.78125 C -0.46875 3.113281 -0.363281 2.550781 -0.21875 2.09375 C -0.0820312 1.632812 0.0859375 1.207031 0.296875 0.8125 L 2.359375 1.015625 C 2.097656 1.453125 1.867188 1.953125 1.671875 2.515625 C 1.472656 3.085938 1.351562 3.59375 1.3125 4.03125 C 1.21875 4.945312 1.429688 5.429688 1.953125 5.484375 C 2.148438 5.503906 2.316406 5.457031 2.453125 5.34375 C 2.585938 5.238281 2.742188 5.046875 2.921875 4.765625 C 3.109375 4.484375 3.328125 4.097656 3.578125 3.609375 C 3.953125 2.929688 4.28125 2.441406 4.5625 2.140625 C 4.84375 1.847656 5.148438 1.640625 5.484375 1.515625 C 5.816406 1.398438 6.222656 1.363281 6.703125 1.40625 C 7.523438 1.476562 8.128906 1.847656 8.515625 2.515625 C 8.898438 3.179688 9.039062 4.097656 8.9375 5.265625 C 8.832031 6.367188 8.488281 7.421875 7.90625 8.421875 L 6.171875 7.5 C 6.410156 7.0625 6.609375 6.648438 6.765625 6.265625 C 6.929688 5.878906 7.035156 5.472656 7.078125 5.046875 C 7.140625 4.304688 6.972656 3.921875 6.578125 3.890625 C 6.347656 3.859375 6.140625 3.957031 5.953125 4.1875 C 5.773438 4.414062 5.488281 4.921875 5.09375 5.703125 C 4.738281 6.378906 4.414062 6.867188 4.125 7.171875 C 3.84375 7.484375 3.53125 7.707031 3.1875 7.84375 C 2.84375 7.976562 2.441406 8.019531 1.984375 7.96875 Z M 1.984375 7.96875 "/></g></g></g></svg>