<svg xmlns="http://www.w3.org/2000/svg" xmlns:xlink="http://www.w3.org/1999/xlink" width="246" zoomAndPan="magnify" viewBox="0 0 184.5 66" height="88" preserveAspectRatio="xMidYMid meet" version="1.0"><defs><g/><clipPath id="b9a2709962"><path d="M 17 0.0898438 L 166.445312 0.0898438 L 166.445312 65.910156 L 17 65.910156 Z M 17 0.0898438 " clip-rule="nonzero"/></clipPath></defs><g clip-path="url(#b9a2709962)"><path fill="#99e17a" d="M 155.859375 13.5 C 155.390625 13.976562 155.109375 14.578125 154.75 15.113281 C 153.519531 16.96875 152.347656 18.824219 150.375 20.230469 C 151.617188 20.117188 152.683594 20.003906 153.753906 19.933594 C 155.59375 19.808594 157.390625 20.085938 159.125 20.679688 C 159.890625 20.957031 160.523438 20.804688 161.136719 20.34375 C 161.367188 20.160156 161.628906 19.988281 161.878906 19.835938 C 163.222656 18.964844 164.808594 19.105469 166.023438 20.144531 C 166.320312 20.398438 166.3125 20.582031 165.984375 20.789062 C 164.65625 21.578125 163.269531 22.070312 161.710938 21.492188 C 161.457031 21.410156 161.191406 21.324219 160.769531 21.449219 C 161.296875 21.605469 161.710938 21.746094 162.117188 21.859375 C 163.585938 22.335938 164.675781 23.25 165.300781 24.640625 C 165.574219 25.257812 165.46875 25.386719 164.824219 25.429688 C 162.914062 25.539062 161.5 24.835938 160.742188 23.039062 C 160.328125 22.097656 159.652344 21.605469 158.671875 21.351562 C 156.308594 20.789062 153.941406 20.875 151.574219 21.128906 C 151.5 21.128906 151.433594 21.171875 151.320312 21.210938 C 152.226562 22.125 153.113281 22.871094 154.523438 22.8125 C 156.085938 22.757812 157.175781 23.628906 157.882812 25.007812 C 158.101562 25.429688 157.988281 25.636719 157.527344 25.707031 C 156 25.949219 154.671875 25.625 153.648438 24.386719 C 152.839844 23.433594 152.128906 22.394531 151.027344 21.734375 C 150.464844 21.382812 149.945312 21.242188 149.269531 21.351562 C 144.941406 22.042969 140.679688 22.953125 136.40625 24.515625 C 138.410156 25.035156 140.273438 25.597656 142.035156 26.496094 C 143.769531 27.367188 145.0625 28.855469 146.648438 29.925781 C 146.699219 29.867188 146.75 29.8125 146.796875 29.753906 C 146.523438 29.53125 146.261719 29.277344 145.980469 29.054688 C 145.699219 28.855469 145.707031 28.660156 145.917969 28.40625 C 146.410156 27.789062 147.042969 27.453125 147.851562 27.5625 C 148.34375 27.632812 148.835938 27.703125 149.339844 27.703125 C 149.75 27.675781 149.855469 27.871094 149.789062 28.265625 C 149.671875 29.109375 149.253906 29.585938 148.441406 29.8125 C 148.28125 29.867188 148.097656 29.910156 147.808594 29.980469 C 148.917969 30.570312 149.855469 31.246094 150.527344 32.199219 C 151.070312 32.972656 151.492188 33.800781 151.699219 34.730469 C 151.878906 35.515625 151.652344 35.769531 150.835938 35.644531 C 149.59375 35.445312 148.503906 34.925781 147.554688 34.140625 C 146.742188 33.464844 146.089844 32.675781 145.695312 31.695312 C 145.539062 31.273438 145.40625 30.824219 145.632812 30.472656 C 145.890625 30.078125 145.695312 29.894531 145.457031 29.671875 C 144.058594 28.351562 142.433594 27.394531 140.628906 26.722656 C 138.839844 26.046875 136.949219 25.679688 135.152344 25.007812 C 134.3125 24.699219 133.410156 24.78125 132.53125 24.910156 C 129.839844 25.261719 127.121094 25.46875 124.417969 25.511719 C 123.027344 25.511719 121.621094 25.457031 120.203125 25.359375 C 122.246094 27.339844 124.042969 29.585938 126.769531 30.933594 C 126.355469 31.019531 126.101562 30.878906 125.851562 30.765625 C 124.5 30.234375 123.386719 29.320312 122.296875 28.378906 C 119.738281 26.144531 117.207031 23.882812 114.316406 22.085938 C 111.976562 20.652344 109.390625 19.933594 106.664062 19.695312 C 104.332031 19.484375 102.007812 19.613281 99.613281 19.835938 C 100.003906 20.367188 100.476562 20.523438 101.042969 20.539062 C 102.890625 20.566406 104.148438 21.675781 104.445312 23.515625 C 104.523438 24.050781 104.402344 24.164062 103.875 24.050781 C 102.683594 23.824219 101.753906 23.238281 101.074219 22.195312 C 100.433594 21.210938 99.710938 20.3125 98.507812 19.976562 C 98.339844 19.917969 98.164062 19.835938 97.980469 19.835938 C 95.910156 19.921875 93.957031 19.273438 91.976562 18.851562 C 90.878906 18.625 89.769531 18.484375 88.492188 18.527344 C 89.234375 19.355469 89.601562 20.3125 90.378906 20.988281 C 90.667969 21.242188 91.027344 21.269531 91.386719 21.351562 C 92.699219 21.648438 93.582031 22.421875 94 23.714844 C 94.167969 24.21875 94.0625 24.359375 93.515625 24.359375 C 92.753906 24.359375 92.074219 24.078125 91.441406 23.65625 C 91.289062 23.574219 91.175781 23.402344 90.921875 23.390625 C 90.949219 23.683594 91.152344 23.839844 91.316406 24.023438 C 92.621094 25.457031 94.378906 26.058594 96.183594 26.578125 C 96.648438 26.722656 97.117188 26.777344 97.589844 26.863281 C 98.207031 26.972656 98.375 27.367188 97.917969 27.816406 C 96.289062 29.476562 93.71875 29.390625 92.304688 27.816406 C 91.492188 26.917969 90.984375 25.851562 90.683594 24.671875 C 90.421875 23.660156 90.179688 22.648438 89.757812 21.664062 C 89.292969 20.625 88.617188 19.753906 87.886719 18.894531 C 87.710938 18.683594 87.507812 18.515625 87.191406 18.515625 C 81.03125 18.261719 71.148438 24.25 66.917969 29.027344 C 68.4375 29.027344 57.113281 33.042969 47.667969 38.734375 C 44.453125 40.675781 41.191406 42.738281 38.648438 45.519531 C 36.5 47.882812 28.539062 53.9375 26.980469 56.675781 C 25.5625 59.175781 22.855469 63.8125 22.191406 64.9375 C 21.78125 65.582031 17.988281 64.921875 17.777344 64.332031 C 16.984375 61.988281 23.890625 56.03125 24.921875 55.035156 C 30.0625 50.167969 35.421875 45.40625 39.53125 39.617188 C 39.820312 39.195312 40.101562 38.773438 40.386719 38.351562 C 39.25 38.644531 33.707031 42.171875 33.433594 39.730469 C 33.136719 37.074219 39.410156 37.804688 40.773438 37.507812 C 37.4375 34.585938 33.59375 33.097656 29.84375 30.890625 C 28.78125 30.257812 26.34375 28.570312 27.039062 27.027344 C 27.769531 25.355469 30.117188 26.871094 30.90625 27.660156 C 32.308594 29.109375 33.1875 30.945312 34.621094 32.367188 C 32.984375 30.175781 35.421875 27.308594 36.019531 30.121094 C 36.257812 31.203125 35.660156 32.480469 36.347656 33.4375 C 37.050781 34.390625 38.945312 34.898438 39.925781 35.628906 C 40.640625 36.160156 41.53125 37.398438 42.550781 37.203125 C 43.582031 37.003906 44.214844 35.429688 44.449219 34.574219 C 44.847656 33.070312 44.703125 31.441406 44.871094 29.894531 C 45.011719 28.628906 45.507812 27.097656 44.890625 25.875 C 43.859375 23.882812 40.789062 23.683594 40.867188 20.902344 C 40.886719 19.976562 41.179688 19.398438 42.191406 19.667969 C 43.34375 19.988281 43.832031 21.621094 44.117188 22.589844 C 44.238281 22.980469 44.511719 25.230469 45.222656 25.0625 C 46.0625 24.894531 45.671875 21.902344 45.65625 21.378906 C 45.542969 18.851562 46.378906 15.199219 44.140625 13.371094 C 43.105469 12.558594 41.855469 12.320312 41.179688 11.066406 C 40.746094 10.28125 40.253906 8.117188 41.644531 8.003906 C 42.9375 7.894531 43.597656 10.054688 43.886719 10.941406 C 44.335938 12.402344 44.890625 13.425781 45.894531 14.609375 C 46.617188 12.164062 47.457031 9.957031 48.367188 7.570312 C 49.230469 5.335938 48.207031 2.035156 49.273438 0.136719 C 51.769531 1.667969 50.941406 3.394531 50.054688 5.660156 C 51.039062 5.152344 54.824219 3.4375 53.882812 6.09375 C 53.066406 8.371094 50.222656 7.191406 48.859375 8.539062 C 47.335938 10 47.054688 13.582031 46.78125 15.5625 C 46.4375 18.148438 46.570312 20.777344 46.660156 23.359375 C 47.503906 22.195312 48.011719 21.070312 48.46875 19.695312 C 48.761719 18.820312 49.261719 16.871094 50.492188 16.828125 C 51.742188 16.800781 51.785156 18.371094 51.496094 19.242188 C 51.101562 20.382812 50.175781 20.789062 49.3125 21.492188 C 46.621094 23.65625 46.199219 26.746094 45.945312 29.921875 C 45.867188 30.820312 45.144531 33.828125 46.015625 34.472656 C 46.769531 35.035156 49.261719 33.742188 50.054688 33.53125 C 51.925781 33.011719 53.167969 32.675781 54.15625 30.929688 C 55.105469 29.273438 55.773438 27.730469 57.214844 26.40625 C 56.589844 28.429688 55.351562 30.273438 54.664062 32.28125 C 56.574219 31.578125 59.96875 31.355469 61.160156 29.554688 C 62.476562 27.589844 60.179688 26.324219 59.308594 24.863281 C 58.675781 23.824219 58.464844 19.835938 60.5 21.476562 C 61.859375 22.574219 61.652344 26.394531 62.132812 27.984375 C 64.078125 23.359375 64.433594 18.316406 65.839844 13.539062 C 66.226562 12.21875 67.113281 8.648438 68.960938 8.59375 C 71.285156 8.523438 70.300781 12.375 69.578125 13.425781 C 68.230469 15.367188 66.269531 16.195312 65.25 18.5 C 66.101562 17.726562 67.898438 17.039062 68.769531 18.203125 C 69.992188 19.835938 67.289062 19.890625 66.347656 20.015625 C 64.410156 20.242188 64.542969 21.324219 64.386719 23.066406 C 64.238281 24.726562 63.867188 26.269531 63.46875 27.871094 C 64.871094 27.28125 66.109375 25.652344 67.246094 24.640625 C 68.574219 23.488281 69.9375 22.363281 71.34375 21.296875 C 72.566406 20.398438 77.996094 17.882812 79.367188 17.390625 C 80.441406 17.011719 84.789062 17.503906 86.023438 17.503906 C 88.617188 17.472656 91.160156 17.8125 93.683594 18.402344 C 95.019531 18.726562 96.253906 18.65625 97.328125 17.671875 C 97.632812 17.390625 97.90625 17.125 98.089844 16.757812 C 98.3125 16.265625 98.558594 15.789062 98.804688 15.3125 C 99.507812 13.960938 101.265625 13.707031 102.351562 13.933594 C 102.746094 14.003906 102.695312 14.242188 102.5625 14.507812 C 102.007812 15.621094 101.25 16.546875 99.9375 16.730469 C 98.855469 16.882812 98.066406 17.445312 97.351562 18.289062 C 97.859375 18.441406 98.355469 18.289062 98.828125 18.234375 C 101.867188 17.910156 104.894531 17.472656 107.75 16.292969 C 108.980469 15.789062 109.941406 14.929688 110.847656 14.003906 C 111.140625 13.707031 111.121094 13.34375 111.121094 13.007812 C 111.148438 10.925781 112.777344 8.734375 114.753906 8.117188 C 115.386719 7.921875 115.636719 8.046875 115.660156 8.707031 C 115.714844 10.785156 115.039062 12.570312 113.25 13.820312 C 112.800781 14.128906 112.28125 14.285156 111.722656 14.1875 C 111.367188 14.117188 111.09375 14.203125 110.894531 14.609375 C 111.835938 14.328125 112.660156 14.511719 113.410156 15.03125 C 113.59375 15.167969 113.769531 15.339844 113.9375 15.507812 C 114.304688 15.875 114.207031 16.183594 113.820312 16.464844 C 113.40625 16.742188 112.90625 16.828125 112.40625 16.828125 C 111.445312 16.84375 110.515625 16.714844 109.8125 15.972656 C 109.679688 15.832031 109.578125 15.875 109.457031 15.957031 C 107.757812 17.277344 105.773438 17.910156 103.710938 18.429688 C 105.085938 18.445312 106.464844 18.402344 107.785156 18.726562 C 109.503906 19.132812 111.199219 19.046875 112.90625 18.835938 C 113.699219 18.738281 114.445312 18.417969 115.210938 18.191406 C 116.390625 17.839844 117.527344 17.8125 118.570312 18.625 C 118.992188 18.9375 119.320312 19.328125 119.574219 19.777344 C 119.785156 20.160156 119.664062 20.34375 119.265625 20.398438 C 117.972656 20.609375 116.699219 20.566406 115.554688 19.863281 C 114.375 19.132812 113.195312 19.105469 111.84375 19.554688 C 112.292969 19.765625 112.695312 19.933594 113.082031 20.144531 C 114.207031 20.761719 115.273438 21.464844 116.242188 22.292969 C 117.59375 23.433594 119.171875 23.882812 120.867188 24.050781 C 125.851562 24.554688 130.800781 24.359375 135.746094 23.601562 C 136.179688 23.53125 136.617188 23.433594 137.015625 23.277344 C 139.996094 22.109375 143.136719 21.578125 146.253906 20.988281 C 146.691406 20.902344 147.105469 20.789062 147.539062 20.679688 C 149.675781 20.160156 150.175781 18.964844 149.753906 16.742188 C 149.675781 16.335938 149.515625 15.941406 149.332031 15.5625 C 148.851562 14.496094 148.945312 13.484375 149.464844 12.472656 C 149.570312 12.25 149.660156 12.023438 149.78125 11.828125 C 149.957031 11.546875 150.035156 11.082031 150.390625 11.082031 C 150.777344 11.082031 150.976562 11.488281 151.152344 11.796875 C 151.753906 12.851562 151.796875 13.992188 151.136719 14.976562 C 150.1875 16.378906 150.40625 17.25 150.566406 18.851562 C 151.320312 18.375 151.886719 17.800781 152.394531 17.136719 C 153.769531 15.367188 154.902344 13.402344 156.242188 11.601562 C 156.488281 11.265625 156.75 10.929688 157 10.605469 C 157.527344 9.945312 157.957031 9.285156 158.203125 8.457031 C 158.695312 6.769531 159.726562 5.433594 161.359375 4.664062 C 161.769531 4.464844 162.25 4.214844 162.664062 4.496094 C 163.066406 4.789062 162.917969 5.308594 162.859375 5.730469 C 162.648438 7.402344 161.976562 8.847656 160.613281 9.929688 C 159.980469 10.421875 159.285156 10.675781 158.492188 10.367188 C 158.222656 10.269531 158.027344 10.308594 157.859375 10.535156 C 157.253906 11.378906 156.585938 12.191406 156.117188 13.105469 C 156.027344 13.230469 155.949219 13.371094 155.859375 13.5 Z M 155.859375 13.5 " fill-opacity="1" fill-rule="evenodd"/></g><path fill="#99e17a" d="M 30.714844 31.71875 C 31.542969 31.746094 32.261719 32.085938 32.898438 32.605469 C 33.152344 32.828125 33.179688 33.039062 32.941406 33.308594 C 32.070312 34.332031 30.980469 34.5 29.894531 33.730469 C 29.613281 33.53125 29.339844 33.347656 28.980469 33.292969 C 28.523438 33.265625 28.585938 33.027344 28.777344 32.730469 C 29.175781 32.113281 29.90625 31.734375 30.714844 31.71875 Z M 30.714844 31.71875 " fill-opacity="1" fill-rule="evenodd"/><path fill="#99e17a" d="M 62.996094 14.1875 C 62.953125 13.707031 63.179688 13.148438 63.101562 12.597656 C 63.058594 12.246094 63.296875 12.21875 63.570312 12.246094 C 64.433594 12.34375 65.234375 13.160156 65.3125 14.046875 C 65.367188 14.777344 65.179688 15.449219 64.953125 16.140625 C 64.847656 16.460938 64.652344 16.460938 64.394531 16.378906 C 63.4375 16.042969 62.980469 15.367188 62.996094 14.1875 Z M 62.996094 14.1875 " fill-opacity="1" fill-rule="evenodd"/><path fill="#99e17a" d="M 94.910156 14.425781 C 94.867188 13.933594 95.085938 13.386719 95.007812 12.824219 C 94.964844 12.472656 95.203125 12.445312 95.480469 12.472656 C 96.351562 12.570312 97.152344 13.398438 97.214844 14.269531 C 97.277344 15 97.089844 15.691406 96.871094 16.378906 C 96.765625 16.6875 96.566406 16.6875 96.300781 16.601562 C 95.351562 16.265625 94.890625 15.589844 94.910156 14.425781 Z M 94.910156 14.425781 " fill-opacity="1" fill-rule="evenodd"/><path fill="#99e17a" d="M 88.996094 12.949219 C 89.464844 12.402344 90.238281 12.078125 90.765625 11.417969 C 91.097656 11.011719 91.363281 11.234375 91.609375 11.574219 C 92.410156 12.554688 92.347656 14.242188 91.488281 15.167969 C 90.785156 16.011719 89.871094 16.492188 88.9375 16.953125 C 88.496094 17.164062 88.300781 16.96875 88.125 16.601562 C 87.484375 15.28125 87.746094 14.101562 88.996094 12.949219 Z M 88.996094 12.949219 " fill-opacity="1" fill-rule="evenodd"/><path fill="#99e17a" d="M 155.015625 9.128906 C 155.03125 8.59375 155.199219 8.199219 155.410156 7.808594 C 155.570312 7.5 155.726562 7.21875 155.753906 6.867188 C 155.78125 6.429688 156.023438 6.402344 156.371094 6.597656 C 157.117188 7.019531 157.523438 7.835938 157.425781 8.652344 C 157.308594 9.4375 156.890625 10.113281 156.554688 10.816406 C 156.484375 10.941406 156.398438 11.039062 156.230469 10.925781 C 155.59375 10.449219 155.066406 9.886719 155.015625 9.128906 Z M 155.015625 9.128906 " fill-opacity="1" fill-rule="evenodd"/><path fill="#99e17a" d="M 155.859375 13.5 C 155.953125 13.371094 156.027344 13.230469 156.113281 13.105469 C 156.757812 12.472656 157.425781 11.867188 158.445312 12.023438 C 159.089844 12.105469 159.613281 12.386719 160.019531 12.878906 C 160.300781 13.230469 160.234375 13.539062 159.863281 13.777344 C 159.554688 13.988281 159.21875 14.101562 158.859375 14.128906 C 157.804688 14.214844 156.792969 14.003906 155.859375 13.5 Z M 155.859375 13.5 " fill-opacity="1" fill-rule="evenodd"/><path fill="#99e17a" d="M 108.582031 12.90625 C 108.53125 12.105469 109.03125 11.445312 109.121094 10.703125 C 109.148438 10.476562 109.386719 10.53125 109.578125 10.574219 C 110.40625 10.8125 111.011719 11.78125 110.8125 12.640625 C 110.675781 13.257812 110.355469 13.804688 110.011719 14.355469 C 109.886719 14.550781 109.746094 14.636719 109.523438 14.480469 C 108.953125 14.101562 108.480469 13.652344 108.582031 12.90625 Z M 108.582031 12.90625 " fill-opacity="1" fill-rule="evenodd"/><path fill="#dfecd9" d="M 33.917969 17.824219 L 149.359375 17.824219 C 151.34375 17.824219 153.25 18.617188 154.65625 20.019531 C 156.058594 21.425781 156.851562 23.332031 156.851562 25.316406 L 156.851562 40.300781 C 156.851562 42.289062 156.058594 44.195312 154.65625 45.601562 C 153.25 47.003906 151.34375 47.792969 149.359375 47.792969 L 33.917969 47.792969 C 29.78125 47.792969 26.425781 44.441406 26.425781 40.300781 L 26.425781 25.316406 C 26.425781 21.179688 29.78125 17.824219 33.917969 17.824219 Z M 33.917969 17.824219 " fill-opacity="1" fill-rule="nonzero"/><g fill="#2e6417" fill-opacity="1"><g transform="translate(33.209038, 39.168179)"><g><path d="M 1.515625 -12.109375 L 5.296875 -12.109375 C 7.003906 -12.109375 8.242188 -11.863281 9.015625 -11.375 C 9.796875 -10.882812 10.1875 -10.109375 10.1875 -9.046875 C 10.1875 -8.316406 10.015625 -7.71875 9.671875 -7.25 C 9.335938 -6.789062 8.890625 -6.515625 8.328125 -6.421875 L 8.328125 -6.34375 C 9.097656 -6.164062 9.648438 -5.84375 9.984375 -5.375 C 10.328125 -4.90625 10.5 -4.285156 10.5 -3.515625 C 10.5 -2.410156 10.097656 -1.546875 9.296875 -0.921875 C 8.503906 -0.304688 7.421875 0 6.046875 0 L 1.515625 0 Z M 4.09375 -7.3125 L 5.578125 -7.3125 C 6.273438 -7.3125 6.78125 -7.414062 7.09375 -7.625 C 7.40625 -7.84375 7.5625 -8.203125 7.5625 -8.703125 C 7.5625 -9.160156 7.390625 -9.488281 7.046875 -9.6875 C 6.710938 -9.894531 6.175781 -10 5.4375 -10 L 4.09375 -10 Z M 4.09375 -5.265625 L 4.09375 -2.125 L 5.765625 -2.125 C 6.472656 -2.125 6.992188 -2.257812 7.328125 -2.53125 C 7.660156 -2.800781 7.828125 -3.210938 7.828125 -3.765625 C 7.828125 -4.765625 7.109375 -5.265625 5.671875 -5.265625 Z M 4.09375 -5.265625 "/></g></g></g><g fill="#2e6417" fill-opacity="1"><g transform="translate(44.594808, 39.168179)"><g><path d="M 1.21875 -11.640625 C 1.21875 -12.460938 1.675781 -12.875 2.59375 -12.875 C 3.507812 -12.875 3.96875 -12.460938 3.96875 -11.640625 C 3.96875 -11.253906 3.851562 -10.953125 3.625 -10.734375 C 3.394531 -10.515625 3.050781 -10.40625 2.59375 -10.40625 C 1.675781 -10.40625 1.21875 -10.816406 1.21875 -11.640625 Z M 3.84375 0 L 1.328125 0 L 1.328125 -9.25 L 3.84375 -9.25 Z M 3.84375 0 "/></g></g></g><g fill="#2e6417" fill-opacity="1"><g transform="translate(49.766397, 39.168179)"><g><path d="M 4.25 0.171875 C 3.164062 0.171875 2.3125 -0.25 1.6875 -1.09375 C 1.070312 -1.945312 0.765625 -3.117188 0.765625 -4.609375 C 0.765625 -6.128906 1.078125 -7.3125 1.703125 -8.15625 C 2.335938 -9 3.210938 -9.421875 4.328125 -9.421875 C 5.484375 -9.421875 6.367188 -8.972656 6.984375 -8.078125 L 7.0625 -8.078125 C 6.9375 -8.765625 6.875 -9.378906 6.875 -9.921875 L 6.875 -12.875 L 9.40625 -12.875 L 9.40625 0 L 7.46875 0 L 6.984375 -1.203125 L 6.875 -1.203125 C 6.300781 -0.285156 5.425781 0.171875 4.25 0.171875 Z M 5.140625 -1.84375 C 5.785156 -1.84375 6.257812 -2.03125 6.5625 -2.40625 C 6.863281 -2.78125 7.023438 -3.421875 7.046875 -4.328125 L 7.046875 -4.59375 C 7.046875 -5.582031 6.894531 -6.289062 6.59375 -6.71875 C 6.289062 -7.15625 5.789062 -7.375 5.09375 -7.375 C 4.53125 -7.375 4.09375 -7.132812 3.78125 -6.65625 C 3.46875 -6.175781 3.3125 -5.484375 3.3125 -4.578125 C 3.3125 -3.671875 3.46875 -2.988281 3.78125 -2.53125 C 4.101562 -2.070312 4.554688 -1.84375 5.140625 -1.84375 Z M 5.140625 -1.84375 "/></g></g></g><g fill="#2e6417" fill-opacity="1"><g transform="translate(60.490203, 39.168179)"><g/></g></g><g fill="#2e6417" fill-opacity="1"><g transform="translate(64.892259, 39.168179)"><g><path d="M 4.046875 0 L 1.515625 0 L 1.515625 -12.109375 L 8.453125 -12.109375 L 8.453125 -10 L 4.046875 -10 L 4.046875 -6.875 L 8.15625 -6.875 L 8.15625 -4.78125 L 4.046875 -4.78125 Z M 4.046875 0 "/></g></g></g><g fill="#2e6417" fill-opacity="1"><g transform="translate(74.192844, 39.168179)"><g><path d="M 3.34375 -4.640625 C 3.34375 -3.722656 3.488281 -3.03125 3.78125 -2.5625 C 4.082031 -2.09375 4.570312 -1.859375 5.25 -1.859375 C 5.925781 -1.859375 6.410156 -2.09375 6.703125 -2.5625 C 7.003906 -3.03125 7.15625 -3.722656 7.15625 -4.640625 C 7.15625 -5.554688 7.003906 -6.242188 6.703125 -6.703125 C 6.410156 -7.160156 5.921875 -7.390625 5.234375 -7.390625 C 4.566406 -7.390625 4.082031 -7.160156 3.78125 -6.703125 C 3.488281 -6.253906 3.34375 -5.566406 3.34375 -4.640625 Z M 9.734375 -4.640625 C 9.734375 -3.140625 9.332031 -1.960938 8.53125 -1.109375 C 7.738281 -0.253906 6.632812 0.171875 5.21875 0.171875 C 4.332031 0.171875 3.550781 -0.0195312 2.875 -0.40625 C 2.195312 -0.800781 1.675781 -1.363281 1.3125 -2.09375 C 0.945312 -2.820312 0.765625 -3.671875 0.765625 -4.640625 C 0.765625 -6.148438 1.15625 -7.320312 1.9375 -8.15625 C 2.726562 -9 3.835938 -9.421875 5.265625 -9.421875 C 6.160156 -9.421875 6.945312 -9.226562 7.625 -8.84375 C 8.300781 -8.457031 8.820312 -7.898438 9.1875 -7.171875 C 9.550781 -6.453125 9.734375 -5.609375 9.734375 -4.640625 Z M 9.734375 -4.640625 "/></g></g></g><g fill="#2e6417" fill-opacity="1"><g transform="translate(84.684964, 39.168179)"><g><path d="M 6.484375 -9.421875 C 6.828125 -9.421875 7.113281 -9.398438 7.34375 -9.359375 L 7.15625 -6.984375 C 6.945312 -7.035156 6.695312 -7.0625 6.40625 -7.0625 C 5.601562 -7.0625 4.972656 -6.851562 4.515625 -6.4375 C 4.066406 -6.03125 3.84375 -5.453125 3.84375 -4.703125 L 3.84375 0 L 1.328125 0 L 1.328125 -9.25 L 3.234375 -9.25 L 3.609375 -7.703125 L 3.734375 -7.703125 C 4.015625 -8.222656 4.398438 -8.640625 4.890625 -8.953125 C 5.378906 -9.265625 5.910156 -9.421875 6.484375 -9.421875 Z M 6.484375 -9.421875 "/></g></g></g><g fill="#2e6417" fill-opacity="1"><g transform="translate(92.380288, 39.168179)"><g/></g></g><g fill="#2e6417" fill-opacity="1"><g transform="translate(96.782344, 39.168179)"><g><path d="M 4.046875 0 L 1.515625 0 L 1.515625 -12.109375 L 8.453125 -12.109375 L 8.453125 -10 L 4.046875 -10 L 4.046875 -6.875 L 8.15625 -6.875 L 8.15625 -4.78125 L 4.046875 -4.78125 Z M 4.046875 0 "/></g></g></g><g fill="#2e6417" fill-opacity="1"><g transform="translate(106.082929, 39.168179)"><g><path d="M 3.34375 -4.640625 C 3.34375 -3.722656 3.488281 -3.03125 3.78125 -2.5625 C 4.082031 -2.09375 4.570312 -1.859375 5.25 -1.859375 C 5.925781 -1.859375 6.410156 -2.09375 6.703125 -2.5625 C 7.003906 -3.03125 7.15625 -3.722656 7.15625 -4.640625 C 7.15625 -5.554688 7.003906 -6.242188 6.703125 -6.703125 C 6.410156 -7.160156 5.921875 -7.390625 5.234375 -7.390625 C 4.566406 -7.390625 4.082031 -7.160156 3.78125 -6.703125 C 3.488281 -6.253906 3.34375 -5.566406 3.34375 -4.640625 Z M 9.734375 -4.640625 C 9.734375 -3.140625 9.332031 -1.960938 8.53125 -1.109375 C 7.738281 -0.253906 6.632812 0.171875 5.21875 0.171875 C 4.332031 0.171875 3.550781 -0.0195312 2.875 -0.40625 C 2.195312 -0.800781 1.675781 -1.363281 1.3125 -2.09375 C 0.945312 -2.820312 0.765625 -3.671875 0.765625 -4.640625 C 0.765625 -6.148438 1.15625 -7.320312 1.9375 -8.15625 C 2.726562 -9 3.835938 -9.421875 5.265625 -9.421875 C 6.160156 -9.421875 6.945312 -9.226562 7.625 -8.84375 C 8.300781 -8.457031 8.820312 -7.898438 9.1875 -7.171875 C 9.550781 -6.453125 9.734375 -5.609375 9.734375 -4.640625 Z M 9.734375 -4.640625 "/></g></g></g><g fill="#2e6417" fill-opacity="1"><g transform="translate(116.575048, 39.168179)"><g><path d="M 6.484375 -9.421875 C 6.828125 -9.421875 7.113281 -9.398438 7.34375 -9.359375 L 7.15625 -6.984375 C 6.945312 -7.035156 6.695312 -7.0625 6.40625 -7.0625 C 5.601562 -7.0625 4.972656 -6.851562 4.515625 -6.4375 C 4.066406 -6.03125 3.84375 -5.453125 3.84375 -4.703125 L 3.84375 0 L 1.328125 0 L 1.328125 -9.25 L 3.234375 -9.25 L 3.609375 -7.703125 L 3.734375 -7.703125 C 4.015625 -8.222656 4.398438 -8.640625 4.890625 -8.953125 C 5.378906 -9.265625 5.910156 -9.421875 6.484375 -9.421875 Z M 6.484375 -9.421875 "/></g></g></g><g fill="#2e6417" fill-opacity="1"><g transform="translate(124.270372, 39.168179)"><g><path d="M 5.15625 -7.625 C 4.625 -7.625 4.203125 -7.453125 3.890625 -7.109375 C 3.585938 -6.773438 3.414062 -6.296875 3.375 -5.671875 L 6.921875 -5.671875 C 6.910156 -6.296875 6.742188 -6.773438 6.421875 -7.109375 C 6.109375 -7.453125 5.6875 -7.625 5.15625 -7.625 Z M 5.515625 0.171875 C 4.023438 0.171875 2.859375 -0.238281 2.015625 -1.0625 C 1.179688 -1.882812 0.765625 -3.050781 0.765625 -4.5625 C 0.765625 -6.113281 1.148438 -7.3125 1.921875 -8.15625 C 2.703125 -9 3.773438 -9.421875 5.140625 -9.421875 C 6.453125 -9.421875 7.46875 -9.046875 8.1875 -8.296875 C 8.914062 -7.554688 9.28125 -6.53125 9.28125 -5.21875 L 9.28125 -4 L 3.3125 -4 C 3.34375 -3.28125 3.554688 -2.71875 3.953125 -2.3125 C 4.347656 -1.914062 4.90625 -1.71875 5.625 -1.71875 C 6.1875 -1.71875 6.710938 -1.773438 7.203125 -1.890625 C 7.703125 -2.003906 8.222656 -2.1875 8.765625 -2.4375 L 8.765625 -0.484375 C 8.328125 -0.265625 7.851562 -0.101562 7.34375 0 C 6.84375 0.113281 6.234375 0.171875 5.515625 0.171875 Z M 5.515625 0.171875 "/></g></g></g><g fill="#2e6417" fill-opacity="1"><g transform="translate(134.282568, 39.168179)"><g><path d="M 7.78125 -2.75 C 7.78125 -1.800781 7.445312 -1.078125 6.78125 -0.578125 C 6.125 -0.078125 5.140625 0.171875 3.828125 0.171875 C 3.160156 0.171875 2.585938 0.125 2.109375 0.03125 C 1.640625 -0.0625 1.195312 -0.195312 0.78125 -0.375 L 0.78125 -2.453125 C 1.25 -2.234375 1.773438 -2.050781 2.359375 -1.90625 C 2.953125 -1.757812 3.472656 -1.6875 3.921875 -1.6875 C 4.835938 -1.6875 5.296875 -1.945312 5.296875 -2.46875 C 5.296875 -2.664062 5.234375 -2.828125 5.109375 -2.953125 C 4.984375 -3.078125 4.769531 -3.21875 4.46875 -3.375 C 4.175781 -3.539062 3.78125 -3.726562 3.28125 -3.9375 C 2.570312 -4.226562 2.050781 -4.5 1.71875 -4.75 C 1.382812 -5.007812 1.140625 -5.300781 0.984375 -5.625 C 0.835938 -5.957031 0.765625 -6.363281 0.765625 -6.84375 C 0.765625 -7.664062 1.082031 -8.300781 1.71875 -8.75 C 2.351562 -9.195312 3.253906 -9.421875 4.421875 -9.421875 C 5.535156 -9.421875 6.625 -9.179688 7.6875 -8.703125 L 6.921875 -6.875 C 6.453125 -7.070312 6.015625 -7.234375 5.609375 -7.359375 C 5.210938 -7.492188 4.804688 -7.5625 4.390625 -7.5625 C 3.640625 -7.5625 3.265625 -7.359375 3.265625 -6.953125 C 3.265625 -6.722656 3.382812 -6.523438 3.625 -6.359375 C 3.863281 -6.203125 4.390625 -5.957031 5.203125 -5.625 C 5.929688 -5.332031 6.460938 -5.054688 6.796875 -4.796875 C 7.128906 -4.546875 7.375 -4.253906 7.53125 -3.921875 C 7.695312 -3.597656 7.78125 -3.207031 7.78125 -2.75 Z M 7.78125 -2.75 "/></g></g></g><g fill="#2e6417" fill-opacity="1"><g transform="translate(142.706052, 39.168179)"><g><path d="M 5.21875 -1.84375 C 5.664062 -1.84375 6.195312 -1.941406 6.8125 -2.140625 L 6.8125 -0.25 C 6.1875 0.03125 5.414062 0.171875 4.5 0.171875 C 3.488281 0.171875 2.75 -0.0820312 2.28125 -0.59375 C 1.820312 -1.101562 1.59375 -1.867188 1.59375 -2.890625 L 1.59375 -7.359375 L 0.390625 -7.359375 L 0.390625 -8.421875 L 1.78125 -9.265625 L 2.515625 -11.21875 L 4.125 -11.21875 L 4.125 -9.25 L 6.71875 -9.25 L 6.71875 -7.359375 L 4.125 -7.359375 L 4.125 -2.890625 C 4.125 -2.535156 4.222656 -2.269531 4.421875 -2.09375 C 4.628906 -1.925781 4.894531 -1.84375 5.21875 -1.84375 Z M 5.21875 -1.84375 "/></g></g></g></svg>