<svg xmlns="http://www.w3.org/2000/svg" xmlns:xlink="http://www.w3.org/1999/xlink" width="207" zoomAndPan="magnify" viewBox="0 0 155.25 155.999997" height="208" preserveAspectRatio="xMidYMid meet" version="1.0"><defs><g/><clipPath id="6fbe2f7d6b"><path d="M 2.515625 0.375 L 151.792969 0.375 L 151.792969 108.601562 L 2.515625 108.601562 Z M 2.515625 0.375 " clip-rule="nonzero"/></clipPath></defs><g clip-path="url(#6fbe2f7d6b)"><path fill="#cea8f0" d="M 69.652344 21.027344 C 70.019531 20.28125 70.394531 19.675781 70.851562 18.78125 C 72.621094 15.308594 74.15625 12.601562 75.460938 10.664062 C 75.867188 10.0625 76.460938 9.308594 77.25 8.394531 C 77.765625 7.796875 78.464844 7.132812 79.339844 6.40625 C 82.464844 3.8125 85.992188 2.023438 89.925781 1.042969 C 92.535156 0.394531 95.03125 0.4375 97.414062 1.171875 C 98.824219 1.605469 100.445312 2.332031 102.277344 3.355469 C 104.191406 4.421875 106.257812 5.671875 108.46875 7.105469 C 110.992188 8.742188 113.691406 10.832031 116.5625 13.375 C 118.167969 14.796875 119.550781 16.257812 120.710938 17.75 C 123.246094 21.019531 124.777344 25.046875 124.523438 29.183594 C 124.441406 30.527344 124.164062 31.851562 123.691406 33.152344 C 122.375 36.792969 119.964844 39.558594 116.460938 41.441406 C 115.605469 41.902344 114.5 42.253906 113.144531 42.496094 C 111.570312 42.78125 109.957031 42.703125 108.304688 42.261719 C 104.960938 41.367188 101.875 38.609375 101.613281 34.960938 C 101.4375 32.523438 102.308594 30.449219 104.21875 28.738281 C 105.089844 27.957031 107.136719 26.84375 108.078125 28.175781 C 108.113281 28.226562 108.136719 28.285156 108.144531 28.34375 C 108.226562 28.871094 108.035156 29.421875 107.578125 29.996094 C 107.339844 30.300781 107.042969 30.929688 106.699219 31.878906 C 106.667969 31.964844 106.652344 32.054688 106.652344 32.140625 C 106.640625 33.734375 107.3125 34.890625 108.664062 35.617188 C 109.265625 35.941406 110.011719 36.105469 110.902344 36.105469 C 113.207031 36.113281 115.03125 34.402344 115.78125 32.289062 C 116.851562 29.273438 116.484375 26.542969 114.683594 24.089844 C 113.441406 22.398438 111.753906 21.109375 109.617188 20.210938 C 107.226562 19.207031 104.851562 18.429688 102.488281 17.878906 C 101.308594 17.601562 100.316406 17.449219 99.511719 17.421875 C 98.667969 17.394531 98.335938 17.957031 97.992188 18.726562 C 96.808594 21.359375 95.714844 23.964844 94.707031 26.550781 C 94.390625 27.359375 94.054688 28.164062 93.703125 28.964844 C 93.605469 29.191406 93.578125 29.445312 93.628906 29.6875 C 94.097656 31.964844 94.570312 34.066406 95.046875 35.988281 C 96.265625 40.902344 97.578125 45.613281 98.976562 50.113281 C 100.527344 55.085938 102.152344 59.984375 103.859375 64.8125 C 105.316406 68.929688 106.601562 72.328125 107.714844 75.015625 C 108.664062 77.300781 109.4375 79.214844 110.035156 80.761719 C 110.109375 80.949219 110.273438 81.085938 110.472656 81.121094 C 111.035156 81.21875 111.5625 81.335938 112.046875 81.46875 C 116.613281 82.683594 121.277344 83.703125 126.03125 84.527344 C 129.953125 85.203125 133.054688 85.683594 135.339844 85.964844 C 140.960938 86.660156 144.894531 87.164062 147.140625 87.472656 C 147.257812 87.488281 148.15625 87.648438 149.824219 87.949219 C 150.015625 87.984375 150.425781 88.136719 151.054688 88.402344 C 151.589844 88.628906 151.785156 89.058594 151.644531 89.695312 C 151.632812 89.75 151.609375 89.800781 151.582031 89.851562 C 151.257812 90.355469 151.042969 90.664062 150.941406 90.78125 C 150.363281 91.445312 149.59375 92.128906 148.636719 92.839844 C 143.195312 96.871094 136.625 99.777344 130.125 101.796875 C 122.9375 104.027344 115.53125 105.652344 107.90625 106.683594 C 102.0625 107.472656 96.894531 107.976562 92.398438 108.191406 C 92.097656 108.207031 90.414062 108.28125 87.347656 108.414062 C 83.839844 108.5625 79.464844 108.582031 74.222656 108.46875 C 72.699219 108.433594 71.15625 108.300781 69.546875 108.265625 C 69.226562 108.257812 68.601562 108.222656 67.671875 108.15625 C 65.390625 107.992188 63.683594 107.871094 62.554688 107.792969 C 59.632812 107.597656 55.753906 107.160156 50.921875 106.488281 C 46.28125 105.839844 41.472656 104.964844 36.5 103.863281 C 27.519531 101.871094 18.792969 99.25 10.835938 95.105469 C 9.003906 94.152344 7.136719 93 5.242188 91.652344 C 4.839844 91.363281 4.464844 91.0625 4.125 90.742188 C 3.660156 90.300781 2.882812 89.734375 2.542969 88.898438 C 2.515625 88.832031 2.507812 88.757812 2.519531 88.6875 C 2.691406 87.703125 3.886719 87.4375 4.671875 87.3125 C 6.453125 87.019531 7.964844 86.796875 9.214844 86.640625 C 12.042969 86.289062 14.441406 86.007812 16.40625 85.792969 C 22.472656 85.128906 27.417969 84.480469 31.238281 83.847656 C 35.695312 83.105469 39.972656 82.179688 44.070312 81.070312 C 44.363281 80.988281 44.542969 80.746094 44.605469 80.335938 C 44.613281 80.304688 44.621094 80.269531 44.632812 80.238281 C 45.105469 79.074219 45.636719 77.824219 46.226562 76.484375 C 47.058594 74.59375 47.625 73.28125 47.921875 72.542969 C 48.207031 71.835938 48.570312 71.175781 49.007812 70.574219 C 49.050781 70.519531 49.09375 70.46875 49.144531 70.421875 C 49.757812 69.886719 50.132812 69.445312 50.269531 69.105469 C 50.945312 67.417969 51.882812 64.8125 53.085938 61.296875 C 56.617188 50.96875 58.617188 45.140625 59.09375 43.8125 C 60.851562 38.898438 62.90625 33.855469 65.035156 29.757812 C 65.6875 28.5 66.777344 26.414062 68.304688 23.507812 C 68.515625 23.101562 68.746094 22.691406 68.996094 22.273438 C 69.144531 22.023438 69.363281 21.609375 69.652344 21.027344 Z M 69.652344 21.027344 " fill-opacity="1" fill-rule="nonzero"/></g><path fill="#ebe1f5" d="M 144.804688 119.253906 C 145.042969 119.617188 145.246094 120.003906 145.410156 120.40625 C 145.578125 120.8125 145.703125 121.226562 145.785156 121.65625 C 145.871094 122.085938 145.914062 122.515625 145.914062 122.953125 C 145.917969 123.390625 145.875 123.824219 145.792969 124.25 C 145.710938 124.679688 145.589844 125.097656 145.425781 125.503906 C 145.261719 125.90625 145.0625 126.292969 144.824219 126.660156 C 144.585938 127.023438 144.3125 127.363281 144.011719 127.679688 C 143.707031 127.992188 143.375 128.273438 143.019531 128.523438 C 140.574219 130.039062 138.078125 131.464844 135.535156 132.808594 C 132.992188 134.148438 130.40625 135.402344 127.773438 136.566406 C 125.144531 137.730469 122.476562 138.800781 119.773438 139.78125 C 117.070312 140.761719 114.335938 141.644531 111.570312 142.4375 C 108.808594 143.226562 106.019531 143.921875 103.207031 144.523438 C 100.390625 145.121094 97.5625 145.621094 94.714844 146.027344 C 91.867188 146.429688 89.011719 146.734375 86.140625 146.941406 C 83.273438 147.148438 80.402344 147.257812 77.527344 147.265625 C 74.648438 147.273438 71.777344 147.183594 68.90625 146.992188 C 66.039062 146.804688 63.179688 146.515625 60.328125 146.128906 C 57.480469 145.742188 54.644531 145.257812 51.828125 144.675781 C 49.011719 144.09375 46.21875 143.417969 43.449219 142.644531 C 40.679688 141.867188 37.941406 141 35.230469 140.035156 C 32.523438 139.074219 29.847656 138.015625 27.210938 136.867188 C 24.574219 135.722656 21.980469 134.484375 19.429688 133.15625 C 16.878906 131.832031 14.375 130.417969 11.921875 128.917969 C 11.5625 128.671875 11.230469 128.390625 10.921875 128.078125 C 10.617188 127.769531 10.34375 127.429688 10.105469 127.066406 C 9.863281 126.699219 9.660156 126.316406 9.496094 125.910156 C 9.332031 125.507812 9.203125 125.089844 9.121094 124.664062 C 9.035156 124.234375 8.992188 123.800781 8.988281 123.367188 C 8.988281 122.929688 9.027344 122.496094 9.109375 122.066406 C 9.191406 121.640625 9.316406 121.222656 9.476562 120.816406 C 9.640625 120.410156 9.839844 120.027344 10.078125 119.660156 L 17.75 108.507812 C 17.996094 108.125 18.273438 107.769531 18.589844 107.441406 C 18.90625 107.117188 19.25 106.824219 19.625 106.566406 C 20 106.3125 20.394531 106.09375 20.8125 105.917969 C 21.230469 105.738281 21.664062 105.605469 22.109375 105.515625 C 22.554688 105.425781 23.003906 105.378906 23.457031 105.378906 C 23.910156 105.378906 24.363281 105.425781 24.804688 105.515625 C 25.25 105.605469 25.683594 105.742188 26.101562 105.917969 C 26.519531 106.097656 26.914062 106.3125 27.289062 106.570312 C 29.175781 107.6875 31.101562 108.734375 33.058594 109.722656 C 35.015625 110.707031 37.007812 111.628906 39.027344 112.480469 C 41.046875 113.332031 43.09375 114.117188 45.164062 114.832031 C 47.238281 115.546875 49.332031 116.191406 51.449219 116.765625 C 53.5625 117.339844 55.695312 117.84375 57.84375 118.277344 C 59.996094 118.707031 62.15625 119.066406 64.332031 119.351562 C 66.503906 119.640625 68.683594 119.851562 70.875 119.992188 C 73.0625 120.132812 75.25 120.199219 77.445312 120.195312 C 79.636719 120.1875 81.824219 120.105469 84.011719 119.953125 C 86.199219 119.800781 88.378906 119.574219 90.550781 119.273438 C 92.722656 118.972656 94.882812 118.601562 97.03125 118.15625 C 99.175781 117.710938 101.304688 117.195312 103.417969 116.609375 C 105.53125 116.023438 107.621094 115.363281 109.691406 114.636719 C 111.757812 113.910156 113.800781 113.113281 115.8125 112.25 C 117.828125 111.382812 119.8125 110.453125 121.765625 109.453125 C 123.71875 108.457031 125.632812 107.394531 127.515625 106.269531 C 127.886719 106.007812 128.28125 105.789062 128.699219 105.609375 C 129.117188 105.429688 129.546875 105.292969 129.992188 105.199219 C 130.4375 105.105469 130.886719 105.058594 131.339844 105.054688 C 131.792969 105.050781 132.242188 105.09375 132.6875 105.183594 C 133.136719 105.269531 133.566406 105.402344 133.988281 105.574219 C 134.40625 105.75 134.804688 105.964844 135.179688 106.21875 C 135.554688 106.472656 135.902344 106.765625 136.21875 107.089844 C 136.539062 107.414062 136.820312 107.765625 137.066406 108.148438 Z M 144.804688 119.253906 " fill-opacity="1" fill-rule="nonzero"/><g fill="#6b1fad" fill-opacity="1"><g transform="translate(16.645871, 123.072643)"><g><path d="M 5.90625 3.015625 L 7.609375 -6.75 L 7.546875 -6.78125 C 6.765625 -5.007812 6.226562 -3.835938 5.9375 -3.265625 L 3.390625 1.734375 L 1.34375 0.6875 L 6.828125 -10.0625 L 9.9375 -8.484375 L 8.296875 1.046875 L 8.34375 1.0625 L 15.234375 -5.78125 L 18.328125 -4.203125 L 12.84375 6.546875 L 10.71875 5.46875 L 13.3125 0.375 C 13.4375 0.144531 13.582031 -0.125 13.75 -0.4375 C 13.925781 -0.75 14.382812 -1.566406 15.125 -2.890625 L 15.0625 -2.9375 L 7.984375 4.078125 Z M 5.90625 3.015625 "/></g></g></g><g fill="#6b1fad" fill-opacity="1"><g transform="translate(31.591205, 130.448663)"><g><path d="M 3.234375 -8.65625 L 5.8125 -7.6875 L 5.625 -2.203125 C 5.601562 -1.722656 5.515625 -1.191406 5.359375 -0.609375 L 5.40625 -0.578125 C 5.644531 -1.097656 5.9375 -1.5625 6.28125 -1.96875 L 9.71875 -6.234375 L 12.234375 -5.296875 L 4.9375 3.109375 C 4.257812 3.878906 3.523438 4.375 2.734375 4.59375 C 1.953125 4.8125 1.144531 4.769531 0.3125 4.46875 C -0.09375 4.3125 -0.472656 4.113281 -0.828125 3.875 L -0.125 2 C 0.132812 2.175781 0.429688 2.328125 0.765625 2.453125 C 1.179688 2.609375 1.59375 2.613281 2 2.46875 C 2.40625 2.332031 2.789062 2.039062 3.15625 1.59375 L 3.453125 1.21875 Z M 3.234375 -8.65625 "/></g></g></g><g fill="#6b1fad" fill-opacity="1"><g transform="translate(41.096925, 133.947605)"><g><path d="M 8.21875 -0.5 C 7.957031 0.394531 7.441406 0.992188 6.671875 1.296875 C 5.898438 1.597656 4.890625 1.570312 3.640625 1.21875 C 2.984375 1.03125 2.441406 0.820312 2.015625 0.59375 C 1.585938 0.375 1.203125 0.128906 0.859375 -0.140625 L 1.421875 -2.140625 C 1.804688 -1.804688 2.257812 -1.488281 2.78125 -1.1875 C 3.300781 -0.882812 3.78125 -0.671875 4.21875 -0.546875 C 5.09375 -0.296875 5.601562 -0.425781 5.75 -0.9375 C 5.800781 -1.125 5.785156 -1.289062 5.703125 -1.4375 C 5.617188 -1.59375 5.453125 -1.785156 5.203125 -2.015625 C 4.960938 -2.253906 4.632812 -2.539062 4.21875 -2.875 C 3.625 -3.34375 3.203125 -3.75 2.953125 -4.09375 C 2.703125 -4.4375 2.546875 -4.785156 2.484375 -5.140625 C 2.429688 -5.492188 2.46875 -5.898438 2.59375 -6.359375 C 2.820312 -7.148438 3.300781 -7.671875 4.03125 -7.921875 C 4.769531 -8.179688 5.695312 -8.15625 6.8125 -7.84375 C 7.875 -7.539062 8.84375 -7.007812 9.71875 -6.25 L 8.515625 -4.703125 C 8.117188 -5.035156 7.742188 -5.316406 7.390625 -5.546875 C 7.046875 -5.773438 6.671875 -5.945312 6.265625 -6.0625 C 5.554688 -6.257812 5.144531 -6.164062 5.03125 -5.78125 C 4.96875 -5.5625 5.023438 -5.335938 5.203125 -5.109375 C 5.390625 -4.878906 5.828125 -4.5 6.515625 -3.96875 C 7.140625 -3.488281 7.578125 -3.082031 7.828125 -2.75 C 8.078125 -2.425781 8.234375 -2.082031 8.296875 -1.71875 C 8.367188 -1.351562 8.34375 -0.945312 8.21875 -0.5 Z M 8.21875 -0.5 "/></g></g></g><g fill="#6b1fad" fill-opacity="1"><g transform="translate(49.620702, 136.329181)"><g><path d="M 5.46875 -0.75 C 5.90625 -0.65625 6.445312 -0.632812 7.09375 -0.6875 L 6.703125 1.140625 C 6.035156 1.296875 5.253906 1.28125 4.359375 1.09375 C 3.367188 0.882812 2.703125 0.484375 2.359375 -0.109375 C 2.015625 -0.703125 1.945312 -1.5 2.15625 -2.5 L 3.0625 -6.859375 L 1.875 -7.109375 L 2.09375 -8.15625 L 3.640625 -8.6875 L 4.734375 -10.4375 L 6.296875 -10.109375 L 5.90625 -8.203125 L 8.4375 -7.6875 L 8.046875 -5.828125 L 5.515625 -6.34375 L 4.609375 -1.984375 C 4.535156 -1.640625 4.582031 -1.363281 4.75 -1.15625 C 4.914062 -0.945312 5.15625 -0.8125 5.46875 -0.75 Z M 5.46875 -0.75 "/></g></g></g><g fill="#6b1fad" fill-opacity="1"><g transform="translate(57.158833, 137.862039)"><g><path d="M 2.9375 -11.296875 C 3.0625 -12.109375 3.570312 -12.445312 4.46875 -12.3125 C 5.375 -12.175781 5.765625 -11.703125 5.640625 -10.890625 C 5.578125 -10.503906 5.414062 -10.222656 5.15625 -10.046875 C 4.90625 -9.867188 4.550781 -9.8125 4.09375 -9.875 C 3.195312 -10.007812 2.8125 -10.484375 2.9375 -11.296875 Z M 3.796875 0.578125 L 1.3125 0.203125 L 2.6875 -8.921875 L 5.171875 -8.546875 Z M 3.796875 0.578125 "/></g></g></g><g fill="#6b1fad" fill-opacity="1"><g transform="translate(62.643773, 138.733293)"><g><path d="M 5.03125 0.609375 C 2.175781 0.359375 0.890625 -1.335938 1.171875 -4.484375 C 1.304688 -6.046875 1.796875 -7.207031 2.640625 -7.96875 C 3.492188 -8.726562 4.648438 -9.039062 6.109375 -8.90625 C 7.160156 -8.8125 8.09375 -8.519531 8.90625 -8.03125 L 7.984375 -6.140625 C 7.609375 -6.335938 7.253906 -6.503906 6.921875 -6.640625 C 6.585938 -6.773438 6.253906 -6.851562 5.921875 -6.875 C 4.609375 -6.988281 3.875 -6.117188 3.71875 -4.265625 C 3.5625 -2.472656 4.140625 -1.519531 5.453125 -1.40625 C 5.929688 -1.363281 6.378906 -1.382812 6.796875 -1.46875 C 7.210938 -1.5625 7.640625 -1.726562 8.078125 -1.96875 L 7.890625 0.171875 C 7.460938 0.398438 7.035156 0.546875 6.609375 0.609375 C 6.191406 0.671875 5.664062 0.671875 5.03125 0.609375 Z M 5.03125 0.609375 "/></g></g></g><g fill="#6b1fad" fill-opacity="1"><g transform="translate(71.677514, 139.453849)"><g/></g></g><g fill="#6b1fad" fill-opacity="1"><g transform="translate(76.650778, 139.835468)"><g><path d="M 6.609375 -0.40625 L 3.125 -9.6875 L 3.0625 -9.6875 C 3.289062 -7.757812 3.425781 -6.472656 3.46875 -5.828125 L 3.8125 -0.234375 L 1.515625 -0.09375 L 0.765625 -12.140625 L 4.234375 -12.359375 L 7.671875 -3.328125 L 7.71875 -3.328125 L 10.171875 -12.71875 L 13.640625 -12.9375 L 14.390625 -0.890625 L 12.015625 -0.75 L 11.65625 -6.453125 C 11.644531 -6.710938 11.632812 -7.019531 11.625 -7.375 C 11.613281 -7.726562 11.582031 -8.664062 11.53125 -10.1875 L 11.46875 -10.1875 L 8.953125 -0.5625 Z M 6.609375 -0.40625 "/></g></g></g><g fill="#6b1fad" fill-opacity="1"><g transform="translate(93.288183, 138.58988)"><g><path d="M 7.078125 -1.28125 L 6.359375 -2.421875 L 6.296875 -2.421875 C 5.984375 -1.816406 5.617188 -1.367188 5.203125 -1.078125 C 4.796875 -0.796875 4.238281 -0.59375 3.53125 -0.46875 C 2.664062 -0.300781 1.929688 -0.425781 1.328125 -0.84375 C 0.734375 -1.257812 0.359375 -1.921875 0.203125 -2.828125 C 0.0234375 -3.804688 0.234375 -4.582031 0.828125 -5.15625 C 1.421875 -5.738281 2.394531 -6.175781 3.75 -6.46875 L 5.296875 -6.796875 L 5.234375 -7.203125 C 5.066406 -8.109375 4.515625 -8.476562 3.578125 -8.3125 C 2.847656 -8.175781 2.035156 -7.804688 1.140625 -7.203125 L 0 -8.71875 C 0.945312 -9.457031 2.0625 -9.941406 3.34375 -10.171875 C 4.550781 -10.390625 5.53125 -10.289062 6.28125 -9.875 C 7.03125 -9.46875 7.503906 -8.726562 7.703125 -7.65625 L 8.796875 -1.59375 Z M 5.5625 -5.359375 L 4.625 -5.15625 C 3.90625 -5 3.390625 -4.769531 3.078125 -4.46875 C 2.773438 -4.164062 2.671875 -3.769531 2.765625 -3.28125 C 2.890625 -2.582031 3.347656 -2.304688 4.140625 -2.453125 C 4.710938 -2.554688 5.140625 -2.800781 5.421875 -3.1875 C 5.703125 -3.582031 5.796875 -4.050781 5.703125 -4.59375 Z M 5.5625 -5.359375 "/></g></g></g><g fill="#6b1fad" fill-opacity="1"><g transform="translate(103.822657, 136.609352)"><g><path d="M 3.84375 -10.75 C 4.175781 -10.84375 4.457031 -10.890625 4.6875 -10.890625 L 5.109375 -8.5625 C 4.890625 -8.5625 4.640625 -8.523438 4.359375 -8.453125 C 3.585938 -8.242188 3.039062 -7.882812 2.71875 -7.375 C 2.394531 -6.863281 2.328125 -6.25 2.515625 -5.53125 L 3.71875 -0.984375 L 1.28125 -0.34375 L -1.09375 -9.265625 L 0.75 -9.75 L 1.5 -8.34375 L 1.625 -8.375 C 1.769531 -8.945312 2.035156 -9.445312 2.421875 -9.875 C 2.816406 -10.3125 3.289062 -10.601562 3.84375 -10.75 Z M 3.84375 -10.75 "/></g></g></g><g fill="#6b1fad" fill-opacity="1"><g transform="translate(111.753896, 134.542427)"><g><path d="M 1.84375 -5.984375 L 2.421875 -7.671875 L 3.90625 -11.1875 L 6.578125 -12.140625 L 4.46875 -7.125 L 9.875 -3.5 L 7.140625 -2.53125 L 3.390625 -5.15625 L 2.65625 -3.984375 L 3.625 -1.28125 L 1.25 -0.4375 L -3.046875 -12.546875 L -0.671875 -13.390625 L 1.25 -7.984375 L 1.8125 -5.96875 Z M 1.84375 -5.984375 "/></g></g></g><g fill="#6b1fad" fill-opacity="1"><g transform="translate(122.171934, 130.806077)"><g><path d="M 1.484375 -9.0625 C 0.992188 -8.84375 0.679688 -8.515625 0.546875 -8.078125 C 0.421875 -7.640625 0.46875 -7.132812 0.6875 -6.5625 L 3.890625 -8.03125 C 3.617188 -8.59375 3.269531 -8.957031 2.84375 -9.125 C 2.414062 -9.300781 1.960938 -9.28125 1.484375 -9.0625 Z M 5.078125 -2.15625 C 3.722656 -1.53125 2.488281 -1.414062 1.375 -1.8125 C 0.269531 -2.207031 -0.59375 -3.085938 -1.21875 -4.453125 C -1.863281 -5.859375 -2.007812 -7.109375 -1.65625 -8.203125 C -1.3125 -9.296875 -0.519531 -10.128906 0.71875 -10.703125 C 1.894531 -11.242188 2.96875 -11.328125 3.9375 -10.953125 C 4.914062 -10.585938 5.675781 -9.804688 6.21875 -8.609375 L 6.734375 -7.515625 L 1.328125 -5.015625 C 1.648438 -4.367188 2.078125 -3.945312 2.609375 -3.75 C 3.140625 -3.550781 3.726562 -3.597656 4.375 -3.890625 C 4.882812 -4.128906 5.335938 -4.40625 5.734375 -4.71875 C 6.140625 -5.039062 6.53125 -5.425781 6.90625 -5.875 L 7.71875 -4.09375 C 7.414062 -3.71875 7.0625 -3.375 6.65625 -3.0625 C 6.25 -2.75 5.722656 -2.445312 5.078125 -2.15625 Z M 5.078125 -2.15625 "/></g></g></g><g fill="#6b1fad" fill-opacity="1"><g transform="translate(131.657001, 126.349564)"><g><path d="M 3.640625 -4.15625 C 4.023438 -4.375 4.445312 -4.710938 4.90625 -5.171875 L 5.8125 -3.53125 C 5.394531 -2.976562 4.785156 -2.476562 3.984375 -2.03125 C 3.109375 -1.539062 2.347656 -1.40625 1.703125 -1.625 C 1.054688 -1.851562 0.484375 -2.410156 -0.015625 -3.296875 L -2.203125 -7.1875 L -3.25 -6.59375 L -3.765625 -7.515625 L -2.96875 -8.953125 L -3.28125 -10.984375 L -1.890625 -11.765625 L -0.9375 -10.0625 L 1.3125 -11.328125 L 2.234375 -9.671875 L -0.015625 -8.40625 L 2.171875 -4.515625 C 2.335938 -4.210938 2.550781 -4.035156 2.8125 -3.984375 C 3.082031 -3.929688 3.359375 -3.988281 3.640625 -4.15625 Z M 3.640625 -4.15625 "/></g></g></g></svg>