<svg xmlns="http://www.w3.org/2000/svg" xmlns:xlink="http://www.w3.org/1999/xlink" width="200" zoomAndPan="magnify" viewBox="0 0 150 148.499996" height="198" preserveAspectRatio="xMidYMid meet" version="1.0"><defs><g/><clipPath id="2d658bd8f7"><path d="M 0.25 37.132812 L 149.746094 37.132812 L 149.746094 147.761719 L 0.25 147.761719 Z M 0.25 37.132812 " clip-rule="nonzero"/></clipPath></defs><g clip-path="url(#2d658bd8f7)"><path fill="#ffa51f" d="M 149.320312 126.195312 C 149.117188 125.34375 149 125.050781 148.863281 124.570312 L 148.441406 123.21875 L 145.070312 112.371094 L 138.328125 90.679688 L 136.644531 85.25 L 135.800781 82.539062 C 135.371094 81.144531 134.664062 79.824219 133.734375 78.6875 C 132.253906 76.84375 130.1875 75.523438 127.933594 74.894531 C 127.960938 73.699219 127.863281 72.484375 127.609375 71.28125 C 127.050781 68.652344 125.730469 66.097656 123.777344 64.109375 C 123.277344 63.628906 122.800781 63.109375 122.230469 62.714844 C 121.683594 62.292969 121.125 61.863281 120.515625 61.550781 L 119.605469 61.050781 C 119.300781 60.882812 118.976562 60.777344 118.664062 60.640625 L 117.714844 60.257812 C 117.390625 60.140625 117.066406 60.0625 116.742188 59.964844 C 115.097656 59.484375 113.414062 59.277344 111.765625 59.277344 C 110.53125 57.191406 108.835938 55.484375 106.976562 54.164062 C 105.398438 53.066406 103.671875 52.222656 101.851562 51.664062 C 101.144531 50.417969 100.351562 49.203125 99.460938 48.058594 C 98.039062 46.273438 96.421875 44.601562 94.582031 43.167969 C 92.75 41.71875 90.710938 40.503906 88.527344 39.601562 C 86.351562 38.683594 84.046875 38.054688 81.695312 37.761719 C 77.003906 37.132812 72.164062 37.722656 67.707031 39.582031 C 65.480469 40.523438 63.363281 41.828125 61.472656 43.523438 C 60.414062 44.460938 59.4375 45.570312 58.613281 46.824219 C 57.027344 46.460938 55.378906 46.292969 53.753906 46.382812 C 50.929688 46.519531 48.148438 47.304688 45.71875 48.707031 C 43.289062 50.097656 41.171875 52.074219 39.710938 54.515625 C 38.898438 55.847656 38.300781 57.335938 37.957031 58.867188 C 36.164062 58.992188 34.414062 59.40625 32.777344 60.042969 C 30.933594 60.726562 29.230469 61.777344 27.730469 63.050781 C 26.210938 64.304688 24.929688 65.871094 23.976562 67.625 C 22.683594 69.859375 22.105469 72.417969 22.085938 74.894531 C 19.832031 75.523438 17.765625 76.855469 16.265625 78.695312 C 15.335938 79.832031 14.628906 81.175781 14.207031 82.558594 L 13.367188 85.269531 L 11.679688 90.6875 L 4.941406 112.382812 L 1.570312 123.226562 L 1.148438 124.582031 C 1.011719 125.058594 0.894531 125.363281 0.6875 126.214844 C 0.335938 127.675781 0.265625 129.222656 0.5 130.722656 C 0.953125 133.722656 2.578125 136.515625 5.019531 138.367188 C 6.234375 139.296875 7.644531 139.972656 9.105469 140.363281 C 9.269531 140.402344 9.515625 140.480469 9.605469 140.492188 L 10.660156 140.726562 L 12.074219 141.03125 L 17.707031 142.246094 C 21.488281 142.933594 25.25 143.726562 29.0625 144.273438 C 44.25 146.734375 59.632812 147.859375 75.015625 147.949219 C 90.398438 147.859375 105.78125 146.734375 120.96875 144.273438 C 124.769531 143.726562 128.539062 142.933594 132.324219 142.246094 L 137.957031 141.03125 L 139.367188 140.726562 L 140.074219 140.570312 L 140.425781 140.492188 C 140.523438 140.472656 140.769531 140.402344 140.933594 140.355469 C 142.394531 139.964844 143.804688 139.277344 145.019531 138.355469 C 147.460938 136.503906 149.078125 133.710938 149.527344 130.714844 C 149.734375 129.203125 149.664062 127.65625 149.320312 126.195312 Z M 35.3125 66.917969 C 36.441406 66.566406 37.605469 66.332031 38.742188 66.320312 C 39.3125 66.339844 39.878906 66.351562 40.417969 66.4375 C 40.957031 66.539062 41.464844 66.683594 41.957031 66.859375 C 43.917969 67.574219 45.386719 69.085938 46.355469 71.230469 L 46.453125 71.445312 C 46.589844 71.75 46.777344 72.035156 47.003906 72.296875 C 48.304688 73.808594 50.589844 73.972656 52.097656 72.671875 C 52.824219 72.042969 53.625 71.601562 54.476562 71.378906 C 55.332031 71.152344 56.242188 71.171875 57.125 71.417969 C 58.898438 71.917969 60.453125 73.414062 61.289062 75.601562 L 61.347656 75.746094 C 61.796875 76.921875 63.023438 77.667969 64.304688 77.460938 C 65.785156 77.226562 66.785156 75.835938 66.550781 74.355469 C 66.246094 72.496094 65.53125 70.613281 64.324219 68.96875 C 63.121094 67.332031 61.433594 65.960938 59.476562 65.144531 C 57.515625 64.3125 55.292969 64.046875 53.164062 64.421875 C 52.519531 64.527344 51.882812 64.6875 51.265625 64.902344 C 50.863281 64.332031 50.414062 63.785156 49.914062 63.273438 C 48.453125 61.738281 46.609375 60.53125 44.640625 59.765625 C 44.394531 59.679688 44.140625 59.589844 43.898438 59.511719 C 44.171875 58.933594 44.503906 58.386719 44.894531 57.867188 C 45.925781 56.496094 47.324219 55.378906 48.902344 54.625 C 50.480469 53.878906 52.214844 53.46875 53.929688 53.488281 C 55.644531 53.507812 57.339844 53.878906 58.917969 54.625 C 58.945312 54.644531 58.996094 54.664062 59.035156 54.671875 C 60.886719 55.476562 63.03125 54.625 63.824219 52.769531 L 63.933594 52.515625 C 64.453125 51.300781 65.285156 50.085938 66.480469 49.058594 C 67.65625 48.019531 69.097656 47.167969 70.65625 46.480469 C 73.78125 45.128906 77.367188 44.648438 80.824219 44.972656 C 82.558594 45.148438 84.273438 45.53125 85.917969 46.117188 C 87.566406 46.707031 89.144531 47.519531 90.621094 48.5 C 91.757812 49.273438 92.847656 50.144531 93.867188 51.117188 C 93.628906 51.15625 93.40625 51.203125 93.171875 51.261719 C 91.554688 51.644531 89.976562 52.320312 88.605469 53.269531 C 87.222656 54.222656 86.058594 55.417969 85.117188 56.710938 C 84.5 57.582031 84.019531 58.492188 83.617188 59.425781 C 83.304688 59.445312 82.988281 59.464844 82.675781 59.503906 C 81.453125 59.6875 80.246094 60.023438 79.160156 60.5625 C 76.964844 61.617188 75.238281 63.265625 73.976562 65.078125 C 73.535156 65.703125 73.535156 66.578125 74.023438 67.222656 C 74.632812 68.015625 75.769531 68.164062 76.5625 67.554688 L 76.671875 67.46875 C 78.101562 66.359375 79.523438 65.441406 80.992188 64.921875 C 82.460938 64.410156 83.96875 64.273438 85.460938 64.566406 C 86.949219 64.832031 88.417969 65.507812 89.730469 66.4375 C 91.042969 67.390625 92.179688 68.605469 93.03125 70.007812 L 93.113281 70.144531 C 93.511719 70.789062 94.296875 71.140625 95.082031 70.957031 C 96.050781 70.722656 96.648438 69.742188 96.414062 68.769531 C 95.84375 66.4375 94.492188 64.390625 92.738281 62.8125 C 91.816406 61.972656 90.769531 61.265625 89.632812 60.707031 C 89.703125 60.628906 89.769531 60.5625 89.839844 60.480469 C 90.515625 59.796875 91.238281 59.238281 92.023438 58.828125 C 92.796875 58.394531 93.660156 58.160156 94.542969 58.03125 C 95.421875 57.894531 96.355469 57.90625 97.296875 58.042969 C 99.167969 58.289062 101.027344 59.101562 102.578125 60.21875 C 104.125 61.34375 105.261719 62.84375 105.808594 64.34375 L 105.828125 64.410156 C 106.425781 66.046875 108.082031 67.105469 109.875 66.871094 C 111.589844 66.644531 113.257812 66.703125 114.792969 67.046875 C 116.324219 67.410156 117.703125 68.09375 118.839844 69.085938 C 119.957031 70.085938 120.867188 71.359375 121.386719 72.875 C 121.605469 73.492188 121.761719 74.140625 121.859375 74.808594 L 119.339844 75.355469 C 104.78125 78.460938 89.898438 80.039062 74.964844 80.34375 C 60.042969 80.039062 45.152344 78.460938 30.589844 75.355469 L 28.101562 74.816406 C 28.375 73.425781 28.894531 72.152344 29.691406 71.042969 C 31.023438 69.132812 33.078125 67.695312 35.3125 66.917969 Z M 141.992188 130.125 C 141.875 130.890625 141.433594 131.613281 140.835938 132.054688 C 140.535156 132.28125 140.199219 132.429688 139.828125 132.527344 C 139.757812 132.546875 139.777344 132.546875 139.640625 132.574219 L 139.289062 132.644531 L 138.59375 132.789062 L 137.203125 133.085938 L 131.628906 134.242188 C 127.882812 134.886719 124.160156 135.640625 120.398438 136.152344 C 112.894531 137.347656 105.339844 138.160156 97.773438 138.769531 C 90.203125 139.375 82.609375 139.582031 75.015625 139.640625 C 67.421875 139.582031 59.828125 139.375 52.253906 138.769531 C 44.691406 138.160156 37.125 137.347656 29.628906 136.152344 C 25.867188 135.640625 22.144531 134.886719 18.402344 134.242188 L 12.828125 133.085938 L 11.4375 132.789062 L 10.742188 132.644531 L 10.386719 132.574219 C 10.242188 132.546875 10.269531 132.535156 10.203125 132.527344 C 9.828125 132.4375 9.496094 132.28125 9.191406 132.054688 C 8.59375 131.613281 8.152344 130.890625 8.035156 130.136719 C 7.976562 129.753906 7.988281 129.371094 8.074219 128.988281 C 8.074219 128.910156 8.261719 128.304688 8.390625 127.871094 L 8.800781 126.480469 L 12.0625 115.371094 L 18.578125 93.160156 L 20.207031 87.601562 L 21.019531 84.832031 C 21.144531 84.390625 21.339844 84.027344 21.605469 83.675781 C 22.125 82.996094 22.957031 82.5 23.851562 82.378906 C 24.074219 82.339844 24.300781 82.332031 24.527344 82.339844 C 24.632812 82.351562 24.75 82.351562 24.859375 82.371094 L 25.027344 82.398438 L 25.359375 82.46875 L 28.257812 83.035156 C 43.699219 85.867188 59.398438 87.464844 75.042969 87.171875 C 90.691406 87.464844 106.386719 85.867188 121.828125 83.035156 L 124.738281 82.46875 L 125.082031 82.398438 L 125.238281 82.371094 C 125.335938 82.359375 125.445312 82.351562 125.550781 82.339844 C 125.789062 82.332031 126.011719 82.351562 126.238281 82.378906 C 127.121094 82.507812 127.953125 82.988281 128.480469 83.683594 C 128.746094 84.027344 128.941406 84.417969 129.070312 84.839844 L 129.882812 87.613281 L 131.507812 93.167969 L 138.023438 115.378906 L 141.289062 126.480469 L 141.699219 127.871094 C 141.828125 128.304688 142.011719 128.921875 142.011719 129 C 142.042969 129.363281 142.050781 129.742188 141.992188 130.125 Z M 141.992188 130.125 " fill-opacity="1" fill-rule="nonzero"/></g><path fill="#ffa51f" d="M 75.378906 110.519531 C 68.851562 110.519531 60.691406 118.203125 61.945312 124.375 C 63.835938 133.652344 71.429688 130.339844 75.378906 130.339844 C 80.277344 130.339844 86.164062 134.359375 88.808594 124.375 C 90.417969 118.289062 80.578125 110.519531 75.378906 110.519531 Z M 75.378906 110.519531 " fill-opacity="1" fill-rule="nonzero"/><path fill="#ffa51f" d="M 62.699219 112.097656 C 62.699219 112.496094 62.667969 112.894531 62.601562 113.285156 C 62.535156 113.679688 62.441406 114.058594 62.3125 114.429688 C 62.1875 114.800781 62.03125 115.152344 61.84375 115.484375 C 61.660156 115.816406 61.449219 116.125 61.214844 116.40625 C 60.980469 116.691406 60.722656 116.941406 60.449219 117.164062 C 60.171875 117.386719 59.878906 117.574219 59.570312 117.726562 C 59.265625 117.882812 58.949219 117.996094 58.621094 118.074219 C 58.296875 118.152344 57.964844 118.191406 57.632812 118.191406 C 57.300781 118.191406 56.972656 118.152344 56.644531 118.074219 C 56.320312 117.996094 56.003906 117.882812 55.695312 117.726562 C 55.386719 117.574219 55.09375 117.386719 54.820312 117.164062 C 54.542969 116.941406 54.285156 116.691406 54.050781 116.40625 C 53.816406 116.125 53.605469 115.816406 53.421875 115.484375 C 53.238281 115.152344 53.082031 114.800781 52.953125 114.429688 C 52.824219 114.058594 52.730469 113.679688 52.664062 113.285156 C 52.601562 112.894531 52.566406 112.496094 52.566406 112.097656 C 52.566406 111.699219 52.601562 111.300781 52.664062 110.910156 C 52.730469 110.515625 52.824219 110.136719 52.953125 109.765625 C 53.082031 109.394531 53.238281 109.042969 53.421875 108.710938 C 53.605469 108.378906 53.816406 108.070312 54.050781 107.789062 C 54.285156 107.503906 54.542969 107.253906 54.820312 107.03125 C 55.09375 106.808594 55.386719 106.621094 55.695312 106.46875 C 56.003906 106.3125 56.320312 106.199219 56.644531 106.121094 C 56.972656 106.042969 57.300781 106.003906 57.632812 106.003906 C 57.964844 106.003906 58.296875 106.042969 58.621094 106.121094 C 58.949219 106.199219 59.265625 106.3125 59.570312 106.46875 C 59.878906 106.621094 60.171875 106.808594 60.449219 107.03125 C 60.722656 107.253906 60.980469 107.503906 61.214844 107.789062 C 61.449219 108.070312 61.660156 108.378906 61.84375 108.710938 C 62.03125 109.042969 62.1875 109.394531 62.3125 109.765625 C 62.441406 110.136719 62.535156 110.515625 62.601562 110.910156 C 62.667969 111.300781 62.699219 111.699219 62.699219 112.097656 Z M 62.699219 112.097656 " fill-opacity="1" fill-rule="nonzero"/><path fill="#ffa51f" d="M 72.820312 102.300781 C 72.820312 102.699219 72.789062 103.097656 72.722656 103.488281 C 72.65625 103.882812 72.5625 104.261719 72.433594 104.632812 C 72.308594 105 72.152344 105.351562 71.964844 105.6875 C 71.78125 106.019531 71.570312 106.324219 71.335938 106.609375 C 71.101562 106.890625 70.84375 107.144531 70.570312 107.367188 C 70.292969 107.589844 70 107.777344 69.691406 107.929688 C 69.386719 108.082031 69.070312 108.199219 68.742188 108.277344 C 68.417969 108.355469 68.085938 108.394531 67.753906 108.394531 C 67.421875 108.394531 67.09375 108.355469 66.765625 108.277344 C 66.441406 108.199219 66.125 108.082031 65.816406 107.929688 C 65.507812 107.777344 65.214844 107.589844 64.941406 107.367188 C 64.664062 107.144531 64.40625 106.890625 64.171875 106.609375 C 63.9375 106.324219 63.726562 106.019531 63.542969 105.6875 C 63.359375 105.351562 63.203125 105 63.074219 104.632812 C 62.945312 104.261719 62.851562 103.882812 62.785156 103.488281 C 62.722656 103.097656 62.6875 102.699219 62.6875 102.300781 C 62.6875 101.898438 62.722656 101.503906 62.785156 101.109375 C 62.851562 100.71875 62.945312 100.335938 63.074219 99.96875 C 63.203125 99.597656 63.359375 99.246094 63.542969 98.914062 C 63.726562 98.582031 63.9375 98.273438 64.171875 97.992188 C 64.40625 97.707031 64.664062 97.453125 64.941406 97.234375 C 65.214844 97.011719 65.507812 96.824219 65.816406 96.667969 C 66.125 96.515625 66.441406 96.402344 66.765625 96.324219 C 67.09375 96.246094 67.421875 96.207031 67.753906 96.207031 C 68.085938 96.207031 68.417969 96.246094 68.742188 96.324219 C 69.070312 96.402344 69.386719 96.515625 69.691406 96.667969 C 70 96.824219 70.292969 97.011719 70.570312 97.234375 C 70.84375 97.453125 71.101562 97.707031 71.335938 97.992188 C 71.570312 98.273438 71.78125 98.582031 71.964844 98.914062 C 72.152344 99.246094 72.308594 99.597656 72.433594 99.96875 C 72.5625 100.335938 72.65625 100.71875 72.722656 101.109375 C 72.789062 101.503906 72.820312 101.898438 72.820312 102.300781 Z M 72.820312 102.300781 " fill-opacity="1" fill-rule="nonzero"/><path fill="#ffa51f" d="M 97.421875 112.097656 C 97.421875 112.496094 97.390625 112.894531 97.324219 113.285156 C 97.261719 113.679688 97.164062 114.058594 97.035156 114.429688 C 96.910156 114.800781 96.753906 115.152344 96.570312 115.484375 C 96.382812 115.816406 96.175781 116.125 95.9375 116.40625 C 95.703125 116.691406 95.449219 116.941406 95.171875 117.164062 C 94.894531 117.386719 94.601562 117.574219 94.296875 117.726562 C 93.988281 117.882812 93.671875 117.996094 93.34375 118.074219 C 93.019531 118.152344 92.691406 118.191406 92.355469 118.191406 C 92.023438 118.191406 91.695312 118.152344 91.367188 118.074219 C 91.042969 117.996094 90.726562 117.882812 90.417969 117.726562 C 90.109375 117.574219 89.820312 117.386719 89.542969 117.164062 C 89.265625 116.941406 89.011719 116.691406 88.773438 116.40625 C 88.539062 116.125 88.328125 115.816406 88.144531 115.484375 C 87.960938 115.152344 87.804688 114.800781 87.675781 114.429688 C 87.550781 114.058594 87.453125 113.679688 87.390625 113.285156 C 87.324219 112.894531 87.292969 112.496094 87.292969 112.097656 C 87.292969 111.699219 87.324219 111.300781 87.390625 110.910156 C 87.453125 110.515625 87.550781 110.136719 87.675781 109.765625 C 87.804688 109.394531 87.960938 109.042969 88.144531 108.710938 C 88.328125 108.378906 88.539062 108.070312 88.773438 107.789062 C 89.011719 107.503906 89.265625 107.253906 89.542969 107.03125 C 89.820312 106.808594 90.109375 106.621094 90.417969 106.46875 C 90.726562 106.3125 91.042969 106.199219 91.367188 106.121094 C 91.695312 106.042969 92.023438 106.003906 92.355469 106.003906 C 92.691406 106.003906 93.019531 106.042969 93.34375 106.121094 C 93.671875 106.199219 93.988281 106.3125 94.296875 106.46875 C 94.601562 106.621094 94.894531 106.808594 95.171875 107.03125 C 95.449219 107.253906 95.703125 107.503906 95.9375 107.789062 C 96.175781 108.070312 96.382812 108.378906 96.570312 108.710938 C 96.753906 109.042969 96.910156 109.394531 97.035156 109.765625 C 97.164062 110.136719 97.261719 110.515625 97.324219 110.910156 C 97.390625 111.300781 97.421875 111.699219 97.421875 112.097656 Z M 97.421875 112.097656 " fill-opacity="1" fill-rule="nonzero"/><path fill="#ffa51f" d="M 87.300781 102.300781 C 87.300781 102.699219 87.269531 103.097656 87.203125 103.488281 C 87.140625 103.882812 87.042969 104.261719 86.914062 104.632812 C 86.789062 105 86.632812 105.351562 86.449219 105.6875 C 86.261719 106.019531 86.054688 106.324219 85.816406 106.609375 C 85.582031 106.890625 85.328125 107.144531 85.050781 107.367188 C 84.773438 107.589844 84.480469 107.777344 84.175781 107.929688 C 83.867188 108.082031 83.550781 108.199219 83.222656 108.277344 C 82.898438 108.355469 82.570312 108.394531 82.234375 108.394531 C 81.902344 108.394531 81.574219 108.355469 81.246094 108.277344 C 80.921875 108.199219 80.605469 108.082031 80.296875 107.929688 C 79.988281 107.777344 79.699219 107.589844 79.421875 107.367188 C 79.144531 107.144531 78.890625 106.890625 78.652344 106.609375 C 78.417969 106.324219 78.207031 106.019531 78.023438 105.6875 C 77.839844 105.351562 77.683594 105 77.554688 104.632812 C 77.429688 104.261719 77.332031 103.882812 77.265625 103.488281 C 77.203125 103.097656 77.171875 102.699219 77.171875 102.300781 C 77.171875 101.898438 77.203125 101.503906 77.265625 101.109375 C 77.332031 100.71875 77.429688 100.335938 77.554688 99.96875 C 77.683594 99.597656 77.839844 99.246094 78.023438 98.914062 C 78.207031 98.582031 78.417969 98.273438 78.652344 97.992188 C 78.890625 97.707031 79.144531 97.453125 79.421875 97.234375 C 79.699219 97.011719 79.988281 96.824219 80.296875 96.667969 C 80.605469 96.515625 80.921875 96.402344 81.246094 96.324219 C 81.574219 96.246094 81.902344 96.207031 82.234375 96.207031 C 82.570312 96.207031 82.898438 96.246094 83.222656 96.324219 C 83.550781 96.402344 83.867188 96.515625 84.175781 96.667969 C 84.480469 96.824219 84.773438 97.011719 85.050781 97.234375 C 85.328125 97.453125 85.582031 97.707031 85.816406 97.992188 C 86.054688 98.273438 86.261719 98.582031 86.449219 98.914062 C 86.632812 99.246094 86.789062 99.597656 86.914062 99.96875 C 87.042969 100.335938 87.140625 100.71875 87.203125 101.109375 C 87.269531 101.503906 87.300781 101.898438 87.300781 102.300781 Z M 87.300781 102.300781 " fill-opacity="1" fill-rule="nonzero"/><path fill="#f9efe0" d="M 26.484375 30.085938 C 26.246094 29.722656 26.042969 29.339844 25.878906 28.9375 C 25.714844 28.535156 25.589844 28.121094 25.507812 27.695312 C 25.421875 27.269531 25.378906 26.839844 25.375 26.40625 C 25.375 25.96875 25.414062 25.539062 25.496094 25.113281 C 25.574219 24.6875 25.695312 24.269531 25.855469 23.867188 C 26.015625 23.464844 26.214844 23.078125 26.449219 22.714844 C 26.683594 22.347656 26.949219 22.007812 27.25 21.695312 C 27.550781 21.378906 27.875 21.097656 28.230469 20.847656 C 29.996094 19.78125 31.792969 18.78125 33.628906 17.839844 C 35.460938 16.898438 37.324219 16.023438 39.21875 15.207031 C 41.109375 14.394531 43.027344 13.648438 44.972656 12.964844 C 46.917969 12.28125 48.882812 11.664062 50.867188 11.117188 C 52.855469 10.566406 54.855469 10.089844 56.875 9.675781 C 58.894531 9.265625 60.925781 8.921875 62.96875 8.648438 C 65.011719 8.375 67.058594 8.171875 69.117188 8.035156 C 71.171875 7.902344 73.230469 7.839844 75.289062 7.847656 C 77.351562 7.851562 79.410156 7.929688 81.464844 8.078125 C 83.519531 8.222656 85.566406 8.441406 87.609375 8.726562 C 89.648438 9.015625 91.675781 9.371094 93.691406 9.796875 C 95.707031 10.21875 97.707031 10.714844 99.691406 11.273438 C 101.671875 11.835938 103.632812 12.464844 105.574219 13.160156 C 107.515625 13.855469 109.425781 14.617188 111.316406 15.441406 C 113.203125 16.269531 115.058594 17.15625 116.886719 18.109375 C 118.714844 19.0625 120.507812 20.078125 122.265625 21.152344 C 122.617188 21.40625 122.941406 21.691406 123.242188 22.007812 C 123.539062 22.320312 123.804688 22.664062 124.035156 23.03125 C 124.265625 23.398438 124.460938 23.785156 124.621094 24.1875 C 124.777344 24.59375 124.894531 25.007812 124.972656 25.4375 C 125.050781 25.863281 125.089844 26.292969 125.082031 26.730469 C 125.078125 27.164062 125.03125 27.59375 124.945312 28.019531 C 124.855469 28.445312 124.730469 28.855469 124.5625 29.257812 C 124.394531 29.660156 124.191406 30.039062 123.953125 30.402344 L 116.035156 41.40625 C 115.789062 41.792969 115.503906 42.152344 115.183594 42.480469 C 114.859375 42.808594 114.507812 43.105469 114.128906 43.363281 C 113.746094 43.621094 113.34375 43.835938 112.917969 44.011719 C 112.492188 44.1875 112.054688 44.316406 111.601562 44.40625 C 111.152344 44.492188 110.695312 44.53125 110.234375 44.523438 C 109.773438 44.519531 109.320312 44.464844 108.871094 44.367188 C 108.421875 44.265625 107.988281 44.125 107.566406 43.9375 C 107.148438 43.746094 106.75 43.519531 106.375 43.25 C 104.011719 41.90625 101.566406 40.71875 99.046875 39.6875 C 96.53125 38.65625 93.953125 37.792969 91.324219 37.089844 C 88.695312 36.390625 86.03125 35.863281 83.332031 35.507812 C 80.632812 35.148438 77.925781 34.964844 75.203125 34.957031 C 72.480469 34.949219 69.769531 35.113281 67.070312 35.453125 C 64.367188 35.792969 61.703125 36.304688 59.066406 36.988281 C 56.433594 37.667969 53.851562 38.519531 51.328125 39.53125 C 48.800781 40.546875 46.351562 41.71875 43.976562 43.046875 C 43.601562 43.316406 43.203125 43.539062 42.78125 43.726562 C 42.359375 43.910156 41.925781 44.050781 41.472656 44.148438 C 41.023438 44.242188 40.570312 44.292969 40.109375 44.296875 C 39.648438 44.300781 39.191406 44.257812 38.742188 44.167969 C 38.289062 44.078125 37.851562 43.945312 37.429688 43.765625 C 37.003906 43.589844 36.601562 43.367188 36.222656 43.109375 C 35.84375 42.847656 35.496094 42.550781 35.175781 42.222656 C 34.855469 41.890625 34.574219 41.53125 34.328125 41.140625 Z M 26.484375 30.085938 " fill-opacity="1" fill-rule="nonzero"/><g fill="#cc7a00" fill-opacity="1"><g transform="translate(38.822669, 37.589709)"><g><path d="M 0.765625 -7.546875 L 1.53125 -7.921875 C 2.226562 -8.273438 2.679688 -8.675781 2.890625 -9.125 C 3.109375 -9.582031 3.082031 -10.082031 2.8125 -10.625 C 2.539062 -11.15625 2.191406 -11.472656 1.765625 -11.578125 C 1.347656 -11.691406 0.828125 -11.59375 0.203125 -11.28125 L -0.84375 -10.75 Z M 5.09375 -11.859375 C 5.675781 -10.710938 5.757812 -9.644531 5.34375 -8.65625 C 4.925781 -7.675781 4.050781 -6.847656 2.71875 -6.171875 L 1.71875 -5.671875 L 3.640625 -1.828125 L 1.359375 -0.6875 L -4.0625 -11.5 L -0.609375 -13.234375 C 0.691406 -13.890625 1.828125 -14.109375 2.796875 -13.890625 C 3.765625 -13.671875 4.53125 -12.992188 5.09375 -11.859375 Z M 5.09375 -11.859375 "/></g></g></g><g fill="#cc7a00" fill-opacity="1"><g transform="translate(47.574355, 33.157402)"><g><path d="M 2.390625 -8.875 C 1.878906 -8.695312 1.535156 -8.398438 1.359375 -7.984375 C 1.179688 -7.578125 1.175781 -7.066406 1.34375 -6.453125 L 4.6875 -7.609375 C 4.46875 -8.191406 4.15625 -8.59375 3.75 -8.8125 C 3.34375 -9.03125 2.890625 -9.050781 2.390625 -8.875 Z M 5.28125 -1.640625 C 3.875 -1.148438 2.632812 -1.15625 1.5625 -1.65625 C 0.5 -2.164062 -0.273438 -3.132812 -0.765625 -4.5625 C -1.265625 -6.019531 -1.285156 -7.273438 -0.828125 -8.328125 C -0.378906 -9.378906 0.492188 -10.128906 1.796875 -10.578125 C 3.023438 -11.003906 4.101562 -10.984375 5.03125 -10.515625 C 5.96875 -10.046875 6.648438 -9.191406 7.078125 -7.953125 L 7.484375 -6.796875 L 1.828125 -4.859375 C 2.085938 -4.191406 2.46875 -3.734375 2.96875 -3.484375 C 3.476562 -3.234375 4.070312 -3.222656 4.75 -3.453125 C 5.28125 -3.628906 5.757812 -3.851562 6.1875 -4.125 C 6.625 -4.40625 7.054688 -4.75 7.484375 -5.15625 L 8.125 -3.296875 C 7.78125 -2.941406 7.390625 -2.632812 6.953125 -2.375 C 6.515625 -2.113281 5.957031 -1.867188 5.28125 -1.640625 Z M 5.28125 -1.640625 "/></g></g></g><g fill="#cc7a00" fill-opacity="1"><g transform="translate(56.384874, 30.164145)"><g><path d="M 4.6875 -2.921875 C 5.113281 -3.023438 5.613281 -3.242188 6.1875 -3.578125 L 6.609375 -1.734375 C 6.035156 -1.304688 5.300781 -0.992188 4.40625 -0.796875 C 3.425781 -0.578125 2.65625 -0.664062 2.09375 -1.0625 C 1.539062 -1.46875 1.15625 -2.171875 0.9375 -3.171875 L -0.03125 -7.53125 L -1.21875 -7.265625 L -1.453125 -8.296875 L -0.28125 -9.4375 L 0 -11.5 L 1.59375 -11.84375 L 2.03125 -9.921875 L 4.546875 -10.484375 L 4.953125 -8.640625 L 2.4375 -8.078125 L 3.40625 -3.71875 C 3.476562 -3.363281 3.628906 -3.125 3.859375 -3 C 4.085938 -2.882812 4.363281 -2.859375 4.6875 -2.921875 Z M 4.6875 -2.921875 "/></g></g></g><g fill="#cc7a00" fill-opacity="1"><g transform="translate(62.850792, 28.601354)"><g><path d="M 7.140625 -0.75 L 6.546875 -1.953125 L 6.484375 -1.9375 C 6.109375 -1.363281 5.707031 -0.945312 5.28125 -0.6875 C 4.851562 -0.4375 4.285156 -0.273438 3.578125 -0.203125 C 2.679688 -0.109375 1.957031 -0.289062 1.40625 -0.75 C 0.851562 -1.207031 0.53125 -1.898438 0.4375 -2.828125 C 0.332031 -3.804688 0.59375 -4.554688 1.21875 -5.078125 C 1.84375 -5.609375 2.84375 -5.972656 4.21875 -6.171875 L 5.828125 -6.390625 L 5.78125 -6.796875 C 5.675781 -7.722656 5.144531 -8.140625 4.1875 -8.046875 C 3.457031 -7.960938 2.617188 -7.648438 1.671875 -7.109375 L 0.671875 -8.71875 C 1.671875 -9.382812 2.8125 -9.785156 4.09375 -9.921875 C 5.332031 -10.054688 6.304688 -9.882812 7.015625 -9.40625 C 7.734375 -8.9375 8.148438 -8.15625 8.265625 -7.0625 L 8.90625 -0.9375 Z M 5.96875 -4.921875 L 5 -4.8125 C 4.269531 -4.707031 3.738281 -4.515625 3.40625 -4.234375 C 3.082031 -3.953125 2.945312 -3.566406 3 -3.078125 C 3.070312 -2.359375 3.515625 -2.039062 4.328125 -2.125 C 4.910156 -2.1875 5.359375 -2.40625 5.671875 -2.78125 C 5.984375 -3.15625 6.113281 -3.617188 6.0625 -4.171875 Z M 5.96875 -4.921875 "/></g></g></g><g fill="#cc7a00" fill-opacity="1"><g transform="translate(72.23307, 27.586076)"><g><path d="M 9.59375 -9.03125 L 9.5625 -7.75 L 8.109375 -7.40625 C 8.359375 -6.976562 8.472656 -6.507812 8.453125 -6 C 8.429688 -5.007812 8.070312 -4.242188 7.375 -3.703125 C 6.675781 -3.160156 5.710938 -2.90625 4.484375 -2.9375 L 4.015625 -2.984375 L 3.65625 -3.046875 C 3.382812 -2.835938 3.25 -2.613281 3.25 -2.375 C 3.238281 -2.007812 3.695312 -1.816406 4.625 -1.796875 L 6.1875 -1.765625 C 7.207031 -1.734375 7.976562 -1.492188 8.5 -1.046875 C 9.019531 -0.609375 9.269531 0.03125 9.25 0.875 C 9.226562 1.957031 8.757812 2.785156 7.84375 3.359375 C 6.925781 3.929688 5.625 4.195312 3.9375 4.15625 C 2.644531 4.125 1.660156 3.875 0.984375 3.40625 C 0.316406 2.945312 -0.00390625 2.3125 0.015625 1.5 C 0.0234375 0.945312 0.207031 0.488281 0.5625 0.125 C 0.925781 -0.238281 1.441406 -0.492188 2.109375 -0.640625 C 1.859375 -0.753906 1.640625 -0.9375 1.453125 -1.1875 C 1.265625 -1.445312 1.175781 -1.71875 1.1875 -2 C 1.195312 -2.351562 1.304688 -2.644531 1.515625 -2.875 C 1.722656 -3.101562 2.023438 -3.328125 2.421875 -3.546875 C 1.929688 -3.773438 1.550781 -4.125 1.28125 -4.59375 C 1.007812 -5.0625 0.882812 -5.609375 0.90625 -6.234375 C 0.925781 -7.242188 1.269531 -8.015625 1.9375 -8.546875 C 2.601562 -9.085938 3.546875 -9.34375 4.765625 -9.3125 C 5.015625 -9.300781 5.316406 -9.269531 5.671875 -9.21875 C 6.035156 -9.164062 6.265625 -9.128906 6.359375 -9.109375 Z M 2.203125 1.359375 C 2.191406 1.703125 2.347656 1.976562 2.671875 2.1875 C 3.003906 2.394531 3.472656 2.503906 4.078125 2.515625 C 4.972656 2.535156 5.679688 2.425781 6.203125 2.1875 C 6.722656 1.957031 6.988281 1.628906 7 1.203125 C 7.007812 0.859375 6.863281 0.613281 6.5625 0.46875 C 6.269531 0.320312 5.804688 0.242188 5.171875 0.234375 L 3.859375 0.203125 C 3.398438 0.191406 3.007812 0.289062 2.6875 0.5 C 2.375 0.707031 2.210938 0.992188 2.203125 1.359375 Z M 3.296875 -6.140625 C 3.285156 -5.640625 3.390625 -5.238281 3.609375 -4.9375 C 3.835938 -4.644531 4.1875 -4.492188 4.65625 -4.484375 C 5.125 -4.472656 5.46875 -4.609375 5.6875 -4.890625 C 5.914062 -5.179688 6.035156 -5.578125 6.046875 -6.078125 C 6.078125 -7.191406 5.640625 -7.757812 4.734375 -7.78125 C 3.804688 -7.800781 3.328125 -7.253906 3.296875 -6.140625 Z M 3.296875 -6.140625 "/></g></g></g><g fill="#cc7a00" fill-opacity="1"><g transform="translate(81.102207, 27.810709)"><g><path d="M 7.703125 -8.453125 C 8.046875 -8.398438 8.320312 -8.335938 8.53125 -8.265625 L 8.03125 -5.953125 C 7.832031 -6.035156 7.585938 -6.09375 7.296875 -6.125 C 6.492188 -6.238281 5.84375 -6.125 5.34375 -5.78125 C 4.84375 -5.4375 4.546875 -4.890625 4.453125 -4.140625 L 3.8125 0.515625 L 1.3125 0.1875 L 2.5625 -8.984375 L 4.453125 -8.734375 L 4.625 -7.125 L 4.75 -7.109375 C 5.09375 -7.585938 5.53125 -7.945312 6.0625 -8.1875 C 6.59375 -8.4375 7.140625 -8.523438 7.703125 -8.453125 Z M 7.703125 -8.453125 "/></g></g></g><g fill="#cc7a00" fill-opacity="1"><g transform="translate(88.030002, 28.640977)"><g><path d="M 6.953125 1.796875 L 6.796875 0.46875 L 6.75 0.453125 C 6.195312 0.859375 5.675781 1.101562 5.1875 1.1875 C 4.707031 1.28125 4.117188 1.238281 3.421875 1.0625 C 2.546875 0.84375 1.929688 0.421875 1.578125 -0.203125 C 1.222656 -0.828125 1.160156 -1.59375 1.390625 -2.5 C 1.640625 -3.445312 2.148438 -4.0625 2.921875 -4.34375 C 3.691406 -4.625 4.753906 -4.613281 6.109375 -4.3125 L 7.6875 -3.953125 L 7.78125 -4.359375 C 8.019531 -5.265625 7.675781 -5.835938 6.75 -6.078125 C 6.03125 -6.265625 5.128906 -6.265625 4.046875 -6.078125 L 3.671875 -7.9375 C 4.847656 -8.207031 6.0625 -8.179688 7.3125 -7.859375 C 8.507812 -7.554688 9.359375 -7.054688 9.859375 -6.359375 C 10.367188 -5.671875 10.484375 -4.796875 10.203125 -3.734375 L 8.671875 2.234375 Z M 7.3125 -2.53125 L 6.359375 -2.75 C 5.640625 -2.90625 5.078125 -2.910156 4.671875 -2.765625 C 4.265625 -2.617188 4 -2.304688 3.875 -1.828125 C 3.695312 -1.140625 4.007812 -0.695312 4.8125 -0.5 C 5.375 -0.351562 5.863281 -0.398438 6.28125 -0.640625 C 6.707031 -0.878906 6.988281 -1.265625 7.125 -1.796875 Z M 7.3125 -2.53125 "/></g></g></g><g fill="#cc7a00" fill-opacity="1"><g transform="translate(97.030064, 30.577058)"><g><path d="M 8.75 3.96875 L 6.4375 2.921875 L 8.671875 -2 C 8.953125 -2.601562 9.054688 -3.101562 8.984375 -3.5 C 8.921875 -3.894531 8.671875 -4.191406 8.234375 -4.390625 C 7.648438 -4.660156 7.125 -4.640625 6.65625 -4.328125 C 6.195312 -4.015625 5.742188 -3.359375 5.296875 -2.359375 L 3.5 1.59375 L 1.203125 0.546875 L 5.03125 -7.875 L 6.78125 -7.078125 L 6.59375 -5.859375 L 6.734375 -5.796875 C 7.128906 -6.078125 7.585938 -6.226562 8.109375 -6.25 C 8.640625 -6.28125 9.179688 -6.171875 9.734375 -5.921875 C 10.992188 -5.347656 11.660156 -4.550781 11.734375 -3.53125 L 11.9375 -3.4375 C 12.34375 -3.71875 12.8125 -3.867188 13.34375 -3.890625 C 13.875 -3.910156 14.421875 -3.789062 14.984375 -3.53125 C 15.929688 -3.101562 16.539062 -2.535156 16.8125 -1.828125 C 17.082031 -1.117188 16.972656 -0.222656 16.484375 0.859375 L 13.984375 6.34375 L 11.6875 5.3125 L 13.921875 0.390625 C 14.203125 -0.210938 14.304688 -0.710938 14.234375 -1.109375 C 14.171875 -1.515625 13.921875 -1.816406 13.484375 -2.015625 C 12.921875 -2.273438 12.410156 -2.265625 11.953125 -1.984375 C 11.492188 -1.703125 11.066406 -1.125 10.671875 -0.25 Z M 8.75 3.96875 "/></g></g></g></svg>