<svg xmlns="http://www.w3.org/2000/svg" xmlns:xlink="http://www.w3.org/1999/xlink" width="202" zoomAndPan="magnify" viewBox="0 0 151.5 146.249994" height="195" preserveAspectRatio="xMidYMid meet" version="1.0"><defs><g/></defs><path fill="#21264f" d="M 140.054688 45.03125 C 137.390625 41.53125 133.007812 40.308594 128.230469 41.691406 C 130.183594 38.285156 129.746094 34.089844 127.046875 31.039062 C 125.460938 29.242188 123.230469 28.039062 120.769531 27.648438 C 118.113281 27.234375 115.214844 27.757812 112.363281 29.167969 C 112.082031 25.972656 110.203125 23.183594 107.273438 21.640625 C 104.285156 20.066406 100.757812 20.066406 97.921875 21.601562 C 98.628906 15.773438 94.570312 10.601562 87.425781 8.324219 C 78.332031 5.429688 66.496094 8.054688 61.183594 18.601562 C 57.773438 12.585938 48.835938 11.949219 41.964844 14.46875 C 38.136719 15.875 34.925781 18.207031 32.925781 21.039062 C 30.683594 24.210938 29.964844 27.957031 30.839844 31.890625 C 22.453125 32.222656 16.277344 36.007812 13.863281 42.300781 C 11.457031 48.582031 13.238281 56.058594 18.292969 60.902344 C 24.117188 66.476562 32.902344 67.332031 42.453125 63.269531 C 42.480469 65.417969 43.996094 67.261719 46.503906 68.152344 C 50.015625 69.398438 55.21875 68.628906 58.574219 64.082031 C 60.667969 69.011719 68.167969 72.808594 76.351562 73 C 76.566406 73.003906 76.785156 73.007812 76.996094 73.007812 C 85.664062 73.007812 92.328125 68.9375 95.421875 61.757812 C 98.003906 65.96875 103.574219 68.265625 109.800781 67.632812 C 116.019531 67 120.949219 63.710938 122.449219 59.222656 C 131.078125 61.582031 137.707031 60.441406 140.667969 56.070312 C 142.824219 52.882812 142.574219 48.34375 140.054688 45.03125 Z M 140.054688 45.03125 " fill-opacity="1" fill-rule="nonzero"/><path fill="#21264f" d="M 36.945312 81.148438 L 36.308594 81.820312 C 34.035156 84.207031 27.679688 91.769531 28.257812 95.113281 C 28.371094 95.746094 28.710938 96.210938 29.269531 96.488281 C 29.554688 96.636719 29.847656 96.707031 30.136719 96.707031 C 30.425781 96.707031 30.710938 96.636719 31 96.492188 C 34.121094 94.941406 36.207031 85.050781 36.773438 82.058594 Z M 36.945312 81.148438 " fill-opacity="1" fill-rule="nonzero"/><path fill="#21264f" d="M 90.617188 95.289062 C 88.695312 98.109375 87.835938 100.195312 88.058594 101.496094 C 88.160156 102.078125 88.472656 102.503906 88.984375 102.761719 C 89.25 102.894531 89.515625 102.960938 89.78125 102.960938 C 90.046875 102.960938 90.3125 102.894531 90.574219 102.765625 C 93.414062 101.355469 95.304688 92.386719 95.816406 89.671875 L 95.992188 88.765625 L 95.355469 89.429688 C 94.15625 90.691406 92.199219 92.976562 90.617188 95.289062 Z M 90.617188 95.289062 " fill-opacity="1" fill-rule="nonzero"/><path fill="#21264f" d="M 19.171875 128.773438 C 19.273438 129.355469 19.585938 129.777344 20.101562 130.035156 C 20.363281 130.167969 20.632812 130.234375 20.898438 130.234375 C 21.164062 130.234375 21.425781 130.167969 21.691406 130.039062 C 24.53125 128.628906 26.421875 119.660156 26.933594 116.945312 L 27.105469 116.039062 L 26.46875 116.707031 C 24.410156 118.871094 18.644531 125.726562 19.171875 128.773438 Z M 19.171875 128.773438 " fill-opacity="1" fill-rule="nonzero"/><path fill="#21264f" d="M 132.851562 123.738281 C 130.929688 126.558594 130.066406 128.644531 130.292969 129.945312 C 130.394531 130.527344 130.707031 130.953125 131.21875 131.210938 C 131.480469 131.34375 131.75 131.410156 132.015625 131.410156 C 132.28125 131.410156 132.546875 131.34375 132.808594 131.214844 C 135.640625 129.808594 137.539062 120.835938 138.054688 118.121094 L 138.226562 117.210938 L 137.589844 117.882812 C 136.390625 119.136719 134.429688 121.425781 132.851562 123.738281 Z M 132.851562 123.738281 " fill-opacity="1" fill-rule="nonzero"/><path fill="#21264f" d="M 111.648438 99.257812 L 111.011719 99.925781 C 109.195312 101.832031 104.574219 107.335938 105.011719 109.867188 C 105.097656 110.363281 105.363281 110.722656 105.796875 110.941406 C 106.023438 111.054688 106.246094 111.109375 106.472656 111.109375 C 106.699219 111.109375 106.925781 111.054688 107.144531 110.945312 C 109.496094 109.777344 111.054688 102.398438 111.476562 100.164062 Z M 111.648438 99.257812 " fill-opacity="1" fill-rule="nonzero"/><path fill="#21264f" d="M 106.132812 85.746094 C 106.359375 85.859375 106.585938 85.914062 106.8125 85.914062 C 107.035156 85.914062 107.261719 85.859375 107.484375 85.75 C 109.832031 84.585938 111.390625 77.207031 111.8125 74.972656 L 111.988281 74.0625 L 111.347656 74.734375 C 109.53125 76.640625 104.910156 82.148438 105.347656 84.671875 C 105.4375 85.164062 105.699219 85.527344 106.132812 85.746094 Z M 106.132812 85.746094 " fill-opacity="1" fill-rule="nonzero"/><path fill="#21264f" d="M 86.574219 127.820312 C 86.660156 128.316406 86.925781 128.675781 87.363281 128.894531 C 87.585938 129.007812 87.8125 129.0625 88.039062 129.0625 C 88.265625 129.0625 88.488281 129.007812 88.710938 128.898438 C 91.058594 127.734375 92.621094 120.355469 93.042969 118.121094 L 93.214844 117.210938 L 92.574219 117.882812 C 90.757812 119.789062 86.136719 125.296875 86.574219 127.820312 Z M 86.574219 127.820312 " fill-opacity="1" fill-rule="nonzero"/><path fill="#21264f" d="M 71.761719 88.996094 L 71.125 89.667969 C 69.949219 90.902344 68.023438 93.152344 66.476562 95.417969 C 64.582031 98.183594 63.738281 100.238281 63.960938 101.515625 C 64.058594 102.085938 64.367188 102.507812 64.875 102.757812 C 65.132812 102.890625 65.398438 102.953125 65.660156 102.953125 C 65.921875 102.953125 66.183594 102.890625 66.441406 102.761719 C 69.230469 101.378906 71.085938 92.570312 71.59375 89.90625 Z M 71.761719 88.996094 " fill-opacity="1" fill-rule="nonzero"/><path fill="#21264f" d="M 119.050781 92.984375 C 119.136719 93.476562 119.402344 93.839844 119.839844 94.058594 C 120.0625 94.171875 120.289062 94.226562 120.515625 94.226562 C 120.742188 94.226562 120.964844 94.171875 121.1875 94.0625 C 123.535156 92.894531 125.097656 85.515625 125.519531 83.28125 L 125.691406 82.375 L 125.050781 83.042969 C 123.234375 84.949219 118.613281 90.457031 119.050781 92.984375 Z M 119.050781 92.984375 " fill-opacity="1" fill-rule="nonzero"/><path fill="#21264f" d="M 132.152344 106.027344 C 132.335938 106.121094 132.53125 106.167969 132.722656 106.167969 C 132.914062 106.167969 133.105469 106.121094 133.292969 106.027344 C 135.230469 105.066406 136.503906 99.035156 136.847656 97.207031 L 137.019531 96.300781 L 136.382812 96.96875 C 134.898438 98.527344 131.121094 103.035156 131.480469 105.117188 C 131.554688 105.527344 131.785156 105.84375 132.152344 106.027344 Z M 132.152344 106.027344 " fill-opacity="1" fill-rule="nonzero"/><path fill="#21264f" d="M 89.648438 77.253906 L 89.820312 76.34375 L 89.183594 77.011719 C 87.695312 78.574219 83.921875 83.078125 84.28125 85.160156 C 84.351562 85.570312 84.582031 85.886719 84.949219 86.070312 C 85.132812 86.164062 85.328125 86.210938 85.519531 86.210938 C 85.710938 86.210938 85.90625 86.164062 86.089844 86.070312 C 88.027344 85.117188 89.304688 79.078125 89.648438 77.253906 Z M 89.648438 77.253906 " fill-opacity="1" fill-rule="nonzero"/><path fill="#21264f" d="M 32.421875 138.035156 C 32.492188 138.445312 32.722656 138.761719 33.089844 138.945312 C 33.273438 139.039062 33.46875 139.085938 33.660156 139.085938 C 33.855469 139.085938 34.046875 139.039062 34.230469 138.949219 C 36.167969 137.988281 37.445312 131.953125 37.789062 130.125 L 37.960938 129.21875 L 37.324219 129.886719 C 35.839844 131.449219 32.058594 135.953125 32.421875 138.035156 Z M 32.421875 138.035156 " fill-opacity="1" fill-rule="nonzero"/><path fill="#21264f" d="M 72.6875 114.285156 C 72.757812 114.699219 72.992188 115.015625 73.359375 115.203125 C 73.550781 115.296875 73.742188 115.34375 73.9375 115.34375 C 74.132812 115.34375 74.324219 115.296875 74.515625 115.207031 C 76.464844 114.234375 77.746094 108.15625 78.09375 106.316406 L 78.265625 105.40625 L 77.628906 106.078125 C 76.132812 107.648438 72.324219 112.1875 72.6875 114.285156 Z M 72.6875 114.285156 " fill-opacity="1" fill-rule="nonzero"/><path fill="#21264f" d="M 134.996094 74.492188 C 135.066406 74.90625 135.296875 75.222656 135.664062 75.40625 C 135.851562 75.5 136.046875 75.546875 136.238281 75.546875 C 136.429688 75.546875 136.621094 75.5 136.808594 75.40625 C 138.738281 74.445312 140.015625 68.410156 140.363281 66.582031 L 140.535156 65.675781 L 139.894531 66.34375 C 138.414062 67.90625 134.636719 72.410156 134.996094 74.492188 Z M 134.996094 74.492188 " fill-opacity="1" fill-rule="nonzero"/><path fill="#21264f" d="M 108.242188 138.035156 C 108.3125 138.445312 108.546875 138.761719 108.910156 138.945312 C 109.097656 139.039062 109.292969 139.085938 109.484375 139.085938 C 109.675781 139.085938 109.867188 139.039062 110.054688 138.945312 C 111.988281 137.988281 113.265625 131.949219 113.613281 130.125 L 113.785156 129.214844 L 113.144531 129.882812 C 111.660156 131.449219 107.882812 135.953125 108.242188 138.035156 Z M 108.242188 138.035156 " fill-opacity="1" fill-rule="nonzero"/><path fill="#21264f" d="M 39.292969 114.316406 C 39.371094 114.769531 39.625 115.113281 40.023438 115.316406 C 40.230469 115.417969 40.441406 115.472656 40.652344 115.472656 C 40.863281 115.472656 41.070312 115.417969 41.277344 115.316406 C 43.433594 114.25 44.859375 107.5 45.246094 105.460938 L 45.417969 104.550781 L 44.777344 105.222656 C 43.113281 106.964844 38.886719 112 39.292969 114.316406 Z M 39.292969 114.316406 " fill-opacity="1" fill-rule="nonzero"/><path fill="#21264f" d="M 10.070312 83.433594 C 10.15625 83.9375 10.429688 84.308594 10.875 84.53125 C 11.105469 84.648438 11.335938 84.707031 11.566406 84.707031 C 11.796875 84.707031 12.027344 84.648438 12.257812 84.535156 C 14.667969 83.339844 16.273438 75.742188 16.707031 73.445312 L 16.878906 72.535156 L 16.242188 73.207031 C 14.371094 75.167969 9.621094 80.835938 10.070312 83.433594 Z M 10.070312 83.433594 " fill-opacity="1" fill-rule="nonzero"/><path fill="#21264f" d="M 9.574219 106.050781 C 9.660156 106.554688 9.933594 106.925781 10.378906 107.148438 C 10.609375 107.265625 10.839844 107.324219 11.070312 107.324219 C 11.300781 107.324219 11.527344 107.265625 11.757812 107.152344 C 14.160156 105.960938 15.765625 98.378906 16.203125 96.082031 L 16.375 95.171875 L 15.738281 95.839844 C 13.867188 97.800781 9.125 103.453125 9.574219 106.050781 Z M 9.574219 106.050781 " fill-opacity="1" fill-rule="nonzero"/><path fill="#21264f" d="M 49.996094 88.941406 C 50.085938 89.449219 50.355469 89.816406 50.804688 90.042969 C 51.03125 90.15625 51.261719 90.214844 51.492188 90.214844 C 51.722656 90.214844 51.953125 90.15625 52.179688 90.042969 C 54.589844 88.851562 56.191406 81.269531 56.628906 78.972656 L 56.800781 78.0625 L 56.160156 78.734375 C 54.292969 80.695312 49.546875 86.351562 49.996094 88.941406 Z M 49.996094 88.941406 " fill-opacity="1" fill-rule="nonzero"/><path fill="#21264f" d="M 69.636719 143.328125 C 69.722656 143.832031 69.996094 144.203125 70.4375 144.425781 C 70.667969 144.539062 70.898438 144.597656 71.128906 144.597656 C 71.359375 144.597656 71.589844 144.539062 71.816406 144.425781 C 74.230469 143.230469 75.828125 135.652344 76.257812 133.359375 L 76.433594 132.449219 L 75.796875 133.121094 C 73.929688 135.078125 69.183594 140.738281 69.636719 143.328125 Z M 69.636719 143.328125 " fill-opacity="1" fill-rule="nonzero"/><path fill="#21264f" d="M 49.851562 133.449219 C 49.941406 133.957031 50.210938 134.324219 50.65625 134.550781 C 50.886719 134.664062 51.117188 134.722656 51.34375 134.722656 C 51.574219 134.722656 51.804688 134.664062 52.035156 134.550781 C 54.441406 133.359375 56.046875 125.777344 56.480469 123.480469 L 56.65625 122.570312 L 56.015625 123.242188 C 54.148438 125.199219 49.402344 130.851562 49.851562 133.449219 Z M 49.851562 133.449219 " fill-opacity="1" fill-rule="nonzero"/><path fill="#7494af" d="M 140.097656 66.539062 C 139.5 69.683594 137.878906 76.214844 135.785156 75.160156 C 133.695312 74.109375 138.195312 68.535156 140.097656 66.539062 Z M 140.097656 66.539062 " fill-opacity="1" fill-rule="nonzero"/><path fill="#7494af" d="M 136.578125 97.15625 C 135.988281 100.304688 134.363281 106.832031 132.269531 105.78125 C 130.179688 104.734375 134.675781 99.15625 136.578125 97.15625 Z M 136.578125 97.15625 " fill-opacity="1" fill-rule="nonzero"/><path fill="#7494af" d="M 137.785156 118.070312 C 136.894531 122.773438 134.46875 132.539062 131.34375 130.96875 C 128.210938 129.394531 134.9375 121.058594 137.785156 118.070312 Z M 137.785156 118.070312 " fill-opacity="1" fill-rule="nonzero"/><path fill="#5c6f7f" d="M 31.1875 32.152344 C 26.917969 14.714844 55.230469 7.160156 61.199219 19.203125 C 70.300781 -0.00390625 100.207031 6.933594 97.574219 22.121094 C 103.390625 18.476562 111.796875 22.3125 112.125 29.597656 C 123.957031 23.410156 132.9375 34.394531 127.605469 42.175781 C 145.023438 36.226562 149.996094 66.667969 122.277344 58.882812 C 119.296875 68.730469 100.667969 70.902344 95.390625 61.136719 C 88.292969 78.914062 62.082031 73.394531 58.652344 63.507812 C 53.300781 71.382812 42.257812 68.730469 42.742188 62.847656 C 11.300781 76.640625 0.890625 33.023438 31.1875 32.152344 Z M 31.1875 32.152344 " fill-opacity="1" fill-rule="nonzero"/><path fill="#7494af" d="M 125.25 83.230469 C 124.519531 87.089844 122.527344 95.101562 119.960938 93.8125 C 117.398438 92.523438 122.914062 85.679688 125.25 83.230469 Z M 125.25 83.230469 " fill-opacity="1" fill-rule="nonzero"/><path fill="#7494af" d="M 113.347656 130.078125 C 112.75 133.222656 111.125 139.753906 109.035156 138.703125 C 106.941406 137.652344 111.441406 132.074219 113.347656 130.078125 Z M 113.347656 130.078125 " fill-opacity="1" fill-rule="nonzero"/><path fill="#7494af" d="M 111.546875 74.917969 C 110.816406 78.777344 108.824219 86.792969 106.257812 85.5 C 103.691406 84.210938 109.210938 77.375 111.546875 74.917969 Z M 111.546875 74.917969 " fill-opacity="1" fill-rule="nonzero"/><path fill="#7494af" d="M 111.207031 100.117188 C 110.480469 103.972656 108.484375 111.988281 105.921875 110.695312 C 103.351562 109.40625 108.871094 102.5625 111.207031 100.117188 Z M 111.207031 100.117188 " fill-opacity="1" fill-rule="nonzero"/><path fill="#7494af" d="M 95.550781 89.625 C 94.660156 94.324219 92.234375 104.089844 89.109375 102.515625 C 85.980469 100.945312 92.703125 92.609375 95.550781 89.625 Z M 95.550781 89.625 " fill-opacity="1" fill-rule="nonzero"/><path fill="#7494af" d="M 92.773438 118.070312 C 92.042969 121.929688 90.050781 129.941406 87.484375 128.652344 C 84.921875 127.363281 90.4375 120.519531 92.773438 118.070312 Z M 92.773438 118.070312 " fill-opacity="1" fill-rule="nonzero"/><path fill="#7494af" d="M 89.378906 77.203125 C 88.785156 80.347656 87.164062 86.878906 85.070312 85.828125 C 82.976562 84.777344 87.476562 79.199219 89.378906 77.203125 Z M 89.378906 77.203125 " fill-opacity="1" fill-rule="nonzero"/><path fill="#7494af" d="M 77.824219 106.261719 C 77.226562 109.433594 75.589844 116.015625 73.480469 114.957031 C 71.375 113.898438 75.910156 108.277344 77.824219 106.261719 Z M 77.824219 106.261719 " fill-opacity="1" fill-rule="nonzero"/><path fill="#7494af" d="M 75.992188 133.308594 C 75.246094 137.273438 73.199219 145.503906 70.5625 144.179688 C 67.925781 142.859375 73.59375 135.828125 75.992188 133.308594 Z M 75.992188 133.308594 " fill-opacity="1" fill-rule="nonzero"/><path fill="#7494af" d="M 71.324219 89.855469 C 70.453125 94.46875 68.070312 104.054688 64.996094 102.511719 C 61.925781 100.972656 68.53125 92.789062 71.324219 89.855469 Z M 71.324219 89.855469 " fill-opacity="1" fill-rule="nonzero"/><path fill="#7494af" d="M 56.359375 78.921875 C 55.609375 82.890625 53.5625 91.121094 50.925781 89.796875 C 48.285156 88.472656 53.957031 81.445312 56.359375 78.921875 Z M 56.359375 78.921875 " fill-opacity="1" fill-rule="nonzero"/><path fill="#7494af" d="M 56.214844 123.429688 C 55.460938 127.394531 53.414062 135.628906 50.777344 134.304688 C 48.140625 132.980469 53.8125 125.949219 56.214844 123.429688 Z M 56.214844 123.429688 " fill-opacity="1" fill-rule="nonzero"/><path fill="#7494af" d="M 44.972656 105.40625 C 44.308594 108.933594 42.488281 116.25 40.144531 115.070312 C 37.800781 113.894531 42.84375 107.648438 44.972656 105.40625 Z M 44.972656 105.40625 " fill-opacity="1" fill-rule="nonzero"/><path fill="#7494af" d="M 37.519531 130.078125 C 36.925781 133.222656 35.300781 139.753906 33.210938 138.703125 C 31.117188 137.652344 35.617188 132.074219 37.519531 130.078125 Z M 37.519531 130.078125 " fill-opacity="1" fill-rule="nonzero"/><path fill="#7494af" d="M 36.507812 82.007812 C 35.527344 87.199219 32.84375 97.980469 29.390625 96.246094 C 25.941406 94.511719 33.367188 85.304688 36.507812 82.007812 Z M 36.507812 82.007812 " fill-opacity="1" fill-rule="nonzero"/><path fill="#7494af" d="M 26.667969 116.898438 C 25.777344 121.601562 23.351562 131.363281 20.226562 129.792969 C 17.097656 128.226562 23.820312 119.882812 26.667969 116.898438 Z M 26.667969 116.898438 " fill-opacity="1" fill-rule="nonzero"/><path fill="#7494af" d="M 16.4375 73.394531 C 15.6875 77.367188 13.636719 85.617188 10.996094 84.289062 C 8.355469 82.960938 14.035156 75.917969 16.4375 73.394531 Z M 16.4375 73.394531 " fill-opacity="1" fill-rule="nonzero"/><path fill="#7494af" d="M 15.929688 96.03125 C 15.179688 99.996094 13.136719 108.230469 10.5 106.90625 C 7.859375 105.582031 13.535156 98.546875 15.929688 96.03125 Z M 15.929688 96.03125 " fill-opacity="1" fill-rule="nonzero"/><path fill="#21264f" d="M 140.054688 45.03125 C 137.390625 41.53125 133.007812 40.308594 128.230469 41.691406 C 130.183594 38.285156 129.746094 34.089844 127.046875 31.039062 C 125.460938 29.242188 123.230469 28.039062 120.769531 27.648438 C 118.113281 27.234375 115.214844 27.757812 112.363281 29.167969 C 112.082031 25.972656 110.203125 23.183594 107.273438 21.640625 C 104.285156 20.066406 100.757812 20.066406 97.921875 21.601562 C 98.628906 15.773438 94.570312 10.601562 87.425781 8.324219 C 78.332031 5.429688 66.496094 8.054688 61.183594 18.601562 C 57.773438 12.585938 48.835938 11.949219 41.964844 14.46875 C 38.136719 15.875 34.925781 18.207031 32.925781 21.039062 C 30.683594 24.210938 29.964844 27.957031 30.839844 31.890625 C 22.453125 32.222656 16.277344 36.007812 13.863281 42.300781 C 11.457031 48.582031 13.238281 56.058594 18.292969 60.902344 C 24.117188 66.476562 32.902344 67.332031 42.453125 63.269531 C 42.480469 65.417969 43.996094 67.261719 46.503906 68.152344 C 50.015625 69.398438 55.21875 68.628906 58.574219 64.082031 C 60.667969 69.011719 68.167969 72.808594 76.351562 73 C 76.566406 73.003906 76.785156 73.007812 76.996094 73.007812 C 85.664062 73.007812 92.328125 68.9375 95.421875 61.757812 C 98.003906 65.96875 103.574219 68.265625 109.800781 67.632812 C 116.019531 67 120.949219 63.710938 122.449219 59.222656 C 131.078125 61.582031 137.707031 60.441406 140.667969 56.070312 C 142.824219 52.882812 142.574219 48.34375 140.054688 45.03125 Z M 140.21875 55.761719 C 137.367188 59.96875 130.855469 61.011719 122.347656 58.621094 L 122.089844 58.550781 L 122.011719 58.804688 C 120.675781 63.214844 115.863281 66.464844 109.746094 67.085938 C 103.507812 67.722656 97.964844 65.332031 95.625 61.007812 L 95.347656 60.492188 L 95.132812 61.035156 C 90.902344 71.628906 80.601562 72.546875 76.367188 72.449219 C 68.265625 72.261719 60.597656 68.296875 58.90625 63.417969 L 58.730469 62.90625 L 58.425781 63.351562 C 55.25 68.027344 50.113281 68.847656 46.691406 67.632812 C 44.253906 66.769531 42.84375 64.941406 43.011719 62.867188 L 43.050781 62.410156 L 42.632812 62.59375 C 33.140625 66.757812 24.40625 65.996094 18.671875 60.503906 C 13.773438 55.8125 12.046875 48.574219 14.375 42.496094 C 16.707031 36.410156 22.714844 32.753906 30.882812 32.433594 C 28.535156 35.074219 28.097656 39.394531 29.179688 41.828125 L 29.675781 41.605469 C 28.65625 39.300781 29.09375 35.167969 31.375 32.699219 C 32.898438 31.042969 35.847656 29.46875 41.210938 31.371094 L 41.394531 30.855469 C 36.214844 29.019531 33.148438 30.296875 31.410156 31.890625 C 30.132812 26.328125 32.183594 18.636719 42.152344 14.980469 C 48.984375 12.472656 57.890625 13.144531 60.953125 19.324219 L 61.203125 19.828125 L 61.441406 19.320312 C 66.5 8.65625 78.257812 5.976562 87.261719 8.847656 C 94.363281 11.109375 98.304688 16.300781 97.300781 22.074219 L 97.195312 22.679688 L 97.714844 22.355469 C 100.457031 20.636719 104.023438 20.550781 107.019531 22.128906 C 109.902344 23.644531 111.703125 26.445312 111.847656 29.613281 L 111.867188 30.039062 L 112.246094 29.84375 C 116.351562 27.695312 122.585938 26.816406 126.640625 31.398438 C 129.320312 34.433594 129.628906 38.65625 127.429688 41.941406 C 126.5 40.980469 125.160156 40.300781 123.71875 40.144531 C 122.285156 39.984375 119.621094 40.226562 117.4375 43.464844 C 116.652344 41.675781 114.660156 41.082031 112.894531 41.3125 C 111.195312 41.535156 109.371094 42.597656 109.371094 44.402344 L 109.917969 44.402344 C 109.917969 42.929688 111.5 42.050781 112.96875 41.855469 C 114.660156 41.632812 116.597656 42.257812 117.101562 44.15625 L 117.269531 44.773438 L 117.597656 44.226562 C 119.679688 40.792969 122.285156 40.535156 123.65625 40.6875 C 124.996094 40.835938 126.261719 41.5 127.117188 42.414062 L 126.914062 42.707031 L 127.265625 42.589844 C 127.601562 42.984375 127.859375 43.417969 128.015625 43.878906 C 128.378906 44.96875 128.101562 46.027344 127.226562 46.855469 L 127.601562 47.253906 C 128.636719 46.269531 128.96875 45.007812 128.53125 43.707031 C 128.375 43.242188 128.132812 42.800781 127.824219 42.402344 C 132.59375 40.820312 136.992188 41.925781 139.621094 45.375 C 142 48.492188 142.246094 52.765625 140.21875 55.761719 Z M 140.21875 55.761719 " fill-opacity="1" fill-rule="nonzero"/><path fill="#21264f" d="M 36.945312 81.148438 L 36.308594 81.820312 C 34.035156 84.207031 27.679688 91.769531 28.257812 95.113281 C 28.371094 95.746094 28.710938 96.210938 29.269531 96.488281 C 29.554688 96.636719 29.847656 96.707031 30.136719 96.707031 C 30.425781 96.707031 30.710938 96.636719 31 96.492188 C 34.121094 94.941406 36.207031 85.050781 36.773438 82.058594 Z M 30.757812 96 C 30.339844 96.210938 29.929688 96.207031 29.515625 95.996094 C 29.113281 95.796875 28.882812 95.476562 28.800781 95.015625 C 28.332031 92.335938 33.128906 86.121094 36.054688 82.894531 C 34.347656 91.449219 32.214844 95.277344 30.757812 96 Z M 30.757812 96 " fill-opacity="1" fill-rule="nonzero"/><path fill="#21264f" d="M 90.617188 95.289062 C 88.695312 98.109375 87.835938 100.195312 88.058594 101.496094 C 88.160156 102.078125 88.472656 102.503906 88.984375 102.761719 C 89.25 102.894531 89.515625 102.960938 89.78125 102.960938 C 90.046875 102.960938 90.3125 102.894531 90.574219 102.765625 C 93.414062 101.355469 95.304688 92.386719 95.816406 89.671875 L 95.992188 88.765625 L 95.355469 89.429688 C 94.15625 90.691406 92.199219 92.976562 90.617188 95.289062 Z M 90.332031 102.273438 C 89.957031 102.457031 89.597656 102.457031 89.230469 102.269531 C 88.871094 102.089844 88.667969 101.804688 88.597656 101.398438 C 88.179688 99 92.445312 93.449219 95.097656 90.511719 C 94.074219 95.535156 92.285156 101.304688 90.332031 102.273438 Z M 90.332031 102.273438 " fill-opacity="1" fill-rule="nonzero"/><path fill="#21264f" d="M 19.171875 128.773438 C 19.273438 129.355469 19.585938 129.777344 20.101562 130.035156 C 20.363281 130.167969 20.632812 130.234375 20.898438 130.234375 C 21.164062 130.234375 21.425781 130.167969 21.691406 130.039062 C 24.53125 128.628906 26.421875 119.660156 26.933594 116.945312 L 27.105469 116.039062 L 26.46875 116.707031 C 24.410156 118.871094 18.644531 125.726562 19.171875 128.773438 Z M 21.449219 129.550781 C 21.074219 129.734375 20.71875 129.734375 20.347656 129.546875 C 19.992188 129.367188 19.785156 129.085938 19.714844 128.679688 C 19.296875 126.273438 23.558594 120.726562 26.214844 117.789062 C 25.191406 122.808594 23.402344 128.578125 21.449219 129.550781 Z M 21.449219 129.550781 " fill-opacity="1" fill-rule="nonzero"/><path fill="#21264f" d="M 132.851562 123.738281 C 130.929688 126.558594 130.066406 128.644531 130.292969 129.945312 C 130.394531 130.527344 130.707031 130.953125 131.21875 131.210938 C 131.480469 131.34375 131.75 131.410156 132.015625 131.410156 C 132.28125 131.410156 132.546875 131.34375 132.808594 131.214844 C 135.640625 129.808594 137.539062 120.835938 138.054688 118.121094 L 138.226562 117.210938 L 137.589844 117.882812 C 136.390625 119.136719 134.429688 121.425781 132.851562 123.738281 Z M 132.566406 130.722656 C 132.191406 130.90625 131.828125 130.90625 131.460938 130.71875 C 131.105469 130.542969 130.898438 130.253906 130.828125 129.847656 C 130.410156 127.445312 134.675781 121.898438 137.332031 118.957031 C 136.269531 124.179688 134.519531 129.753906 132.566406 130.722656 Z M 132.566406 130.722656 " fill-opacity="1" fill-rule="nonzero"/><path fill="#21264f" d="M 111.648438 99.257812 L 111.011719 99.925781 C 109.195312 101.832031 104.574219 107.335938 105.011719 109.867188 C 105.097656 110.363281 105.363281 110.722656 105.796875 110.941406 C 106.023438 111.054688 106.246094 111.109375 106.472656 111.109375 C 106.699219 111.109375 106.925781 111.054688 107.144531 110.945312 C 109.496094 109.777344 111.054688 102.398438 111.476562 100.164062 Z M 106.90625 110.453125 C 106.613281 110.601562 106.332031 110.597656 106.042969 110.453125 C 105.765625 110.316406 105.605469 110.09375 105.550781 109.777344 C 105.21875 107.855469 108.574219 103.453125 110.753906 101.015625 C 109.90625 105.082031 108.46875 109.675781 106.90625 110.453125 Z M 106.90625 110.453125 " fill-opacity="1" fill-rule="nonzero"/><path fill="#21264f" d="M 106.132812 85.746094 C 106.359375 85.859375 106.585938 85.914062 106.8125 85.914062 C 107.035156 85.914062 107.261719 85.859375 107.484375 85.75 C 109.832031 84.585938 111.390625 77.207031 111.8125 74.972656 L 111.988281 74.0625 L 111.347656 74.734375 C 109.53125 76.640625 104.910156 82.148438 105.347656 84.671875 C 105.4375 85.164062 105.699219 85.527344 106.132812 85.746094 Z M 111.089844 75.820312 C 110.246094 79.886719 108.808594 84.484375 107.242188 85.257812 C 106.953125 85.402344 106.667969 85.402344 106.382812 85.257812 C 106.105469 85.117188 105.941406 84.898438 105.886719 84.578125 C 105.554688 82.664062 108.910156 78.257812 111.089844 75.820312 Z M 111.089844 75.820312 " fill-opacity="1" fill-rule="nonzero"/><path fill="#21264f" d="M 86.574219 127.820312 C 86.660156 128.316406 86.925781 128.675781 87.363281 128.894531 C 87.585938 129.007812 87.8125 129.0625 88.039062 129.0625 C 88.265625 129.0625 88.488281 129.007812 88.710938 128.898438 C 91.058594 127.734375 92.621094 120.355469 93.042969 118.121094 L 93.214844 117.210938 L 92.574219 117.882812 C 90.757812 119.789062 86.136719 125.296875 86.574219 127.820312 Z M 88.46875 128.40625 C 88.179688 128.550781 87.898438 128.550781 87.609375 128.40625 C 87.332031 128.265625 87.171875 128.046875 87.117188 127.726562 C 86.785156 125.8125 90.140625 121.40625 92.316406 118.96875 C 91.472656 123.035156 90.035156 127.632812 88.46875 128.40625 Z M 88.46875 128.40625 " fill-opacity="1" fill-rule="nonzero"/><path fill="#21264f" d="M 71.761719 88.996094 L 71.125 89.667969 C 69.949219 90.902344 68.023438 93.152344 66.476562 95.417969 C 64.582031 98.183594 63.738281 100.238281 63.960938 101.515625 C 64.058594 102.085938 64.367188 102.507812 64.875 102.757812 C 65.132812 102.890625 65.398438 102.953125 65.660156 102.953125 C 65.921875 102.953125 66.183594 102.890625 66.441406 102.761719 C 69.230469 101.378906 71.085938 92.570312 71.59375 89.90625 Z M 66.199219 102.269531 C 65.832031 102.453125 65.480469 102.453125 65.117188 102.265625 C 64.769531 102.09375 64.566406 101.8125 64.5 101.417969 C 64.089844 99.070312 68.261719 93.636719 70.867188 90.746094 C 69.863281 95.671875 68.113281 101.320312 66.199219 102.269531 Z M 66.199219 102.269531 " fill-opacity="1" fill-rule="nonzero"/><path fill="#21264f" d="M 119.050781 92.984375 C 119.136719 93.476562 119.402344 93.839844 119.839844 94.058594 C 120.0625 94.171875 120.289062 94.226562 120.515625 94.226562 C 120.742188 94.226562 120.964844 94.171875 121.1875 94.0625 C 123.535156 92.894531 125.097656 85.515625 125.519531 83.28125 L 125.691406 82.375 L 125.050781 83.042969 C 123.234375 84.949219 118.613281 90.457031 119.050781 92.984375 Z M 120.945312 93.570312 C 120.65625 93.714844 120.375 93.710938 120.085938 93.570312 C 119.808594 93.429688 119.648438 93.210938 119.59375 92.890625 C 119.261719 90.976562 122.617188 86.570312 124.792969 84.132812 C 123.949219 88.199219 122.511719 92.792969 120.945312 93.570312 Z M 120.945312 93.570312 " fill-opacity="1" fill-rule="nonzero"/><path fill="#21264f" d="M 132.152344 106.027344 C 132.335938 106.121094 132.53125 106.167969 132.722656 106.167969 C 132.914062 106.167969 133.105469 106.121094 133.292969 106.027344 C 135.230469 105.066406 136.503906 99.035156 136.847656 97.207031 L 137.019531 96.300781 L 136.382812 96.96875 C 134.898438 98.527344 131.121094 103.035156 131.480469 105.117188 C 131.554688 105.527344 131.785156 105.84375 132.152344 106.027344 Z M 133.65625 101.207031 C 134.445312 100.054688 135.375 98.914062 136.121094 98.066406 C 135.429688 101.324219 134.289062 104.925781 133.050781 105.539062 C 132.828125 105.652344 132.621094 105.648438 132.394531 105.539062 C 132.179688 105.433594 132.0625 105.269531 132.019531 105.023438 C 131.894531 104.296875 132.472656 102.941406 133.65625 101.207031 Z M 133.65625 101.207031 " fill-opacity="1" fill-rule="nonzero"/><path fill="#21264f" d="M 89.648438 77.253906 L 89.820312 76.34375 L 89.183594 77.011719 C 87.695312 78.574219 83.921875 83.078125 84.28125 85.160156 C 84.351562 85.570312 84.582031 85.886719 84.949219 86.070312 C 85.132812 86.164062 85.328125 86.210938 85.519531 86.210938 C 85.710938 86.210938 85.90625 86.164062 86.089844 86.070312 C 88.027344 85.117188 89.304688 79.078125 89.648438 77.253906 Z M 85.851562 85.582031 C 85.625 85.691406 85.414062 85.691406 85.191406 85.582031 C 84.976562 85.476562 84.859375 85.308594 84.816406 85.066406 C 84.691406 84.335938 85.273438 82.984375 86.457031 81.25 C 87.242188 80.097656 88.171875 78.957031 88.917969 78.109375 C 88.230469 81.367188 87.085938 84.96875 85.851562 85.582031 Z M 85.851562 85.582031 " fill-opacity="1" fill-rule="nonzero"/><path fill="#21264f" d="M 32.421875 138.035156 C 32.492188 138.445312 32.722656 138.761719 33.089844 138.945312 C 33.273438 139.039062 33.46875 139.085938 33.660156 139.085938 C 33.855469 139.085938 34.046875 139.039062 34.230469 138.949219 C 36.167969 137.988281 37.445312 131.953125 37.789062 130.125 L 37.960938 129.21875 L 37.324219 129.886719 C 35.839844 131.449219 32.058594 135.953125 32.421875 138.035156 Z M 33.992188 138.460938 C 33.765625 138.570312 33.558594 138.570312 33.332031 138.460938 C 33.117188 138.351562 33 138.1875 32.957031 137.941406 C 32.695312 136.433594 35.289062 132.992188 37.058594 130.988281 C 36.371094 134.242188 35.226562 137.847656 33.992188 138.460938 Z M 33.992188 138.460938 " fill-opacity="1" fill-rule="nonzero"/><path fill="#21264f" d="M 72.6875 114.285156 C 72.757812 114.699219 72.992188 115.015625 73.359375 115.203125 C 73.550781 115.296875 73.742188 115.34375 73.9375 115.34375 C 74.132812 115.34375 74.324219 115.296875 74.515625 115.207031 C 76.464844 114.234375 77.746094 108.15625 78.09375 106.316406 L 78.265625 105.40625 L 77.628906 106.078125 C 76.132812 107.648438 72.324219 112.1875 72.6875 114.285156 Z M 74.269531 114.710938 C 74.042969 114.824219 73.832031 114.824219 73.605469 114.710938 C 73.386719 114.601562 73.269531 114.4375 73.226562 114.1875 C 72.960938 112.667969 75.582031 109.1875 77.363281 107.167969 C 76.671875 110.453125 75.519531 114.09375 74.269531 114.710938 Z M 74.269531 114.710938 " fill-opacity="1" fill-rule="nonzero"/><path fill="#21264f" d="M 134.996094 74.492188 C 135.066406 74.90625 135.296875 75.222656 135.664062 75.40625 C 135.851562 75.5 136.046875 75.546875 136.238281 75.546875 C 136.429688 75.546875 136.621094 75.5 136.808594 75.40625 C 138.738281 74.445312 140.015625 68.410156 140.363281 66.582031 L 140.535156 65.675781 L 139.894531 66.34375 C 138.414062 67.90625 134.636719 72.410156 134.996094 74.492188 Z M 136.566406 74.917969 C 136.339844 75.027344 136.128906 75.027344 135.910156 74.917969 C 135.695312 74.808594 135.578125 74.644531 135.53125 74.398438 C 135.40625 73.671875 135.992188 72.316406 137.171875 70.585938 C 137.957031 69.433594 138.886719 68.292969 139.632812 67.445312 C 138.945312 70.703125 137.800781 74.304688 136.566406 74.917969 Z M 136.566406 74.917969 " fill-opacity="1" fill-rule="nonzero"/><path fill="#21264f" d="M 108.242188 138.035156 C 108.3125 138.445312 108.546875 138.761719 108.910156 138.945312 C 109.097656 139.039062 109.292969 139.085938 109.484375 139.085938 C 109.675781 139.085938 109.867188 139.039062 110.054688 138.945312 C 111.988281 137.988281 113.265625 131.949219 113.613281 130.125 L 113.785156 129.214844 L 113.144531 129.882812 C 111.660156 131.449219 107.882812 135.953125 108.242188 138.035156 Z M 109.8125 138.460938 C 109.589844 138.570312 109.378906 138.570312 109.15625 138.460938 C 108.941406 138.351562 108.824219 138.1875 108.78125 137.941406 C 108.515625 136.433594 111.113281 132.992188 112.882812 130.988281 C 112.195312 134.242188 111.050781 137.847656 109.8125 138.460938 Z M 109.8125 138.460938 " fill-opacity="1" fill-rule="nonzero"/><path fill="#21264f" d="M 39.292969 114.316406 C 39.371094 114.769531 39.625 115.113281 40.023438 115.316406 C 40.230469 115.417969 40.441406 115.472656 40.652344 115.472656 C 40.863281 115.472656 41.070312 115.417969 41.277344 115.316406 C 43.433594 114.25 44.859375 107.5 45.246094 105.460938 L 45.417969 104.550781 L 44.777344 105.222656 C 43.113281 106.964844 38.886719 112 39.292969 114.316406 Z M 41.035156 114.828125 C 40.773438 114.957031 40.527344 114.957031 40.265625 114.824219 C 40.019531 114.699219 39.878906 114.511719 39.828125 114.222656 C 39.53125 112.5 42.527344 108.546875 44.515625 106.3125 C 43.746094 110 42.445312 114.128906 41.035156 114.828125 Z M 41.035156 114.828125 " fill-opacity="1" fill-rule="nonzero"/><path fill="#21264f" d="M 10.070312 83.433594 C 10.15625 83.9375 10.429688 84.308594 10.875 84.53125 C 11.105469 84.648438 11.335938 84.707031 11.566406 84.707031 C 11.796875 84.707031 12.027344 84.648438 12.257812 84.535156 C 14.667969 83.339844 16.273438 75.742188 16.707031 73.445312 L 16.878906 72.535156 L 16.242188 73.207031 C 14.371094 75.167969 9.621094 80.835938 10.070312 83.433594 Z M 12.011719 84.046875 C 11.710938 84.195312 11.421875 84.195312 11.117188 84.042969 C 10.832031 83.898438 10.664062 83.671875 10.605469 83.339844 C 10.261719 81.359375 13.738281 76.800781 15.980469 74.296875 C 15.113281 78.492188 13.625 83.246094 12.011719 84.046875 Z M 12.011719 84.046875 " fill-opacity="1" fill-rule="nonzero"/><path fill="#21264f" d="M 9.574219 106.050781 C 9.660156 106.554688 9.933594 106.925781 10.378906 107.148438 C 10.609375 107.265625 10.839844 107.324219 11.070312 107.324219 C 11.300781 107.324219 11.527344 107.265625 11.757812 107.152344 C 14.160156 105.960938 15.765625 98.378906 16.203125 96.082031 L 16.375 95.171875 L 15.738281 95.839844 C 13.867188 97.800781 9.125 103.453125 9.574219 106.050781 Z M 11.511719 106.664062 C 11.210938 106.816406 10.921875 106.8125 10.621094 106.660156 C 10.335938 106.519531 10.167969 106.285156 10.109375 105.957031 C 9.765625 103.976562 13.238281 99.425781 15.476562 96.929688 C 14.609375 101.117188 13.125 105.863281 11.511719 106.664062 Z M 11.511719 106.664062 " fill-opacity="1" fill-rule="nonzero"/><path fill="#21264f" d="M 49.996094 88.941406 C 50.085938 89.449219 50.355469 89.816406 50.804688 90.042969 C 51.03125 90.15625 51.261719 90.214844 51.492188 90.214844 C 51.722656 90.214844 51.953125 90.15625 52.179688 90.042969 C 54.589844 88.851562 56.191406 81.269531 56.628906 78.972656 L 56.800781 78.0625 L 56.160156 78.734375 C 54.292969 80.695312 49.546875 86.351562 49.996094 88.941406 Z M 51.941406 89.554688 C 51.640625 89.703125 51.347656 89.703125 51.050781 89.550781 C 50.761719 89.410156 50.59375 89.179688 50.535156 88.847656 C 50.195312 86.875 53.664062 82.320312 55.902344 79.820312 C 55.03125 84.011719 53.550781 88.753906 51.941406 89.554688 Z M 51.941406 89.554688 " fill-opacity="1" fill-rule="nonzero"/><path fill="#21264f" d="M 69.636719 143.328125 C 69.722656 143.832031 69.996094 144.203125 70.4375 144.425781 C 70.667969 144.539062 70.898438 144.597656 71.128906 144.597656 C 71.359375 144.597656 71.589844 144.539062 71.816406 144.425781 C 74.230469 143.230469 75.828125 135.652344 76.257812 133.359375 L 76.433594 132.449219 L 75.796875 133.121094 C 73.929688 135.078125 69.183594 140.738281 69.636719 143.328125 Z M 71.574219 143.9375 C 71.273438 144.085938 70.984375 144.085938 70.683594 143.9375 C 70.394531 143.796875 70.230469 143.5625 70.171875 143.238281 C 69.828125 141.261719 73.300781 136.710938 75.535156 134.210938 C 74.671875 138.394531 73.191406 143.136719 71.574219 143.9375 Z M 71.574219 143.9375 " fill-opacity="1" fill-rule="nonzero"/><path fill="#21264f" d="M 49.851562 133.449219 C 49.941406 133.957031 50.210938 134.324219 50.65625 134.550781 C 50.886719 134.664062 51.117188 134.722656 51.34375 134.722656 C 51.574219 134.722656 51.804688 134.664062 52.035156 134.550781 C 54.441406 133.359375 56.046875 125.777344 56.480469 123.480469 L 56.65625 122.570312 L 56.015625 123.242188 C 54.148438 125.199219 49.402344 130.851562 49.851562 133.449219 Z M 51.792969 134.0625 C 51.492188 134.210938 51.199219 134.210938 50.902344 134.058594 C 50.613281 133.914062 50.445312 133.683594 50.390625 133.355469 C 50.050781 131.375 53.519531 126.824219 55.757812 124.328125 C 54.886719 128.515625 53.402344 133.261719 51.792969 134.0625 Z M 51.792969 134.0625 " fill-opacity="1" fill-rule="nonzero"/><path fill="#21264f" d="M 92.875 25.527344 C 89.625 24.40625 85.480469 25.601562 83.820312 28.132812 L 84.273438 28.433594 C 85.8125 26.09375 89.667969 25 92.695312 26.042969 C 94.160156 26.546875 96.570312 27.984375 96.253906 31.972656 L 96.800781 32.019531 C 97.050781 28.835938 95.617188 26.46875 92.875 25.527344 Z M 92.875 25.527344 " fill-opacity="1" fill-rule="nonzero"/><path fill="#08264d" d="M 29.941406 31.90625 L 120.921875 31.90625 C 122.902344 31.90625 124.804688 32.695312 126.207031 34.097656 C 127.609375 35.496094 128.394531 37.398438 128.394531 39.382812 L 128.394531 54.328125 C 128.394531 56.3125 127.609375 58.214844 126.207031 59.613281 C 124.804688 61.015625 122.902344 61.804688 120.921875 61.804688 L 29.941406 61.804688 C 25.8125 61.804688 22.46875 58.457031 22.46875 54.328125 L 22.46875 39.382812 C 22.46875 35.253906 25.8125 31.90625 29.941406 31.90625 Z M 29.941406 31.90625 " fill-opacity="1" fill-rule="nonzero"/><g fill="#dce7f5" fill-opacity="1"><g transform="translate(29.232899, 53.197866)"><g><path d="M 4.078125 -6.71875 L 4.90625 -6.71875 C 5.707031 -6.71875 6.300781 -6.847656 6.6875 -7.109375 C 7.070312 -7.378906 7.265625 -7.804688 7.265625 -8.390625 C 7.265625 -8.960938 7.066406 -9.367188 6.671875 -9.609375 C 6.285156 -9.847656 5.679688 -9.96875 4.859375 -9.96875 L 4.078125 -9.96875 Z M 4.078125 -4.625 L 4.078125 0 L 1.515625 0 L 1.515625 -12.0625 L 5.03125 -12.0625 C 6.675781 -12.0625 7.890625 -11.765625 8.671875 -11.171875 C 9.460938 -10.578125 9.859375 -9.671875 9.859375 -8.453125 C 9.859375 -7.742188 9.660156 -7.113281 9.265625 -6.5625 C 8.878906 -6.007812 8.328125 -5.578125 7.609375 -5.265625 C 9.421875 -2.546875 10.601562 -0.789062 11.15625 0 L 8.328125 0 L 5.4375 -4.625 Z M 4.078125 -4.625 "/></g></g></g><g fill="#dce7f5" fill-opacity="1"><g transform="translate(40.393165, 53.197866)"><g><path d="M 7.1875 0 L 6.6875 -1.25 L 6.625 -1.25 C 6.207031 -0.71875 5.769531 -0.347656 5.3125 -0.140625 C 4.863281 0.0664062 4.28125 0.171875 3.5625 0.171875 C 2.675781 0.171875 1.976562 -0.0820312 1.46875 -0.59375 C 0.957031 -1.101562 0.703125 -1.820312 0.703125 -2.75 C 0.703125 -3.738281 1.046875 -4.460938 1.734375 -4.921875 C 2.421875 -5.390625 3.457031 -5.648438 4.84375 -5.703125 L 6.4375 -5.75 L 6.4375 -6.15625 C 6.4375 -7.082031 5.957031 -7.546875 5 -7.546875 C 4.257812 -7.546875 3.394531 -7.328125 2.40625 -6.890625 L 1.5625 -8.578125 C 2.625 -9.140625 3.804688 -9.421875 5.109375 -9.421875 C 6.335938 -9.421875 7.28125 -9.148438 7.9375 -8.609375 C 8.601562 -8.066406 8.9375 -7.25 8.9375 -6.15625 L 8.9375 0 Z M 6.4375 -4.28125 L 5.46875 -4.25 C 4.726562 -4.21875 4.179688 -4.082031 3.828125 -3.84375 C 3.472656 -3.601562 3.296875 -3.234375 3.296875 -2.734375 C 3.296875 -2.023438 3.703125 -1.671875 4.515625 -1.671875 C 5.097656 -1.671875 5.5625 -1.835938 5.90625 -2.171875 C 6.257812 -2.515625 6.4375 -2.960938 6.4375 -3.515625 Z M 6.4375 -4.28125 "/></g></g></g><g fill="#dce7f5" fill-opacity="1"><g transform="translate(50.604148, 53.197866)"><g><path d="M 1.21875 -11.609375 C 1.21875 -12.429688 1.671875 -12.84375 2.578125 -12.84375 C 3.492188 -12.84375 3.953125 -12.429688 3.953125 -11.609375 C 3.953125 -11.222656 3.835938 -10.921875 3.609375 -10.703125 C 3.378906 -10.484375 3.035156 -10.375 2.578125 -10.375 C 1.671875 -10.375 1.21875 -10.785156 1.21875 -11.609375 Z M 3.84375 0 L 1.328125 0 L 1.328125 -9.234375 L 3.84375 -9.234375 Z M 3.84375 0 "/></g></g></g><g fill="#dce7f5" fill-opacity="1"><g transform="translate(55.763294, 53.197866)"><g><path d="M 9.84375 0 L 7.328125 0 L 7.328125 -5.390625 C 7.328125 -6.054688 7.207031 -6.554688 6.96875 -6.890625 C 6.726562 -7.222656 6.351562 -7.390625 5.84375 -7.390625 C 5.132812 -7.390625 4.625 -7.15625 4.3125 -6.6875 C 4 -6.21875 3.84375 -5.4375 3.84375 -4.34375 L 3.84375 0 L 1.328125 0 L 1.328125 -9.234375 L 3.25 -9.234375 L 3.578125 -8.046875 L 3.71875 -8.046875 C 4 -8.492188 4.382812 -8.832031 4.875 -9.0625 C 5.375 -9.289062 5.9375 -9.40625 6.5625 -9.40625 C 7.632812 -9.40625 8.445312 -9.113281 9 -8.53125 C 9.5625 -7.945312 9.84375 -7.109375 9.84375 -6.015625 Z M 9.84375 0 "/></g></g></g><g fill="#dce7f5" fill-opacity="1"><g transform="translate(66.874032, 53.197866)"><g><path d="M 0 -9.234375 L 2.75 -9.234375 L 4.5 -4.03125 C 4.644531 -3.582031 4.742188 -3.050781 4.796875 -2.4375 L 4.859375 -2.4375 C 4.910156 -3 5.023438 -3.53125 5.203125 -4.03125 L 6.921875 -9.234375 L 9.609375 -9.234375 L 5.71875 1.1875 C 5.351562 2.144531 4.835938 2.863281 4.171875 3.34375 C 3.515625 3.820312 2.742188 4.0625 1.859375 4.0625 C 1.421875 4.0625 0.992188 4.015625 0.578125 3.921875 L 0.578125 1.921875 C 0.878906 1.992188 1.207031 2.03125 1.5625 2.03125 C 2.007812 2.03125 2.398438 1.894531 2.734375 1.625 C 3.066406 1.351562 3.328125 0.941406 3.515625 0.390625 L 3.671875 -0.0625 Z M 0 -9.234375 "/></g></g></g><g fill="#dce7f5" fill-opacity="1"><g transform="translate(76.490681, 53.197866)"><g/></g></g><g fill="#dce7f5" fill-opacity="1"><g transform="translate(80.882147, 53.197866)"><g><path d="M 11.53125 -6.15625 C 11.53125 -4.164062 10.960938 -2.640625 9.828125 -1.578125 C 8.703125 -0.523438 7.070312 0 4.9375 0 L 1.515625 0 L 1.515625 -12.0625 L 5.3125 -12.0625 C 7.28125 -12.0625 8.804688 -11.539062 9.890625 -10.5 C 10.984375 -9.46875 11.53125 -8.019531 11.53125 -6.15625 Z M 8.875 -6.078125 C 8.875 -8.671875 7.726562 -9.96875 5.4375 -9.96875 L 4.078125 -9.96875 L 4.078125 -2.109375 L 5.171875 -2.109375 C 7.640625 -2.109375 8.875 -3.429688 8.875 -6.078125 Z M 8.875 -6.078125 "/></g></g></g><g fill="#dce7f5" fill-opacity="1"><g transform="translate(93.396172, 53.197866)"><g><path d="M 7.1875 0 L 6.6875 -1.25 L 6.625 -1.25 C 6.207031 -0.71875 5.769531 -0.347656 5.3125 -0.140625 C 4.863281 0.0664062 4.28125 0.171875 3.5625 0.171875 C 2.675781 0.171875 1.976562 -0.0820312 1.46875 -0.59375 C 0.957031 -1.101562 0.703125 -1.820312 0.703125 -2.75 C 0.703125 -3.738281 1.046875 -4.460938 1.734375 -4.921875 C 2.421875 -5.390625 3.457031 -5.648438 4.84375 -5.703125 L 6.4375 -5.75 L 6.4375 -6.15625 C 6.4375 -7.082031 5.957031 -7.546875 5 -7.546875 C 4.257812 -7.546875 3.394531 -7.328125 2.40625 -6.890625 L 1.5625 -8.578125 C 2.625 -9.140625 3.804688 -9.421875 5.109375 -9.421875 C 6.335938 -9.421875 7.28125 -9.148438 7.9375 -8.609375 C 8.601562 -8.066406 8.9375 -7.25 8.9375 -6.15625 L 8.9375 0 Z M 6.4375 -4.28125 L 5.46875 -4.25 C 4.726562 -4.21875 4.179688 -4.082031 3.828125 -3.84375 C 3.472656 -3.601562 3.296875 -3.234375 3.296875 -2.734375 C 3.296875 -2.023438 3.703125 -1.671875 4.515625 -1.671875 C 5.097656 -1.671875 5.5625 -1.835938 5.90625 -2.171875 C 6.257812 -2.515625 6.4375 -2.960938 6.4375 -3.515625 Z M 6.4375 -4.28125 "/></g></g></g><g fill="#dce7f5" fill-opacity="1"><g transform="translate(103.607155, 53.197866)"><g><path d="M 0 -9.234375 L 2.75 -9.234375 L 4.5 -4.03125 C 4.644531 -3.582031 4.742188 -3.050781 4.796875 -2.4375 L 4.859375 -2.4375 C 4.910156 -3 5.023438 -3.53125 5.203125 -4.03125 L 6.921875 -9.234375 L 9.609375 -9.234375 L 5.71875 1.1875 C 5.351562 2.144531 4.835938 2.863281 4.171875 3.34375 C 3.515625 3.820312 2.742188 4.0625 1.859375 4.0625 C 1.421875 4.0625 0.992188 4.015625 0.578125 3.921875 L 0.578125 1.921875 C 0.878906 1.992188 1.207031 2.03125 1.5625 2.03125 C 2.007812 2.03125 2.398438 1.894531 2.734375 1.625 C 3.066406 1.351562 3.328125 0.941406 3.515625 0.390625 L 3.671875 -0.0625 Z M 0 -9.234375 "/></g></g></g><g fill="#dce7f5" fill-opacity="1"><g transform="translate(113.223804, 53.197866)"><g><path d="M 7.765625 -2.734375 C 7.765625 -1.796875 7.429688 -1.078125 6.765625 -0.578125 C 6.109375 -0.078125 5.128906 0.171875 3.828125 0.171875 C 3.148438 0.171875 2.570312 0.125 2.09375 0.03125 C 1.625 -0.0625 1.1875 -0.195312 0.78125 -0.375 L 0.78125 -2.453125 C 1.25 -2.234375 1.773438 -2.046875 2.359375 -1.890625 C 2.941406 -1.742188 3.457031 -1.671875 3.90625 -1.671875 C 4.820312 -1.671875 5.28125 -1.9375 5.28125 -2.46875 C 5.28125 -2.664062 5.21875 -2.828125 5.09375 -2.953125 C 4.96875 -3.078125 4.753906 -3.21875 4.453125 -3.375 C 4.160156 -3.53125 3.769531 -3.710938 3.28125 -3.921875 C 2.570312 -4.210938 2.050781 -4.484375 1.71875 -4.734375 C 1.382812 -4.992188 1.140625 -5.285156 0.984375 -5.609375 C 0.835938 -5.941406 0.765625 -6.347656 0.765625 -6.828125 C 0.765625 -7.648438 1.082031 -8.285156 1.71875 -8.734375 C 2.351562 -9.179688 3.253906 -9.40625 4.421875 -9.40625 C 5.523438 -9.40625 6.601562 -9.160156 7.65625 -8.671875 L 6.90625 -6.859375 C 6.4375 -7.054688 6 -7.21875 5.59375 -7.34375 C 5.195312 -7.46875 4.789062 -7.53125 4.375 -7.53125 C 3.632812 -7.53125 3.265625 -7.332031 3.265625 -6.9375 C 3.265625 -6.707031 3.382812 -6.507812 3.625 -6.34375 C 3.863281 -6.175781 4.382812 -5.929688 5.1875 -5.609375 C 5.914062 -5.316406 6.445312 -5.046875 6.78125 -4.796875 C 7.113281 -4.546875 7.359375 -4.253906 7.515625 -3.921875 C 7.679688 -3.585938 7.765625 -3.191406 7.765625 -2.734375 Z M 7.765625 -2.734375 "/></g></g></g></svg>