<svg xmlns="http://www.w3.org/2000/svg" xmlns:xlink="http://www.w3.org/1999/xlink" width="310" zoomAndPan="magnify" viewBox="0 0 232.5 221.249992" height="295" preserveAspectRatio="xMidYMid meet" version="1.0"><defs><g/><clipPath id="ae6b250b2f"><path d="M 67.546875 70.480469 L 185.644531 70.480469 L 185.644531 219.972656 L 67.546875 219.972656 Z M 67.546875 70.480469 " clip-rule="nonzero"/></clipPath></defs><g clip-path="url(#ae6b250b2f)"><path fill="#ffd21f" d="M 137.84375 216.34375 C 135.457031 214.148438 133.878906 211.570312 133.035156 208.460938 C 132.777344 207.515625 132.527344 206.546875 132.285156 205.613281 C 131.90625 204.160156 131.515625 202.660156 131.09375 201.195312 C 130.871094 200.414062 130.648438 199.636719 130.429688 198.855469 C 129.570312 195.824219 128.675781 192.691406 127.648438 189.652344 C 125.570312 183.519531 121.257812 179.5625 114.835938 177.894531 L 114.382812 177.777344 C 112.625 177.320312 110.808594 176.847656 109.039062 176.335938 C 104.796875 175.105469 99.847656 173.46875 95.316406 170.632812 C 94.261719 169.976562 93.230469 169.230469 92.234375 168.511719 C 91.476562 167.960938 90.699219 167.398438 89.902344 166.867188 C 85.183594 163.714844 81.429688 160.085938 78.425781 155.765625 C 76.007812 152.28125 73.933594 148.503906 72.253906 144.53125 C 69.136719 137.144531 67.59375 130.328125 67.546875 123.683594 C 67.664062 122.71875 67.773438 121.726562 67.878906 120.777344 C 68.117188 118.617188 68.359375 116.375 68.746094 114.207031 C 69.351562 110.804688 70.21875 106.832031 72.054688 103.125 C 76.148438 94.871094 82.085938 88.71875 89.71875 84.832031 L 90.488281 84.4375 C 95.054688 82.109375 99.773438 79.703125 104.6875 77.949219 C 111.621094 75.472656 120.816406 72.507812 130.484375 71.5625 C 131.136719 71.5 131.886719 71.425781 132.605469 71.292969 C 135.519531 70.769531 138.375 70.511719 141.089844 70.535156 C 142.921875 70.554688 144.75 70.699219 146.523438 70.960938 C 152.910156 71.921875 158.703125 74.257812 163.742188 77.890625 C 168.589844 81.390625 172.824219 85.769531 176.324219 90.921875 C 178.710938 94.425781 180.621094 98.273438 182 102.355469 C 183.714844 107.417969 184.773438 112.722656 185.152344 118.121094 C 185.644531 125.28125 184.992188 131.066406 183.085938 136.328125 C 182.792969 137.140625 182.441406 137.945312 182.097656 138.730469 C 181.691406 139.664062 181.265625 140.632812 180.9375 141.621094 C 179.277344 146.574219 176.523438 151.238281 172.519531 155.882812 C 170.277344 158.484375 168.371094 160.621094 166.527344 162.601562 C 162.757812 166.644531 161.132812 171.390625 161.699219 176.707031 C 161.863281 178.304688 162.1875 179.910156 162.660156 181.496094 C 163.53125 184.449219 164.457031 187.433594 165.347656 190.324219 C 166 192.425781 166.671875 194.601562 167.316406 196.742188 C 167.402344 197.03125 167.5 197.328125 167.589844 197.617188 C 167.972656 198.828125 168.363281 200.074219 168.460938 201.300781 C 168.914062 207.289062 167.160156 211.574219 163.105469 214.394531 C 158.574219 217.550781 154.117188 219.332031 149.492188 219.820312 C 148.699219 219.90625 147.929688 219.945312 147.199219 219.9375 C 143.484375 219.894531 140.433594 218.722656 137.84375 216.34375 Z M 160.382812 185.316406 L 159.929688 185.511719 C 155.441406 187.492188 151.199219 189.355469 146.710938 190.765625 C 142.289062 192.152344 137.753906 193.066406 132.851562 193.566406 L 132.335938 193.621094 L 132.460938 194.125 C 132.902344 195.953125 133.273438 197.789062 133.632812 199.566406 C 134.292969 202.839844 134.921875 205.929688 135.949219 209.007812 C 136.6875 211.214844 138.082031 213.144531 140.105469 214.746094 C 141.878906 216.152344 143.894531 216.878906 146.09375 216.894531 C 146.863281 216.902344 147.652344 216.820312 148.441406 216.648438 C 152.941406 215.675781 156.859375 214.292969 160.429688 212.433594 C 164.304688 210.414062 166.328125 206.261719 165.835938 201.34375 C 165.789062 200.882812 165.675781 200.429688 165.5625 200 L 165.515625 199.808594 C 164.734375 196.792969 163.589844 193.84375 162.484375 190.996094 C 161.828125 189.308594 161.144531 187.5625 160.542969 185.792969 Z M 115.59375 124.699219 C 116.796875 125.105469 117.722656 125.9375 118.742188 127.066406 C 120.867188 129.410156 122.730469 132.023438 124.457031 135.046875 L 127.011719 139.53125 L 127.300781 139.503906 C 131.035156 139.1875 134.023438 137.558594 136.703125 135.84375 L 136.84375 135.753906 L 136.890625 135.597656 C 137.257812 134.417969 137.132812 133.300781 137.015625 132.214844 C 136.988281 131.984375 136.964844 131.753906 136.945312 131.527344 L 136.84375 130.394531 C 136.71875 129 136.582031 127.554688 136.476562 126.136719 C 136.273438 123.464844 136.859375 120.839844 137.390625 118.855469 C 137.980469 116.660156 139.363281 115.53125 141.753906 115.304688 C 141.894531 115.292969 142.035156 115.28125 142.164062 115.289062 C 143.011719 115.292969 143.738281 115.582031 144.460938 116.195312 C 146.625 118.046875 147.640625 120.570312 147.570312 123.933594 C 147.511719 126.824219 146.9375 129.628906 145.867188 132.28125 C 145.195312 133.945312 144.167969 135.488281 142.820312 136.863281 C 142.4375 137.253906 142.039062 137.617188 141.652344 137.972656 C 141.480469 138.128906 141.3125 138.277344 141.152344 138.429688 L 141.011719 138.558594 L 141.007812 138.746094 C 140.839844 145.023438 147.835938 176.742188 150.601562 182.253906 L 150.773438 182.605469 L 151.144531 182.488281 C 153.957031 181.566406 156.074219 180.464844 157.816406 179.015625 C 158.21875 178.679688 158.402344 178.148438 158.5625 177.675781 C 158.613281 177.535156 158.65625 177.40625 158.703125 177.289062 C 158.804688 177.027344 158.753906 176.761719 158.710938 176.546875 C 158.703125 176.515625 158.691406 176.476562 158.6875 176.445312 C 157.941406 172.359375 158.96875 168.429688 162.019531 163.703125 C 163.3125 161.710938 164.816406 159.792969 166.265625 157.941406 C 166.578125 157.542969 166.890625 157.148438 167.203125 156.75 C 169.78125 153.433594 173.117188 149.003906 176.003906 144.121094 L 176.03125 144.074219 C 176.535156 143.214844 177.0625 142.328125 177.398438 141.363281 C 180.019531 133.957031 181.339844 127.765625 181.570312 121.878906 C 182.238281 104.730469 175.332031 91.191406 161.046875 81.625 C 156.574219 78.632812 151.707031 76.5625 146.570312 75.472656 C 144.394531 75.007812 142.117188 74.765625 139.78125 74.746094 C 136.523438 74.71875 133.121094 75.113281 129.375 75.945312 C 123.316406 77.292969 117.324219 79.164062 111.523438 80.976562 C 110.425781 81.316406 109.335938 81.660156 108.238281 81.996094 C 104.109375 83.269531 100.003906 84.839844 96.03125 86.363281 L 95.484375 86.570312 C 91.976562 87.910156 88.925781 90.09375 86.144531 92.253906 C 84.371094 93.628906 82.882812 95.210938 81.726562 96.9375 C 81.28125 97.609375 80.800781 98.273438 80.335938 98.917969 C 79.9375 99.472656 79.527344 100.046875 79.136719 100.625 C 72.867188 109.804688 70.433594 120.3125 71.894531 131.855469 C 72.324219 135.257812 73.351562 138.789062 74.949219 142.351562 C 77.152344 147.273438 79.652344 151.3125 82.59375 154.699219 C 85.457031 158 88.699219 161.1875 92.503906 164.441406 C 94 165.714844 95.5 166.714844 97.089844 167.496094 C 101.660156 169.726562 106.4375 171.710938 111.304688 173.390625 C 111.769531 173.554688 112.238281 173.707031 112.710938 173.871094 C 114.207031 174.371094 115.753906 174.886719 117.199219 175.542969 C 119.425781 176.542969 121.503906 177.730469 123.253906 178.757812 C 125.613281 180.144531 127.3125 181.980469 128.300781 184.210938 C 129.003906 185.804688 130.105469 186.664062 131.578125 186.777344 C 132.121094 186.8125 132.679688 186.839844 133.289062 186.847656 C 134.433594 186.855469 135.566406 186.804688 136.421875 186.753906 C 137.675781 186.683594 139.117188 186.53125 140.394531 185.59375 L 140.652344 185.40625 L 140.5625 185.097656 C 136.464844 171.476562 131.875 157.0625 124.757812 143.65625 L 124.644531 143.445312 L 124.410156 143.417969 C 124.226562 143.394531 124.039062 143.375 123.855469 143.351562 C 123.460938 143.304688 123.054688 143.257812 122.652344 143.21875 C 118.796875 142.847656 115.757812 141.648438 113.363281 139.558594 C 111.109375 137.585938 109.417969 134.804688 108.191406 131.054688 C 107.460938 128.824219 107.992188 126.9375 109.8125 125.277344 C 110.652344 124.511719 111.621094 124.148438 112.769531 124.15625 C 113.554688 124.136719 114.453125 124.320312 115.59375 124.699219 Z M 137.660156 141.03125 L 137.257812 141.09375 C 136.035156 141.285156 134.847656 141.613281 133.703125 141.921875 C 132.363281 142.289062 130.984375 142.671875 129.519531 142.84375 L 128.933594 142.914062 L 129.15625 143.460938 C 129.589844 144.535156 130.027344 145.59375 130.449219 146.636719 C 131.421875 149.007812 132.335938 151.25 133.234375 153.535156 C 134.488281 156.726562 135.738281 160.035156 137.0625 163.640625 L 137.492188 164.808594 C 138.574219 167.746094 139.691406 170.789062 140.660156 173.816406 C 141.410156 176.164062 142.066406 178.535156 142.761719 181.046875 C 143.070312 182.167969 143.394531 183.332031 143.726562 184.511719 L 143.855469 184.96875 L 146.371094 184.125 L 146.4375 183.890625 C 146.726562 182.804688 146.492188 181.800781 146.28125 180.910156 C 146.238281 180.738281 146.199219 180.566406 146.164062 180.390625 C 145.175781 175.800781 144.164062 171.132812 143.179688 166.625 C 142.277344 162.472656 141.339844 158.183594 140.433594 153.960938 C 139.953125 151.746094 139.503906 149.488281 139.0625 147.304688 C 138.796875 145.992188 138.53125 144.679688 138.261719 143.371094 C 138.179688 142.972656 138.078125 142.585938 137.953125 142.136719 C 137.894531 141.917969 137.832031 141.679688 137.765625 141.421875 Z M 111.554688 128.574219 C 111.199219 129.007812 111.054688 129.558594 111.164062 130.085938 C 111.582031 132.15625 112.566406 134.152344 114.257812 136.363281 C 115.3125 137.746094 116.8125 138.601562 118.84375 138.984375 C 119.328125 139.074219 119.8125 139.183594 120.484375 139.332031 C 120.851562 139.414062 121.265625 139.503906 121.769531 139.617188 L 122.703125 139.820312 L 122.261719 138.972656 C 120.113281 134.804688 118.472656 132.132812 116.59375 129.746094 C 115.726562 128.644531 114.605469 128.015625 113.25 127.878906 C 113.191406 127.871094 113.128906 127.867188 113.070312 127.867188 C 112.496094 127.855469 111.925781 128.125 111.554688 128.574219 Z M 142.289062 119.683594 C 141.753906 119.75 141.347656 120.25 141.011719 120.652344 L 140.933594 120.75 C 140.726562 120.996094 140.660156 121.308594 140.59375 121.578125 C 140.578125 121.636719 140.566406 121.695312 140.550781 121.753906 C 139.71875 124.957031 139.851562 128.195312 140.011719 131.941406 L 140.050781 132.84375 L 140.75 132.269531 C 143.503906 130 144.808594 127.34375 144.863281 123.90625 C 144.878906 122.890625 144.421875 121.867188 144.019531 120.960938 C 143.96875 120.851562 143.921875 120.742188 143.878906 120.640625 C 143.664062 120.152344 142.949219 119.683594 142.398438 119.679688 C 142.367188 119.679688 142.324219 119.679688 142.289062 119.683594 Z M 142.289062 119.683594 " fill-opacity="1" fill-rule="nonzero"/></g><path fill="#ffd21f" d="M 171.507812 115.460938 C 171.558594 115.460938 171.605469 115.460938 171.652344 115.460938 C 172.339844 115.425781 172.503906 115.082031 172.5625 114.820312 C 172.695312 114.222656 172.75 113.667969 172.722656 113.171875 C 172.53125 109.714844 171.707031 106.460938 170.277344 103.5 C 168.417969 99.652344 165.808594 96.28125 162.53125 93.484375 C 157.230469 88.976562 151.898438 86.070312 146.234375 84.621094 C 142.320312 83.617188 138.265625 83.089844 134.179688 83.054688 C 130.183594 83.023438 125.988281 83.460938 121.726562 84.355469 C 118.480469 85.039062 115.039062 85.898438 111.882812 87.582031 C 110.953125 88.078125 110.09375 88.71875 109.210938 89.378906 C 108.539062 89.886719 108.238281 90.507812 108.246094 91.367188 C 108.722656 91.921875 109.296875 92.011719 110.046875 92.078125 C 110.242188 92.09375 110.453125 92.101562 110.65625 92.101562 C 112.125 92.113281 113.5625 91.738281 114.898438 91.328125 C 115.941406 91.011719 116.992188 90.628906 118 90.257812 C 118.929688 89.921875 119.894531 89.570312 120.855469 89.265625 C 121.539062 89.050781 122.230469 88.820312 122.898438 88.59375 C 124.957031 87.90625 127.089844 87.191406 129.261719 86.820312 C 131.53125 86.425781 133.792969 86.238281 135.988281 86.261719 C 144.167969 86.328125 151.941406 89.285156 159.074219 95.042969 C 161.941406 97.355469 164.148438 100.429688 165.636719 104.175781 C 166.574219 106.535156 167.289062 108.957031 168.050781 111.644531 C 168.375 112.765625 168.804688 113.929688 169.773438 114.773438 C 170.308594 115.222656 170.875 115.453125 171.507812 115.460938 Z M 171.507812 115.460938 " fill-opacity="1" fill-rule="nonzero"/><path fill="#ffd21f" d="M 137.976562 201.695312 C 137.992188 201.695312 138.007812 201.695312 138.023438 201.6875 C 138.410156 201.628906 138.804688 201.574219 139.195312 201.515625 C 141.039062 201.253906 142.949219 200.980469 144.761719 200.511719 C 149.558594 199.265625 153.730469 197.679688 157.515625 195.667969 C 157.703125 195.570312 157.898438 195.472656 158.085938 195.386719 C 158.828125 195.035156 159.539062 194.695312 159.910156 193.921875 C 159.902344 193.914062 159.898438 193.914062 159.890625 193.910156 C 159.703125 193.765625 159.519531 193.625 159.347656 193.566406 C 159.34375 193.566406 159.324219 193.554688 159.277344 193.554688 C 159.132812 193.554688 158.925781 193.613281 158.761719 193.664062 C 155.3125 194.671875 151.867188 195.6875 148.421875 196.699219 L 144.96875 197.714844 C 144.550781 197.839844 144.125 197.957031 143.699219 198.082031 C 142.796875 198.332031 141.867188 198.597656 140.96875 198.902344 C 139.949219 199.253906 139.078125 199.628906 138.316406 200.058594 C 137.6875 200.414062 137.367188 200.84375 137.304688 201.46875 C 137.332031 201.480469 137.359375 201.488281 137.386719 201.503906 C 137.59375 201.597656 137.816406 201.695312 137.976562 201.695312 Z M 137.976562 201.695312 " fill-opacity="1" fill-rule="nonzero"/><path fill="#ffd21f" d="M 142.347656 210.65625 C 143.148438 210.660156 143.953125 210.445312 144.652344 210.242188 C 149.453125 208.820312 154.230469 207.304688 158.675781 205.871094 C 159.460938 205.617188 160.289062 205.21875 161.277344 204.625 C 161.777344 204.316406 162.035156 204.085938 162.0625 203.910156 C 162.101562 203.644531 161.734375 203.15625 161.347656 202.703125 C 160.984375 202.828125 160.617188 202.953125 160.253906 203.074219 C 159.234375 203.417969 158.1875 203.773438 157.140625 204.097656 C 154.8125 204.820312 152.441406 205.554688 150.144531 206.257812 C 147.984375 206.925781 145.824219 207.589844 143.664062 208.261719 C 143.121094 208.429688 142.554688 208.605469 142.105469 208.886719 C 141.335938 209.359375 141.039062 209.8125 141.105469 210.433594 C 141.488281 210.574219 141.894531 210.648438 142.347656 210.65625 Z M 142.347656 210.65625 " fill-opacity="1" fill-rule="nonzero"/><path fill="#ffed00" d="M 48.574219 156.480469 C 48.164062 156.621094 47.742188 156.722656 47.3125 156.78125 C 46.882812 156.839844 46.449219 156.855469 46.015625 156.832031 C 45.582031 156.808594 45.15625 156.742188 44.734375 156.636719 C 44.3125 156.527344 43.90625 156.382812 43.511719 156.199219 C 43.121094 156.011719 42.746094 155.792969 42.398438 155.535156 C 42.046875 155.28125 41.722656 154.992188 41.425781 154.671875 C 41.132812 154.355469 40.871094 154.011719 40.640625 153.640625 C 40.410156 153.273438 40.21875 152.886719 40.0625 152.480469 C 39.632812 151.035156 39.234375 149.582031 38.875 148.117188 C 38.511719 146.652344 38.1875 145.179688 37.898438 143.703125 C 37.609375 142.222656 37.355469 140.734375 37.140625 139.242188 C 36.925781 137.75 36.746094 136.253906 36.601562 134.753906 C 36.460938 133.253906 36.355469 131.75 36.285156 130.242188 C 36.214844 128.738281 36.183594 127.230469 36.1875 125.722656 C 36.191406 124.214844 36.234375 122.707031 36.3125 121.203125 C 36.390625 119.695312 36.503906 118.195312 36.65625 116.695312 C 36.808594 115.195312 36.996094 113.699219 37.222656 112.207031 C 37.449219 110.714844 37.710938 109.230469 38.007812 107.753906 C 38.304688 106.277344 38.636719 104.804688 39.007812 103.34375 C 39.378906 101.882812 39.785156 100.429688 40.222656 98.988281 C 40.664062 97.546875 41.140625 96.117188 41.652344 94.699219 C 42.164062 93.28125 42.707031 91.875 43.289062 90.484375 C 43.867188 89.089844 44.480469 87.714844 45.128906 86.351562 C 45.777344 84.992188 46.457031 83.644531 47.167969 82.316406 C 47.882812 80.988281 48.628906 79.679688 49.40625 78.386719 C 50.179688 77.09375 50.988281 75.820312 51.828125 74.570312 C 52.667969 73.316406 53.539062 72.085938 54.4375 70.875 C 55.339844 69.667969 56.265625 68.480469 57.226562 67.316406 C 58.183594 66.152344 59.167969 65.011719 60.183594 63.894531 C 61.195312 62.777344 62.238281 61.6875 63.304688 60.621094 C 64.371094 59.558594 65.464844 58.519531 66.582031 57.507812 C 67.699219 56.496094 68.839844 55.511719 70.007812 54.554688 C 71.171875 53.601562 72.363281 52.675781 73.574219 51.777344 C 74.785156 50.878906 76.019531 50.011719 77.273438 49.175781 C 78.527344 48.335938 79.800781 47.53125 81.09375 46.757812 C 82.386719 45.980469 83.699219 45.238281 85.027344 44.527344 C 86.359375 43.816406 87.703125 43.140625 89.066406 42.496094 C 90.429688 41.851562 91.808594 41.242188 93.203125 40.664062 C 94.59375 40.085938 96 39.542969 97.421875 39.035156 C 98.839844 38.527344 100.269531 38.054688 101.714844 37.617188 C 103.15625 37.175781 104.609375 36.773438 106.070312 36.40625 C 107.535156 36.039062 109.003906 35.710938 110.484375 35.414062 C 111.960938 35.121094 113.445312 34.859375 114.9375 34.640625 C 116.429688 34.417969 117.925781 34.230469 119.425781 34.082031 C 120.925781 33.933594 122.429688 33.820312 123.933594 33.746094 C 125.441406 33.667969 126.945312 33.628906 128.453125 33.628906 C 129.960938 33.628906 131.46875 33.664062 132.976562 33.734375 C 134.480469 33.808594 135.984375 33.914062 137.484375 34.0625 C 138.984375 34.207031 140.480469 34.390625 141.972656 34.609375 C 143.464844 34.828125 144.953125 35.082031 146.429688 35.375 C 147.910156 35.667969 149.382812 35.992188 150.84375 36.359375 C 152.308594 36.722656 153.761719 37.121094 155.203125 37.554688 C 156.648438 37.992188 158.082031 38.460938 159.5 38.964844 C 160.921875 39.472656 162.328125 40.011719 163.722656 40.585938 C 165.117188 41.160156 166.496094 41.765625 167.863281 42.40625 C 169.226562 43.050781 170.574219 43.722656 171.90625 44.429688 C 173.238281 45.140625 174.550781 45.878906 175.84375 46.652344 C 177.140625 47.421875 178.414062 48.226562 179.671875 49.058594 C 180.925781 49.894531 182.164062 50.757812 183.375 51.652344 C 184.589844 52.546875 185.78125 53.472656 186.949219 54.425781 C 188.117188 55.378906 189.261719 56.359375 190.382812 57.367188 C 191.5 58.378906 192.597656 59.414062 193.667969 60.476562 C 194.734375 61.539062 195.777344 62.628906 196.792969 63.742188 C 197.8125 64.855469 198.800781 65.992188 199.761719 67.15625 C 200.71875 68.316406 201.652344 69.503906 202.554688 70.710938 C 203.457031 71.917969 204.328125 73.148438 205.171875 74.398438 C 206.015625 75.648438 206.824219 76.917969 207.605469 78.210938 C 208.386719 79.5 209.132812 80.808594 209.847656 82.132812 C 210.566406 83.460938 211.25 84.804688 211.898438 86.164062 C 212.550781 87.527344 213.164062 88.902344 213.75 90.292969 C 214.332031 91.683594 214.878906 93.085938 215.394531 94.503906 C 215.90625 95.921875 216.386719 97.351562 216.832031 98.792969 C 216.929688 99.214844 216.984375 99.644531 217 100.078125 C 217.011719 100.511719 216.988281 100.945312 216.917969 101.371094 C 216.851562 101.800781 216.742188 102.21875 216.59375 102.628906 C 216.441406 103.035156 216.257812 103.425781 216.03125 103.800781 C 215.808594 104.171875 215.550781 104.519531 215.261719 104.84375 C 214.96875 105.164062 214.652344 105.457031 214.304688 105.71875 C 213.957031 105.980469 213.589844 106.207031 213.199219 106.398438 C 212.808594 106.585938 212.402344 106.738281 211.980469 106.851562 L 198.769531 109.882812 C 198.328125 110.011719 197.878906 110.089844 197.417969 110.125 C 196.960938 110.160156 196.503906 110.148438 196.046875 110.089844 C 195.59375 110.027344 195.148438 109.925781 194.710938 109.777344 C 194.277344 109.625 193.863281 109.433594 193.464844 109.203125 C 193.070312 108.96875 192.703125 108.695312 192.363281 108.386719 C 192.019531 108.078125 191.714844 107.738281 191.445312 107.367188 C 191.171875 106.996094 190.941406 106.601562 190.75 106.183594 C 190.558594 105.765625 190.410156 105.332031 190.308594 104.886719 C 189.632812 102.90625 188.863281 100.964844 188 99.0625 C 187.136719 97.160156 186.183594 95.300781 185.144531 93.488281 C 184.101562 91.675781 182.976562 89.917969 181.765625 88.214844 C 180.554688 86.507812 179.265625 84.867188 177.898438 83.285156 C 176.53125 81.707031 175.089844 80.195312 173.578125 78.753906 C 172.0625 77.3125 170.484375 75.945312 168.839844 74.65625 C 167.195312 73.363281 165.492188 72.15625 163.734375 71.03125 C 161.972656 69.902344 160.160156 68.863281 158.300781 67.910156 C 156.441406 66.957031 154.539062 66.097656 152.59375 65.328125 C 150.652344 64.558594 148.675781 63.882812 146.667969 63.300781 C 144.660156 62.722656 142.628906 62.238281 140.574219 61.855469 C 138.519531 61.46875 136.453125 61.183594 134.371094 61 C 132.289062 60.8125 130.203125 60.726562 128.113281 60.742188 C 126.023438 60.753906 123.9375 60.871094 121.859375 61.082031 C 119.777344 61.296875 117.714844 61.613281 115.664062 62.023438 C 113.617188 62.4375 111.59375 62.949219 109.59375 63.554688 C 107.59375 64.164062 105.625 64.863281 103.695312 65.660156 C 101.761719 66.457031 99.871094 67.34375 98.023438 68.324219 C 96.175781 69.300781 94.378906 70.363281 92.636719 71.515625 C 90.890625 72.667969 89.203125 73.898438 87.578125 75.210938 C 85.949219 76.523438 84.390625 77.910156 82.898438 79.371094 C 81.402344 80.835938 79.984375 82.367188 78.636719 83.964844 C 77.292969 85.5625 76.023438 87.222656 74.839844 88.945312 C 73.652344 90.664062 72.550781 92.4375 71.53125 94.265625 C 70.515625 96.089844 69.589844 97.960938 68.753906 99.878906 C 67.917969 101.792969 67.171875 103.742188 66.523438 105.730469 C 65.875 107.71875 65.324219 109.730469 64.867188 111.769531 C 64.410156 113.8125 64.054688 115.867188 63.796875 117.941406 C 63.539062 120.015625 63.378906 122.097656 63.324219 124.1875 C 63.265625 126.277344 63.304688 128.363281 63.449219 130.449219 C 63.589844 132.535156 63.832031 134.609375 64.175781 136.671875 C 64.515625 138.734375 64.957031 140.773438 65.496094 142.792969 C 65.660156 143.222656 65.777344 143.664062 65.851562 144.117188 C 65.925781 144.574219 65.953125 145.027344 65.933594 145.488281 C 65.914062 145.949219 65.847656 146.402344 65.738281 146.847656 C 65.625 147.292969 65.46875 147.722656 65.269531 148.136719 C 65.070312 148.550781 64.832031 148.941406 64.554688 149.308594 C 64.277344 149.671875 63.964844 150.007812 63.617188 150.308594 C 63.273438 150.613281 62.898438 150.875 62.5 151.101562 C 62.097656 151.328125 61.679688 151.511719 61.242188 151.65625 Z M 48.574219 156.480469 " fill-opacity="1" fill-rule="nonzero"/><g fill="#3d3100" fill-opacity="1"><g transform="translate(58.528905, 146.432211)"><g><path d="M -5.171875 -7.71875 C -4.097656 -7.957031 -3.164062 -7.757812 -2.375 -7.125 C -1.59375 -6.488281 -1.050781 -5.492188 -0.75 -4.140625 C -0.46875 -2.878906 -0.457031 -1.710938 -0.71875 -0.640625 L -3.03125 -0.125 C -2.851562 -1 -2.753906 -1.726562 -2.734375 -2.3125 C -2.722656 -2.894531 -2.765625 -3.414062 -2.859375 -3.875 C -2.984375 -4.425781 -3.179688 -4.820312 -3.453125 -5.0625 C -3.734375 -5.3125 -4.082031 -5.390625 -4.5 -5.296875 C -4.726562 -5.242188 -4.914062 -5.128906 -5.0625 -4.953125 C -5.21875 -4.785156 -5.347656 -4.554688 -5.453125 -4.265625 C -5.566406 -3.984375 -5.722656 -3.414062 -5.921875 -2.5625 C -6.085938 -1.769531 -6.289062 -1.160156 -6.53125 -0.734375 C -6.769531 -0.304688 -7.070312 0.0546875 -7.4375 0.359375 C -7.800781 0.671875 -8.257812 0.890625 -8.8125 1.015625 C -9.851562 1.242188 -10.75 1.070312 -11.5 0.5 C -12.257812 -0.0625 -12.78125 -0.96875 -13.0625 -2.21875 C -13.195312 -2.832031 -13.253906 -3.429688 -13.234375 -4.015625 C -13.210938 -4.609375 -13.132812 -5.238281 -13 -5.90625 L -10.890625 -5.546875 C -11.003906 -4.859375 -11.0625 -4.296875 -11.0625 -3.859375 C -11.070312 -3.421875 -11.035156 -3 -10.953125 -2.59375 C -10.847656 -2.132812 -10.65625 -1.800781 -10.375 -1.59375 C -10.101562 -1.382812 -9.789062 -1.320312 -9.4375 -1.40625 C -9.21875 -1.457031 -9.035156 -1.550781 -8.890625 -1.6875 C -8.753906 -1.820312 -8.632812 -2.015625 -8.53125 -2.265625 C -8.425781 -2.523438 -8.269531 -3.117188 -8.0625 -4.046875 C -7.78125 -5.273438 -7.421875 -6.148438 -6.984375 -6.671875 C -6.546875 -7.203125 -5.941406 -7.550781 -5.171875 -7.71875 Z M -5.171875 -7.71875 "/></g></g></g><g fill="#3d3100" fill-opacity="1"><g transform="translate(56.575326, 138.110659)"><g><path d="M -0.421875 -6.390625 C -0.316406 -5.304688 -0.632812 -4.421875 -1.375 -3.734375 L -1.359375 -3.609375 C -0.597656 -3.765625 -0.15625 -3.847656 -0.03125 -3.859375 L 3.6875 -4.203125 L 3.921875 -1.703125 L -9.328125 -0.46875 L -9.515625 -2.5 L -8.359375 -2.96875 L -8.375 -3.078125 C -9.332031 -3.585938 -9.863281 -4.414062 -9.96875 -5.5625 C -10.070312 -6.65625 -9.734375 -7.546875 -8.953125 -8.234375 C -8.171875 -8.921875 -7.035156 -9.335938 -5.546875 -9.484375 C -4.554688 -9.566406 -3.6875 -9.5 -2.9375 -9.28125 C -2.1875 -9.070312 -1.59375 -8.71875 -1.15625 -8.21875 C -0.726562 -7.71875 -0.484375 -7.109375 -0.421875 -6.390625 Z M -7.890625 -4.9375 C -7.835938 -4.320312 -7.601562 -3.890625 -7.1875 -3.640625 C -6.78125 -3.390625 -6.140625 -3.300781 -5.265625 -3.375 L -5 -3.390625 C -4.007812 -3.484375 -3.3125 -3.695312 -2.90625 -4.03125 C -2.5 -4.375 -2.328125 -4.859375 -2.390625 -5.484375 C -2.492188 -6.617188 -3.476562 -7.097656 -5.34375 -6.921875 C -6.238281 -6.835938 -6.898438 -6.632812 -7.328125 -6.3125 C -7.765625 -5.988281 -7.953125 -5.53125 -7.890625 -4.9375 Z M -7.890625 -4.9375 "/></g></g></g><g fill="#3d3100" fill-opacity="1"><g transform="translate(55.752071, 128.059373)"><g><path d="M -11.625 -1.3125 C -12.445312 -1.320312 -12.859375 -1.785156 -12.859375 -2.703125 C -12.847656 -3.617188 -12.429688 -4.070312 -11.609375 -4.0625 C -11.210938 -4.0625 -10.90625 -3.945312 -10.6875 -3.71875 C -10.46875 -3.488281 -10.363281 -3.144531 -10.375 -2.6875 C -10.375 -1.769531 -10.789062 -1.3125 -11.625 -1.3125 Z M 0.03125 -3.84375 L 0.015625 -1.328125 L -9.234375 -1.40625 L -9.21875 -3.921875 Z M 0.03125 -3.84375 "/></g></g></g><g fill="#3d3100" fill-opacity="1"><g transform="translate(55.72824, 123.384312)"><g><path d="M -1.390625 -5.359375 C -1.347656 -5.796875 -1.394531 -6.332031 -1.53125 -6.96875 L 0.34375 -6.796875 C 0.570312 -6.148438 0.644531 -5.367188 0.5625 -4.453125 C 0.476562 -3.453125 0.160156 -2.742188 -0.390625 -2.328125 C -0.941406 -1.921875 -1.722656 -1.757812 -2.734375 -1.84375 L -7.1875 -2.234375 L -7.296875 -1.03125 L -8.359375 -1.125 L -9.078125 -2.59375 L -10.953125 -3.46875 L -10.8125 -5.09375 L -8.859375 -4.921875 L -8.625 -7.484375 L -6.734375 -7.3125 L -6.96875 -4.75 L -2.515625 -4.359375 C -2.160156 -4.328125 -1.890625 -4.398438 -1.703125 -4.578125 C -1.523438 -4.765625 -1.421875 -5.023438 -1.390625 -5.359375 Z M -1.390625 -5.359375 "/></g></g></g><g fill="#3d3100" fill-opacity="1"><g transform="translate(56.25886, 116.671697)"><g><path d="M -1.25 -8.15625 C -0.320312 -7.976562 0.320312 -7.515625 0.6875 -6.765625 C 1.0625 -6.023438 1.128906 -5.015625 0.890625 -3.734375 C 0.765625 -3.066406 0.609375 -2.503906 0.421875 -2.046875 C 0.242188 -1.597656 0.0234375 -1.191406 -0.234375 -0.828125 L -2.265625 -1.21875 C -1.960938 -1.632812 -1.679688 -2.113281 -1.421875 -2.65625 C -1.160156 -3.207031 -0.988281 -3.707031 -0.90625 -4.15625 C -0.738281 -5.050781 -0.914062 -5.546875 -1.4375 -5.640625 C -1.632812 -5.679688 -1.800781 -5.65625 -1.9375 -5.5625 C -2.082031 -5.46875 -2.257812 -5.285156 -2.46875 -5.015625 C -2.6875 -4.753906 -2.945312 -4.398438 -3.25 -3.953125 C -3.664062 -3.316406 -4.03125 -2.859375 -4.34375 -2.578125 C -4.65625 -2.296875 -4.988281 -2.109375 -5.34375 -2.015625 C -5.695312 -1.929688 -6.109375 -1.9375 -6.578125 -2.03125 C -7.390625 -2.1875 -7.953125 -2.617188 -8.265625 -3.328125 C -8.585938 -4.035156 -8.640625 -4.960938 -8.421875 -6.109375 C -8.210938 -7.203125 -7.769531 -8.21875 -7.09375 -9.15625 L -5.453125 -8.0625 C -5.742188 -7.65625 -5.988281 -7.265625 -6.1875 -6.890625 C -6.382812 -6.515625 -6.523438 -6.125 -6.609375 -5.71875 C -6.742188 -4.976562 -6.613281 -4.570312 -6.21875 -4.5 C -6 -4.457031 -5.78125 -4.539062 -5.5625 -4.75 C -5.351562 -4.957031 -5.019531 -5.425781 -4.5625 -6.15625 C -4.132812 -6.8125 -3.765625 -7.28125 -3.453125 -7.5625 C -3.140625 -7.851562 -2.804688 -8.046875 -2.453125 -8.140625 C -2.097656 -8.234375 -1.695312 -8.238281 -1.25 -8.15625 Z M -1.25 -8.15625 "/></g></g></g><g fill="#3d3100" fill-opacity="1"><g transform="translate(57.578791, 109.112154)"><g><path d="M -7 -9.015625 C -6.664062 -10.054688 -6 -10.742188 -5 -11.078125 C -4 -11.410156 -2.796875 -11.347656 -1.390625 -10.890625 C 0.0664062 -10.429688 1.097656 -9.769531 1.703125 -8.90625 C 2.304688 -8.050781 2.441406 -7.101562 2.109375 -6.0625 C 1.773438 -5.019531 1.140625 -4.320312 0.203125 -3.96875 L 0.15625 -3.8125 L 0.984375 -3.09375 L 0.40625 -1.265625 L -11.859375 -5.1875 L -11.09375 -7.578125 L -8.234375 -6.65625 C -7.867188 -6.539062 -7.300781 -6.332031 -6.53125 -6.03125 L -6.5 -6.109375 C -7.1875 -6.953125 -7.351562 -7.921875 -7 -9.015625 Z M -5.34375 -7.640625 C -5.53125 -7.046875 -5.484375 -6.550781 -5.203125 -6.15625 C -4.921875 -5.769531 -4.359375 -5.4375 -3.515625 -5.15625 L -3.265625 -5.078125 C -2.316406 -4.773438 -1.59375 -4.703125 -1.09375 -4.859375 C -0.59375 -5.015625 -0.242188 -5.394531 -0.046875 -6 C 0.109375 -6.488281 0.00390625 -6.953125 -0.359375 -7.390625 C -0.722656 -7.835938 -1.335938 -8.195312 -2.203125 -8.46875 C -3.066406 -8.738281 -3.765625 -8.789062 -4.296875 -8.625 C -4.828125 -8.46875 -5.175781 -8.140625 -5.34375 -7.640625 Z M -5.34375 -7.640625 "/></g></g></g><g fill="#3d3100" fill-opacity="1"><g transform="translate(60.564014, 99.665218)"><g><path d="M -4.6875 -7.90625 C -4.914062 -7.414062 -4.941406 -6.960938 -4.765625 -6.546875 C -4.597656 -6.128906 -4.238281 -5.769531 -3.6875 -5.46875 L -2.171875 -8.671875 C -2.753906 -8.921875 -3.265625 -8.976562 -3.703125 -8.84375 C -4.140625 -8.707031 -4.46875 -8.394531 -4.6875 -7.90625 Z M 2.515625 -4.90625 C 1.878906 -3.5625 1.007812 -2.6875 -0.09375 -2.28125 C -1.195312 -1.875 -2.429688 -1.992188 -3.796875 -2.640625 C -5.191406 -3.296875 -6.109375 -4.148438 -6.546875 -5.203125 C -6.984375 -6.265625 -6.910156 -7.421875 -6.328125 -8.671875 C -5.765625 -9.847656 -4.992188 -10.601562 -4.015625 -10.9375 C -3.035156 -11.28125 -1.953125 -11.171875 -0.765625 -10.609375 L 0.328125 -10.09375 L -2.21875 -4.703125 C -1.539062 -4.421875 -0.9375 -4.375 -0.40625 -4.5625 C 0.125 -4.75 0.546875 -5.171875 0.859375 -5.828125 C 1.085938 -6.328125 1.253906 -6.820312 1.359375 -7.3125 C 1.472656 -7.8125 1.53125 -8.363281 1.53125 -8.96875 L 3.296875 -8.125 C 3.304688 -7.632812 3.253906 -7.140625 3.140625 -6.640625 C 3.023438 -6.140625 2.816406 -5.5625 2.515625 -4.90625 Z M 2.515625 -4.90625 "/></g></g></g><g fill="#3d3100" fill-opacity="1"><g transform="translate(64.557633, 91.258145)"><g><path d="M -4.609375 -10.46875 C -4.429688 -10.757812 -4.265625 -10.984375 -4.109375 -11.140625 L -2.1875 -9.75 C -2.34375 -9.601562 -2.5 -9.40625 -2.65625 -9.15625 C -3.082031 -8.46875 -3.234375 -7.820312 -3.109375 -7.21875 C -2.992188 -6.625 -2.617188 -6.128906 -1.984375 -5.734375 L 2.015625 -3.265625 L 0.703125 -1.125 L -7.171875 -5.984375 L -6.171875 -7.609375 L -4.65625 -7.109375 L -4.578125 -7.203125 C -4.867188 -7.722656 -5.019531 -8.273438 -5.03125 -8.859375 C -5.050781 -9.441406 -4.910156 -9.976562 -4.609375 -10.46875 Z M -4.609375 -10.46875 "/></g></g></g><g fill="#3d3100" fill-opacity="1"><g transform="translate(68.166883, 85.241935)"><g><path d="M -1.53125 -13.078125 L -0.515625 -12.296875 L -1.109375 -10.921875 C -0.628906 -10.867188 -0.1875 -10.6875 0.21875 -10.375 C 1 -9.769531 1.394531 -9.019531 1.40625 -8.125 C 1.425781 -7.238281 1.054688 -6.3125 0.296875 -5.34375 L 0 -5 L -0.265625 -4.75 C -0.265625 -4.414062 -0.171875 -4.175781 0.015625 -4.03125 C 0.304688 -3.800781 0.738281 -4.050781 1.3125 -4.78125 L 2.28125 -6.015625 C 2.90625 -6.816406 3.550781 -7.296875 4.21875 -7.453125 C 4.882812 -7.609375 5.550781 -7.425781 6.21875 -6.90625 C 7.070312 -6.238281 7.453125 -5.363281 7.359375 -4.28125 C 7.273438 -3.207031 6.71875 -2.003906 5.6875 -0.671875 C 4.882812 0.335938 4.097656 0.972656 3.328125 1.234375 C 2.554688 1.503906 1.851562 1.390625 1.21875 0.890625 C 0.78125 0.546875 0.519531 0.125 0.4375 -0.375 C 0.351562 -0.882812 0.453125 -1.453125 0.734375 -2.078125 C 0.503906 -1.953125 0.234375 -1.890625 -0.078125 -1.890625 C -0.398438 -1.890625 -0.675781 -1.976562 -0.90625 -2.15625 C -1.175781 -2.375 -1.34375 -2.632812 -1.40625 -2.9375 C -1.46875 -3.238281 -1.46875 -3.609375 -1.40625 -4.046875 C -1.875 -3.785156 -2.375 -3.6875 -2.90625 -3.75 C -3.445312 -3.820312 -3.960938 -4.050781 -4.453125 -4.4375 C -5.253906 -5.0625 -5.671875 -5.800781 -5.703125 -6.65625 C -5.734375 -7.507812 -5.375 -8.414062 -4.625 -9.375 C -4.46875 -9.570312 -4.257812 -9.796875 -4 -10.046875 C -3.75 -10.304688 -3.585938 -10.46875 -3.515625 -10.53125 Z M 2.40625 -0.953125 C 2.675781 -0.742188 2.988281 -0.707031 3.34375 -0.84375 C 3.707031 -0.988281 4.078125 -1.300781 4.453125 -1.78125 C 5.003906 -2.488281 5.335938 -3.117188 5.453125 -3.671875 C 5.578125 -4.234375 5.472656 -4.644531 5.140625 -4.90625 C 4.867188 -5.125 4.585938 -5.15625 4.296875 -5 C 4.003906 -4.84375 3.664062 -4.515625 3.28125 -4.015625 L 2.46875 -2.984375 C 2.1875 -2.617188 2.035156 -2.242188 2.015625 -1.859375 C 1.992188 -1.484375 2.125 -1.179688 2.40625 -0.953125 Z M -2.96875 -6.3125 C -2.570312 -6 -2.1875 -5.84375 -1.8125 -5.84375 C -1.445312 -5.851562 -1.117188 -6.039062 -0.828125 -6.40625 C -0.535156 -6.78125 -0.4375 -7.140625 -0.53125 -7.484375 C -0.632812 -7.835938 -0.882812 -8.171875 -1.28125 -8.484375 C -2.15625 -9.171875 -2.867188 -9.15625 -3.421875 -8.4375 C -3.992188 -7.707031 -3.84375 -7 -2.96875 -6.3125 Z M -2.96875 -6.3125 "/></g></g></g><g fill="#3d3100" fill-opacity="1"><g transform="translate(73.531181, 78.261041)"><g><path d="M -1.734375 -9.03125 C -2.117188 -8.644531 -2.296875 -8.222656 -2.265625 -7.765625 C -2.242188 -7.316406 -2.023438 -6.863281 -1.609375 -6.40625 L 0.890625 -8.890625 C 0.429688 -9.316406 -0.0234375 -9.539062 -0.484375 -9.5625 C -0.941406 -9.582031 -1.359375 -9.40625 -1.734375 -9.03125 Z M 4.03125 -3.765625 C 2.976562 -2.710938 1.863281 -2.179688 0.6875 -2.171875 C -0.488281 -2.171875 -1.609375 -2.707031 -2.671875 -3.78125 C -3.765625 -4.863281 -4.335938 -5.976562 -4.390625 -7.125 C -4.453125 -8.269531 -3.992188 -9.328125 -3.015625 -10.296875 C -2.097656 -11.222656 -1.117188 -11.679688 -0.078125 -11.671875 C 0.960938 -11.660156 1.945312 -11.1875 2.875 -10.25 L 3.734375 -9.390625 L -0.484375 -5.171875 C 0.046875 -4.679688 0.59375 -4.4375 1.15625 -4.4375 C 1.71875 -4.4375 2.253906 -4.6875 2.765625 -5.1875 C 3.148438 -5.582031 3.476562 -5.992188 3.75 -6.421875 C 4.03125 -6.859375 4.273438 -7.351562 4.484375 -7.90625 L 5.859375 -6.53125 C 5.703125 -6.0625 5.484375 -5.609375 5.203125 -5.171875 C 4.929688 -4.742188 4.539062 -4.273438 4.03125 -3.765625 Z M 4.03125 -3.765625 "/></g></g></g><g fill="#3d3100" fill-opacity="1"><g transform="translate(79.966918, 71.707453)"><g><path d="M 7.84375 -5.96875 L 5.828125 -4.4375 L 2.5625 -8.734375 C 2.15625 -9.265625 1.753906 -9.59375 1.359375 -9.71875 C 0.972656 -9.84375 0.578125 -9.742188 0.171875 -9.421875 C -0.390625 -8.992188 -0.648438 -8.5 -0.609375 -7.9375 C -0.578125 -7.375 -0.226562 -6.65625 0.4375 -5.78125 L 3.0625 -2.328125 L 1.0625 -0.796875 L -4.53125 -8.15625 L -3 -9.328125 L -2.015625 -8.59375 L -1.90625 -8.6875 C -1.945312 -9.207031 -1.84375 -9.707031 -1.59375 -10.1875 C -1.34375 -10.664062 -0.96875 -11.097656 -0.46875 -11.484375 C 0.382812 -12.128906 1.207031 -12.390625 2 -12.265625 C 2.800781 -12.140625 3.53125 -11.640625 4.1875 -10.765625 Z M 7.84375 -5.96875 "/></g></g></g><g fill="#3d3100" fill-opacity="1"><g transform="translate(88.415207, 65.453114)"><g/></g></g><g fill="#3d3100" fill-opacity="1"><g transform="translate(91.635767, 63.317434)"><g><path d="M 6.234375 -6.875 C 6.722656 -5.894531 6.753906 -4.945312 6.328125 -4.03125 C 5.910156 -3.125 5.078125 -2.359375 3.828125 -1.734375 C 2.679688 -1.148438 1.554688 -0.851562 0.453125 -0.84375 L -0.609375 -2.96875 C 0.265625 -3.007812 0.988281 -3.09375 1.5625 -3.21875 C 2.144531 -3.34375 2.644531 -3.507812 3.0625 -3.71875 C 3.5625 -3.976562 3.894531 -4.265625 4.0625 -4.578125 C 4.238281 -4.898438 4.226562 -5.253906 4.03125 -5.640625 C 3.925781 -5.859375 3.773438 -6.019531 3.578125 -6.125 C 3.378906 -6.226562 3.125 -6.296875 2.8125 -6.328125 C 2.507812 -6.367188 1.921875 -6.382812 1.046875 -6.375 C 0.242188 -6.34375 -0.394531 -6.390625 -0.875 -6.515625 C -1.351562 -6.640625 -1.785156 -6.835938 -2.171875 -7.109375 C -2.554688 -7.390625 -2.875 -7.785156 -3.125 -8.296875 C -3.601562 -9.242188 -3.65625 -10.15625 -3.28125 -11.03125 C -2.914062 -11.914062 -2.160156 -12.644531 -1.015625 -13.21875 C -0.453125 -13.5 0.113281 -13.695312 0.6875 -13.8125 C 1.269531 -13.9375 1.898438 -14.015625 2.578125 -14.046875 L 2.734375 -11.90625 C 2.046875 -11.84375 1.488281 -11.765625 1.0625 -11.671875 C 0.632812 -11.578125 0.238281 -11.4375 -0.125 -11.25 C -0.5625 -11.039062 -0.84375 -10.773438 -0.96875 -10.453125 C -1.101562 -10.140625 -1.085938 -9.820312 -0.921875 -9.5 C -0.828125 -9.289062 -0.691406 -9.132812 -0.515625 -9.03125 C -0.347656 -8.925781 -0.128906 -8.851562 0.140625 -8.8125 C 0.410156 -8.78125 1.019531 -8.78125 1.96875 -8.8125 C 3.226562 -8.820312 4.164062 -8.675781 4.78125 -8.375 C 5.394531 -8.082031 5.878906 -7.582031 6.234375 -6.875 Z M 6.234375 -6.875 "/></g></g></g><g fill="#3d3100" fill-opacity="1"><g transform="translate(99.331337, 59.434784)"><g><path d="M 4.828125 -1.578125 C 2.128906 -0.597656 0.234375 -1.59375 -0.859375 -4.5625 C -1.390625 -6.039062 -1.429688 -7.300781 -0.984375 -8.34375 C -0.535156 -9.382812 0.367188 -10.15625 1.734375 -10.65625 C 2.742188 -11.03125 3.71875 -11.164062 4.65625 -11.0625 L 4.640625 -8.96875 C 4.210938 -8.988281 3.816406 -8.988281 3.453125 -8.96875 C 3.097656 -8.945312 2.757812 -8.875 2.4375 -8.75 C 1.207031 -8.300781 0.910156 -7.203125 1.546875 -5.453125 C 2.171875 -3.753906 3.097656 -3.128906 4.328125 -3.578125 C 4.796875 -3.742188 5.195312 -3.957031 5.53125 -4.21875 C 5.875 -4.488281 6.191406 -4.820312 6.484375 -5.21875 L 7.234375 -3.1875 C 6.941406 -2.8125 6.617188 -2.503906 6.265625 -2.265625 C 5.910156 -2.023438 5.429688 -1.796875 4.828125 -1.578125 Z M 4.828125 -1.578125 "/></g></g></g><g fill="#3d3100" fill-opacity="1"><g transform="translate(107.01104, 56.686715)"><g><path d="M -1.84375 -11.5625 C -2.0625 -12.351562 -1.726562 -12.867188 -0.84375 -13.109375 C 0.0390625 -13.347656 0.59375 -13.070312 0.8125 -12.28125 C 0.914062 -11.894531 0.882812 -11.5625 0.71875 -11.28125 C 0.5625 -11.007812 0.257812 -10.816406 -0.1875 -10.703125 C -1.070312 -10.460938 -1.625 -10.75 -1.84375 -11.5625 Z M 3.71875 -1 L 1.28125 -0.34375 L -1.109375 -9.28125 L 1.328125 -9.9375 Z M 3.71875 -1 "/></g></g></g><g fill="#3d3100" fill-opacity="1"><g transform="translate(111.393257, 55.360499)"><g><path d="M 3.8125 -8.359375 C 3.28125 -8.273438 2.894531 -8.039062 2.65625 -7.65625 C 2.414062 -7.269531 2.328125 -6.769531 2.390625 -6.15625 L 5.875 -6.734375 C 5.757812 -7.347656 5.519531 -7.796875 5.15625 -8.078125 C 4.789062 -8.359375 4.34375 -8.453125 3.8125 -8.359375 Z M 5.46875 -0.734375 C 4 -0.492188 2.78125 -0.707031 1.8125 -1.375 C 0.851562 -2.050781 0.25 -3.132812 0 -4.625 C -0.257812 -6.144531 -0.0820312 -7.390625 0.53125 -8.359375 C 1.15625 -9.328125 2.144531 -9.921875 3.5 -10.140625 C 4.789062 -10.359375 5.859375 -10.160156 6.703125 -9.546875 C 7.546875 -8.929688 8.078125 -7.972656 8.296875 -6.671875 L 8.5 -5.46875 L 2.609375 -4.484375 C 2.753906 -3.785156 3.054688 -3.269531 3.515625 -2.9375 C 3.972656 -2.601562 4.554688 -2.492188 5.265625 -2.609375 C 5.804688 -2.703125 6.3125 -2.847656 6.78125 -3.046875 C 7.257812 -3.242188 7.742188 -3.515625 8.234375 -3.859375 L 8.5625 -1.9375 C 8.15625 -1.644531 7.710938 -1.398438 7.234375 -1.203125 C 6.765625 -1.015625 6.175781 -0.859375 5.46875 -0.734375 Z M 5.46875 -0.734375 "/></g></g></g><g fill="#3d3100" fill-opacity="1"><g transform="translate(120.436405, 53.752303)"><g><path d="M 9.859375 -0.3125 L 7.328125 -0.234375 L 7.15625 -5.640625 C 7.132812 -6.304688 7 -6.800781 6.75 -7.125 C 6.507812 -7.445312 6.128906 -7.601562 5.609375 -7.59375 C 4.898438 -7.570312 4.394531 -7.316406 4.09375 -6.828125 C 3.800781 -6.347656 3.671875 -5.5625 3.703125 -4.46875 L 3.84375 -0.125 L 1.328125 -0.046875 L 1.03125 -9.296875 L 2.953125 -9.359375 L 3.34375 -8.171875 L 3.484375 -8.1875 C 3.742188 -8.632812 4.113281 -8.976562 4.59375 -9.21875 C 5.082031 -9.46875 5.644531 -9.601562 6.28125 -9.625 C 7.351562 -9.664062 8.175781 -9.398438 8.75 -8.828125 C 9.320312 -8.265625 9.628906 -7.4375 9.671875 -6.34375 Z M 9.859375 -0.3125 "/></g></g></g><g fill="#3d3100" fill-opacity="1"><g transform="translate(130.78227, 53.449119)"><g><path d="M 5.046875 0.65625 C 2.179688 0.382812 0.898438 -1.328125 1.203125 -4.484375 C 1.347656 -6.046875 1.847656 -7.203125 2.703125 -7.953125 C 3.554688 -8.703125 4.707031 -9.007812 6.15625 -8.875 C 7.226562 -8.78125 8.164062 -8.488281 8.96875 -8 L 8.046875 -6.109375 C 7.671875 -6.304688 7.3125 -6.472656 6.96875 -6.609375 C 6.632812 -6.742188 6.296875 -6.828125 5.953125 -6.859375 C 4.648438 -6.984375 3.914062 -6.117188 3.75 -4.265625 C 3.570312 -2.453125 4.132812 -1.484375 5.4375 -1.359375 C 5.925781 -1.316406 6.382812 -1.335938 6.8125 -1.421875 C 7.238281 -1.515625 7.671875 -1.679688 8.109375 -1.921875 L 7.90625 0.21875 C 7.476562 0.445312 7.050781 0.585938 6.625 0.640625 C 6.195312 0.703125 5.671875 0.707031 5.046875 0.65625 Z M 5.046875 0.65625 "/></g></g></g><g fill="#3d3100" fill-opacity="1"><g transform="translate(138.731785, 54.116529)"><g><path d="M 6.65625 -6.359375 C 6.125 -6.472656 5.671875 -6.394531 5.296875 -6.125 C 4.929688 -5.863281 4.664062 -5.429688 4.5 -4.828125 L 7.953125 -4.09375 C 8.066406 -4.695312 8.003906 -5.195312 7.765625 -5.59375 C 7.535156 -6 7.164062 -6.253906 6.65625 -6.359375 Z M 5.359375 1.34375 C 3.898438 1.019531 2.847656 0.367188 2.203125 -0.609375 C 1.554688 -1.597656 1.394531 -2.828125 1.71875 -4.296875 C 2.039062 -5.804688 2.664062 -6.890625 3.59375 -7.546875 C 4.53125 -8.210938 5.671875 -8.40625 7.015625 -8.125 C 8.285156 -7.84375 9.195312 -7.265625 9.75 -6.390625 C 10.3125 -5.515625 10.457031 -4.429688 10.1875 -3.140625 L 9.921875 -1.953125 L 4.078125 -3.203125 C 3.953125 -2.503906 4.039062 -1.914062 4.34375 -1.4375 C 4.644531 -0.96875 5.148438 -0.65625 5.859375 -0.5 C 6.398438 -0.382812 6.925781 -0.328125 7.4375 -0.328125 C 7.957031 -0.335938 8.503906 -0.40625 9.078125 -0.53125 L 8.671875 1.375 C 8.179688 1.488281 7.679688 1.546875 7.171875 1.546875 C 6.660156 1.554688 6.054688 1.488281 5.359375 1.34375 Z M 5.359375 1.34375 "/></g></g></g><g fill="#3d3100" fill-opacity="1"><g transform="translate(147.929424, 56.207211)"><g/></g></g><g fill="#3d3100" fill-opacity="1"><g transform="translate(151.518634, 56.886865)"><g><path d="M 6.03125 2.78125 L 7.375 -7.046875 L 7.296875 -7.078125 C 6.578125 -5.285156 6.082031 -4.097656 5.8125 -3.515625 L 3.453125 1.59375 L 1.375 0.640625 L 6.453125 -10.328125 L 9.625 -8.859375 L 8.328125 0.734375 L 8.375 0.75 L 15.015625 -6.375 L 18.203125 -4.90625 L 13.125 6.0625 L 10.953125 5.0625 L 13.359375 -0.125 C 13.472656 -0.375 13.601562 -0.65625 13.75 -0.96875 C 13.90625 -1.28125 14.332031 -2.113281 15.03125 -3.46875 L 14.953125 -3.515625 L 8.15625 3.765625 Z M 6.03125 2.78125 "/></g></g></g><g fill="#3d3100" fill-opacity="1"><g transform="translate(165.000203, 63.256517)"><g><path d="M 6.46875 4.484375 L 6.859375 3.296875 L 6.765625 3.234375 C 6.285156 3.441406 5.773438 3.5 5.234375 3.40625 C 4.703125 3.320312 4.175781 3.097656 3.65625 2.734375 C 2.757812 2.109375 2.25 1.398438 2.125 0.609375 C 2 -0.171875 2.25 -1.007812 2.875 -1.90625 L 6.3125 -6.875 L 8.390625 -5.453125 L 5.3125 -1 C 4.9375 -0.457031 4.75 0.015625 4.75 0.421875 C 4.75 0.835938 4.960938 1.191406 5.390625 1.484375 C 5.972656 1.890625 6.523438 1.984375 7.046875 1.765625 C 7.578125 1.554688 8.148438 1.007812 8.765625 0.125 L 11.25 -3.46875 L 13.328125 -2.03125 L 8.0625 5.578125 Z M 6.46875 4.484375 "/></g></g></g><g fill="#3d3100" fill-opacity="1"><g transform="translate(173.500272, 69.179858)"><g><path d="M 7.625 3.140625 C 7 3.847656 6.273438 4.164062 5.453125 4.09375 C 4.628906 4.019531 3.726562 3.546875 2.75 2.671875 C 2.238281 2.222656 1.835938 1.804688 1.546875 1.421875 C 1.253906 1.035156 1.015625 0.640625 0.828125 0.234375 L 2.21875 -1.3125 C 2.425781 -0.832031 2.691406 -0.34375 3.015625 0.15625 C 3.347656 0.65625 3.679688 1.054688 4.015625 1.359375 C 4.703125 1.960938 5.222656 2.066406 5.578125 1.671875 C 5.710938 1.523438 5.773438 1.363281 5.765625 1.1875 C 5.765625 1.019531 5.703125 0.78125 5.578125 0.46875 C 5.460938 0.15625 5.289062 -0.242188 5.0625 -0.734375 C 4.738281 -1.429688 4.535156 -1.984375 4.453125 -2.390625 C 4.367188 -2.804688 4.378906 -3.1875 4.484375 -3.53125 C 4.597656 -3.875 4.816406 -4.226562 5.140625 -4.59375 C 5.679688 -5.207031 6.335938 -5.46875 7.109375 -5.375 C 7.890625 -5.289062 8.710938 -4.859375 9.578125 -4.078125 C 10.410156 -3.335938 11.050781 -2.4375 11.5 -1.375 L 9.734375 -0.53125 C 9.523438 -0.976562 9.3125 -1.378906 9.09375 -1.734375 C 8.875 -2.097656 8.613281 -2.421875 8.3125 -2.703125 C 7.75 -3.203125 7.332031 -3.304688 7.0625 -3.015625 C 6.914062 -2.835938 6.875 -2.609375 6.9375 -2.328125 C 7.007812 -2.046875 7.238281 -1.507812 7.625 -0.71875 C 7.96875 -0.03125 8.179688 0.519531 8.265625 0.9375 C 8.347656 1.351562 8.335938 1.738281 8.234375 2.09375 C 8.140625 2.445312 7.9375 2.796875 7.625 3.140625 Z M 7.625 3.140625 "/></g></g></g><g fill="#3d3100" fill-opacity="1"><g transform="translate(179.300516, 74.243094)"><g><path d="M 9.125 -1.1875 C 8.757812 -1.59375 8.351562 -1.796875 7.90625 -1.796875 C 7.457031 -1.796875 6.984375 -1.609375 6.484375 -1.234375 L 8.828125 1.40625 C 9.285156 0.988281 9.535156 0.550781 9.578125 0.09375 C 9.628906 -0.363281 9.476562 -0.789062 9.125 -1.1875 Z M 3.53125 4.234375 C 2.539062 3.117188 2.070312 1.976562 2.125 0.8125 C 2.1875 -0.351562 2.785156 -1.441406 3.921875 -2.453125 C 5.066406 -3.472656 6.210938 -3.976562 7.359375 -3.96875 C 8.515625 -3.957031 9.546875 -3.4375 10.453125 -2.40625 C 11.316406 -1.425781 11.710938 -0.414062 11.640625 0.625 C 11.566406 1.664062 11.039062 2.625 10.0625 3.5 L 9.15625 4.296875 L 5.203125 -0.171875 C 4.679688 0.328125 4.398438 0.859375 4.359375 1.421875 C 4.316406 1.984375 4.535156 2.535156 5.015625 3.078125 C 5.378906 3.484375 5.769531 3.832031 6.1875 4.125 C 6.601562 4.425781 7.085938 4.703125 7.640625 4.953125 L 6.171875 6.234375 C 5.703125 6.046875 5.265625 5.800781 4.859375 5.5 C 4.453125 5.195312 4.007812 4.773438 3.53125 4.234375 Z M 3.53125 4.234375 "/></g></g></g><g fill="#3d3100" fill-opacity="1"><g transform="translate(185.458088, 81.059728)"><g><path d="M 4.390625 6.546875 L 5.171875 5.59375 L 5.109375 5.5 C 4.585938 5.507812 4.09375 5.375 3.625 5.09375 C 3.164062 4.8125 2.757812 4.410156 2.40625 3.890625 C 1.789062 2.972656 1.570312 2.125 1.75 1.34375 C 1.9375 0.570312 2.484375 -0.117188 3.390625 -0.734375 L 8.40625 -4.09375 L 9.796875 -2 L 5.296875 1.015625 C 4.742188 1.390625 4.394531 1.765625 4.25 2.140625 C 4.101562 2.515625 4.175781 2.921875 4.46875 3.359375 C 4.863281 3.941406 5.347656 4.234375 5.921875 4.234375 C 6.492188 4.234375 7.226562 3.929688 8.125 3.328125 L 11.75 0.890625 L 13.15625 3 L 5.46875 8.15625 Z M 4.390625 6.546875 "/></g></g></g><g fill="#3d3100" fill-opacity="1"><g transform="translate(191.354043, 89.250442)"><g><path d="M 3.875 8.796875 L 2.84375 6.484375 L 7.796875 4.3125 C 8.398438 4.039062 8.8125 3.734375 9.03125 3.390625 C 9.25 3.046875 9.265625 2.65625 9.078125 2.21875 C 8.816406 1.625 8.410156 1.289062 7.859375 1.21875 C 7.304688 1.144531 6.523438 1.328125 5.515625 1.765625 L 1.546875 3.515625 L 0.53125 1.21875 L 9 -2.5 L 9.78125 -0.75 L 8.828125 0.046875 L 8.875 0.171875 C 9.375 0.234375 9.828125 0.425781 10.234375 0.75 C 10.640625 1.082031 10.96875 1.523438 11.21875 2.078125 C 11.769531 3.347656 11.726562 4.390625 11.09375 5.203125 L 11.1875 5.40625 C 11.675781 5.46875 12.125 5.664062 12.53125 6 C 12.945312 6.34375 13.28125 6.796875 13.53125 7.359375 C 13.945312 8.304688 14.019531 9.132812 13.75 9.84375 C 13.476562 10.5625 12.796875 11.160156 11.703125 11.640625 L 6.1875 14.0625 L 5.171875 11.734375 L 10.125 9.5625 C 10.726562 9.289062 11.140625 8.988281 11.359375 8.65625 C 11.578125 8.320312 11.585938 7.9375 11.390625 7.5 C 11.140625 6.925781 10.75 6.585938 10.21875 6.484375 C 9.695312 6.390625 9 6.535156 8.125 6.921875 Z M 3.875 8.796875 "/></g></g></g></svg>